  0
SECTION
  2
HEADER
  9
$ACADVER
  1
AC1014
  9
$HANDSEED
  5
FFFF
  9
$INSUNITS
 70
     1
  9
$MEASUREMENT
 70
     1
  0
ENDSEC
  0
SECTION
  2
TABLES
  0
TABLE
  2
VPORT
  5
8
330
0
100
AcDbSymbolTable
 70
     4
  0
VPORT
  5
2E
330
8
100
AcDbSymbolTableRecord
100
AcDbViewportTableRecord
  2
*ACTIVE
 70
     0
 10
0.0
 20
0.0
 11
1.0
 21
1.0
 12
210.0
 22
148.5
 13
0.0
 23
0.0
 14
10.0
 24
10.0
 15
10.0
 25
10.0
 16
0.0
 26
0.0
 36
1.0
 17
0.0
 27
0.0
 37
0.0
 40
341.0
 41
1.24
 42
50.0
 43
0.0
 44
0.0
 50
0.0
 51
0.0
 71
     0
 72
   100
 73
     1
 74
     3
 75
     0
 76
     0
 77
     0
 78
     0
  0
ENDTAB
  0
TABLE
  2
LTYPE
  5
5
330
0
100
AcDbSymbolTable
 70
     1
  0
LTYPE
  5
14
330
5
100
AcDbSymbolTableRecord
100
AcDbLinetypeTableRecord
  2
BYBLOCK
 70
     0
  3

 72
    65
 73
     0
 40
0.0
  0
LTYPE
  5
15
330
5
100
AcDbSymbolTableRecord
100
AcDbLinetypeTableRecord
  2
BYLAYER
 70
     0
  3

 72
    65
 73
     0
 40
0.0
  0
LTYPE
  5
16
330
5
100
AcDbSymbolTableRecord
100
AcDbLinetypeTableRecord
  2
CONTINUOUS
 70
     0
  3
Solid line
 72
    65
 73
     0
 40
0.0
  0
ENDTAB
  0
TABLE
  2
LAYER
  5
2
100
AcDbSymbolTable
 70
1
  0
LAYER
  5
50
100
AcDbSymbolTableRecord
100
AcDbLayerTableRecord
  2
0
 70
0
  6
CONTINUOUS
  0
ENDTAB
  0
TABLE
  2
STYLE
  5
3
330
0
100
AcDbSymbolTable
 70
     1
  0
STYLE
  5
11
330
3
100
AcDbSymbolTableRecord
100
AcDbTextStyleTableRecord
  2
STANDARD
 70
     0
 40
0.0
 41
1.0
 50
0.0
 71
     0
 42
2.5
  3
txt
  4

  0
ENDTAB
  0
TABLE
  2
VIEW
  5
6
330
0
100
AcDbSymbolTable
 70
     0
  0
ENDTAB
  0
TABLE
  2
UCS
  5
7
330
0
100
AcDbSymbolTable
 70
     0
  0
ENDTAB
  0
TABLE
  2
APPID
  5
9
330
0
100
AcDbSymbolTable
 70
     2
  0
APPID
  5
12
330
9
100
AcDbSymbolTableRecord
100
AcDbRegAppTableRecord
  2
ACAD
 70
     0
  0
ENDTAB
  0
TABLE
  2
DIMSTYLE
  5
A
330
0
100
AcDbSymbolTable
 70
     1
  0
DIMSTYLE
105
27
330
A
100
AcDbSymbolTableRecord
100
AcDbDimStyleTableRecord
  2
ISO-25
 70
     0
  3

  4

  5

  6

  7

 40
1.0
 41
2.5
 42
0.625
 43
3.75
 44
1.25
 45
0.0
 46
0.0
 47
0.0
 48
0.0
140
2.5
141
2.5
142
0.0
143
0.03937007874016
144
1.0
145
0.0
146
1.0
147
0.625
 71
     0
 72
     0
 73
     0
 74
     0
 75
     0
 76
     0
 77
     1
 78
     8
170
     0
171
     3
172
     1
173
     0
174
     0
175
     0
176
     0
177
     0
178
     0
270
     2
271
     2
272
     2
273
     2
274
     3
340
11
275
     0
280
     0
281
     0
282
     0
283
     0
284
     8
285
     0
286
     0
287
     3
288
     0
  0
ENDTAB
  0
TABLE
  2
BLOCK_RECORD
  5
1
330
0
100
AcDbSymbolTable
 70
     1
  0
BLOCK_RECORD
  5
1F
330
1
100
AcDbSymbolTableRecord
100
AcDbBlockTableRecord
  2
*MODEL_SPACE
  0
BLOCK_RECORD
  5
1B
330
1
100
AcDbSymbolTableRecord
100
AcDbBlockTableRecord
  2
*PAPER_SPACE
  0
ENDTAB
  0
ENDSEC
  0
SECTION
  2
BLOCKS
  0
BLOCK
  5
20
330
1F
100
AcDbEntity
  8
0
100
AcDbBlockBegin
  2
*MODEL_SPACE
 70
     0
 10
0.0
 20
0.0
 30
0.0
  3
*MODEL_SPACE
  1

  0
ENDBLK
  5
21
330
1F
100
AcDbEntity
  8
0
100
AcDbBlockEnd
  0
BLOCK
  5
1C
330
1B
100
AcDbEntity
 67
     1
  8
0
100
AcDbBlockBegin
  2
*PAPER_SPACE
  1

  0
ENDBLK
  5
1D
330
1B
100
AcDbEntity
 67
     1
  8
0
100
AcDbBlockEnd
  0
ENDSEC
  0
SECTION
  2
ENTITIES
  0
SPLINE
  5
100
100
AcDbEntity
  8
0
 62
1
100
AcDbSpline
 70
8
 71
3
 72
8
 73
4
 74
0
 40
0
 40
0
 40
0
 40
0
 40
1
 40
1
 40
1
 40
1
 10
3.966576
 20
5.312264
 30
0.0
 10
3.966576
 20
5.320347
 30
0.0
 10
3.963364
 20
5.328100
 30
0.0
 10
3.957648
 20
5.333816
 30
0.0
  0
SPLINE
  5
101
100
AcDbEntity
  8
0
 62
1
100
AcDbSpline
 70
8
 71
3
 72
8
 73
4
 74
0
 40
0
 40
0
 40
0
 40
0
 40
1
 40
1
 40
1
 40
1
 10
3.957648
 20
5.333816
 30
0.0
 10
3.951932
 20
5.339532
 30
0.0
 10
3.944179
 20
5.342744
 30
0.0
 10
3.936096
 20
5.342744
 30
0.0
  0
SPLINE
  5
102
100
AcDbEntity
  8
0
 62
1
100
AcDbSpline
 70
8
 71
3
 72
8
 73
4
 74
0
 40
0
 40
0
 40
0
 40
0
 40
1
 40
1
 40
1
 40
1
 10
3.936096
 20
5.342744
 30
0.0
 10
3.928012
 20
5.342744
 30
0.0
 10
3.920259
 20
5.339532
 30
0.0
 10
3.914543
 20
5.333816
 30
0.0
  0
SPLINE
  5
103
100
AcDbEntity
  8
0
 62
1
100
AcDbSpline
 70
8
 71
3
 72
8
 73
4
 74
0
 40
0
 40
0
 40
0
 40
0
 40
1
 40
1
 40
1
 40
1
 10
3.914543
 20
5.333816
 30
0.0
 10
3.908827
 20
5.328100
 30
0.0
 10
3.905616
 20
5.320347
 30
0.0
 10
3.905616
 20
5.312264
 30
0.0
  0
SPLINE
  5
104
100
AcDbEntity
  8
0
 62
1
100
AcDbSpline
 70
8
 71
3
 72
8
 73
4
 74
0
 40
0
 40
0
 40
0
 40
0
 40
1
 40
1
 40
1
 40
1
 10
3.905616
 20
5.312264
 30
0.0
 10
3.905616
 20
5.304180
 30
0.0
 10
3.908827
 20
5.296427
 30
0.0
 10
3.914543
 20
5.290711
 30
0.0
  0
SPLINE
  5
105
100
AcDbEntity
  8
0
 62
1
100
AcDbSpline
 70
8
 71
3
 72
8
 73
4
 74
0
 40
0
 40
0
 40
0
 40
0
 40
1
 40
1
 40
1
 40
1
 10
3.914543
 20
5.290711
 30
0.0
 10
3.920259
 20
5.284995
 30
0.0
 10
3.928012
 20
5.281784
 30
0.0
 10
3.936096
 20
5.281784
 30
0.0
  0
SPLINE
  5
106
100
AcDbEntity
  8
0
 62
1
100
AcDbSpline
 70
8
 71
3
 72
8
 73
4
 74
0
 40
0
 40
0
 40
0
 40
0
 40
1
 40
1
 40
1
 40
1
 10
3.936096
 20
5.281784
 30
0.0
 10
3.944179
 20
5.281784
 30
0.0
 10
3.951932
 20
5.284995
 30
0.0
 10
3.957648
 20
5.290711
 30
0.0
  0
SPLINE
  5
107
100
AcDbEntity
  8
0
 62
1
100
AcDbSpline
 70
8
 71
3
 72
8
 73
4
 74
0
 40
0
 40
0
 40
0
 40
0
 40
1
 40
1
 40
1
 40
1
 10
3.957648
 20
5.290711
 30
0.0
 10
3.963364
 20
5.296427
 30
0.0
 10
3.966576
 20
5.304180
 30
0.0
 10
3.966576
 20
5.312264
 30
0.0
  0
LWPOLYLINE
  5
108
100
AcDbEntity
  8
0
 62
1
100
AcDbPolyline
 90
4
 70
1
 10
0.002790
 20
0.000997
 30
0.0
 10
7.874811
 20
0.000997
 30
0.0
 10
7.874811
 20
7.873018
 30
0.0
 10
0.002790
 20
7.873018
 30
0.0
  0
SPLINE
  5
109
100
AcDbEntity
  8
0
 62
1
100
AcDbSpline
 70
8
 71
3
 72
8
 73
4
 74
0
 40
0
 40
0
 40
0
 40
0
 40
1
 40
1
 40
1
 40
1
 10
3.966576
 20
5.902795
 30
0.0
 10
3.966576
 20
5.910879
 30
0.0
 10
3.963364
 20
5.918632
 30
0.0
 10
3.957648
 20
5.924348
 30
0.0
  0
SPLINE
  5
10a
100
AcDbEntity
  8
0
 62
1
100
AcDbSpline
 70
8
 71
3
 72
8
 73
4
 74
0
 40
0
 40
0
 40
0
 40
0
 40
1
 40
1
 40
1
 40
1
 10
3.957648
 20
5.924348
 30
0.0
 10
3.951932
 20
5.930064
 30
0.0
 10
3.944179
 20
5.933275
 30
0.0
 10
3.936096
 20
5.933275
 30
0.0
  0
SPLINE
  5
10b
100
AcDbEntity
  8
0
 62
1
100
AcDbSpline
 70
8
 71
3
 72
8
 73
4
 74
0
 40
0
 40
0
 40
0
 40
0
 40
1
 40
1
 40
1
 40
1
 10
3.936096
 20
5.933275
 30
0.0
 10
3.928012
 20
5.933275
 30
0.0
 10
3.920259
 20
5.930064
 30
0.0
 10
3.914543
 20
5.924348
 30
0.0
  0
SPLINE
  5
10c
100
AcDbEntity
  8
0
 62
1
100
AcDbSpline
 70
8
 71
3
 72
8
 73
4
 74
0
 40
0
 40
0
 40
0
 40
0
 40
1
 40
1
 40
1
 40
1
 10
3.914543
 20
5.924348
 30
0.0
 10
3.908827
 20
5.918632
 30
0.0
 10
3.905616
 20
5.910879
 30
0.0
 10
3.905616
 20
5.902795
 30
0.0
  0
SPLINE
  5
10d
100
AcDbEntity
  8
0
 62
1
100
AcDbSpline
 70
8
 71
3
 72
8
 73
4
 74
0
 40
0
 40
0
 40
0
 40
0
 40
1
 40
1
 40
1
 40
1
 10
3.905616
 20
5.902795
 30
0.0
 10
3.905616
 20
5.894712
 30
0.0
 10
3.908827
 20
5.886959
 30
0.0
 10
3.914543
 20
5.881243
 30
0.0
  0
SPLINE
  5
10e
100
AcDbEntity
  8
0
 62
1
100
AcDbSpline
 70
8
 71
3
 72
8
 73
4
 74
0
 40
0
 40
0
 40
0
 40
0
 40
1
 40
1
 40
1
 40
1
 10
3.914543
 20
5.881243
 30
0.0
 10
3.920259
 20
5.875527
 30
0.0
 10
3.928012
 20
5.872315
 30
0.0
 10
3.936096
 20
5.872315
 30
0.0
  0
SPLINE
  5
10f
100
AcDbEntity
  8
0
 62
1
100
AcDbSpline
 70
8
 71
3
 72
8
 73
4
 74
0
 40
0
 40
0
 40
0
 40
0
 40
1
 40
1
 40
1
 40
1
 10
3.936096
 20
5.872315
 30
0.0
 10
3.944179
 20
5.872315
 30
0.0
 10
3.951932
 20
5.875527
 30
0.0
 10
3.957648
 20
5.881243
 30
0.0
  0
SPLINE
  5
110
100
AcDbEntity
  8
0
 62
1
100
AcDbSpline
 70
8
 71
3
 72
8
 73
4
 74
0
 40
0
 40
0
 40
0
 40
0
 40
1
 40
1
 40
1
 40
1
 10
3.957648
 20
5.881243
 30
0.0
 10
3.963364
 20
5.886959
 30
0.0
 10
3.966576
 20
5.894712
 30
0.0
 10
3.966576
 20
5.902795
 30
0.0
  0
LWPOLYLINE
  5
111
100
AcDbEntity
  8
0
 62
1
100
AcDbPolyline
 90
1
 70
1
 10
3.966576
 20
5.312264
 30
0.0
  0
SPLINE
  5
112
100
AcDbEntity
  8
0
 62
1
100
AcDbSpline
 70
8
 71
3
 72
8
 73
4
 74
0
 40
0
 40
0
 40
0
 40
0
 40
1
 40
1
 40
1
 40
1
 10
3.966576
 20
6.493362
 30
0.0
 10
3.966576
 20
6.501446
 30
0.0
 10
3.963364
 20
6.509199
 30
0.0
 10
3.957648
 20
6.514915
 30
0.0
  0
SPLINE
  5
113
100
AcDbEntity
  8
0
 62
1
100
AcDbSpline
 70
8
 71
3
 72
8
 73
4
 74
0
 40
0
 40
0
 40
0
 40
0
 40
1
 40
1
 40
1
 40
1
 10
3.957648
 20
6.514915
 30
0.0
 10
3.951932
 20
6.520631
 30
0.0
 10
3.944179
 20
6.523842
 30
0.0
 10
3.936096
 20
6.523842
 30
0.0
  0
SPLINE
  5
114
100
AcDbEntity
  8
0
 62
1
100
AcDbSpline
 70
8
 71
3
 72
8
 73
4
 74
0
 40
0
 40
0
 40
0
 40
0
 40
1
 40
1
 40
1
 40
1
 10
3.936096
 20
6.523842
 30
0.0
 10
3.928012
 20
6.523842
 30
0.0
 10
3.920259
 20
6.520631
 30
0.0
 10
3.914543
 20
6.514915
 30
0.0
  0
SPLINE
  5
115
100
AcDbEntity
  8
0
 62
1
100
AcDbSpline
 70
8
 71
3
 72
8
 73
4
 74
0
 40
0
 40
0
 40
0
 40
0
 40
1
 40
1
 40
1
 40
1
 10
3.914543
 20
6.514915
 30
0.0
 10
3.908827
 20
6.509199
 30
0.0
 10
3.905616
 20
6.501446
 30
0.0
 10
3.905616
 20
6.493362
 30
0.0
  0
SPLINE
  5
116
100
AcDbEntity
  8
0
 62
1
100
AcDbSpline
 70
8
 71
3
 72
8
 73
4
 74
0
 40
0
 40
0
 40
0
 40
0
 40
1
 40
1
 40
1
 40
1
 10
3.905616
 20
6.493362
 30
0.0
 10
3.905616
 20
6.485278
 30
0.0
 10
3.908827
 20
6.477526
 30
0.0
 10
3.914543
 20
6.471809
 30
0.0
  0
SPLINE
  5
117
100
AcDbEntity
  8
0
 62
1
100
AcDbSpline
 70
8
 71
3
 72
8
 73
4
 74
0
 40
0
 40
0
 40
0
 40
0
 40
1
 40
1
 40
1
 40
1
 10
3.914543
 20
6.471809
 30
0.0
 10
3.920259
 20
6.466093
 30
0.0
 10
3.928012
 20
6.462882
 30
0.0
 10
3.936096
 20
6.462882
 30
0.0
  0
SPLINE
  5
118
100
AcDbEntity
  8
0
 62
1
100
AcDbSpline
 70
8
 71
3
 72
8
 73
4
 74
0
 40
0
 40
0
 40
0
 40
0
 40
1
 40
1
 40
1
 40
1
 10
3.936096
 20
6.462882
 30
0.0
 10
3.944179
 20
6.462882
 30
0.0
 10
3.951932
 20
6.466093
 30
0.0
 10
3.957648
 20
6.471809
 30
0.0
  0
SPLINE
  5
119
100
AcDbEntity
  8
0
 62
1
100
AcDbSpline
 70
8
 71
3
 72
8
 73
4
 74
0
 40
0
 40
0
 40
0
 40
0
 40
1
 40
1
 40
1
 40
1
 10
3.957648
 20
6.471809
 30
0.0
 10
3.963364
 20
6.477526
 30
0.0
 10
3.966576
 20
6.485278
 30
0.0
 10
3.966576
 20
6.493362
 30
0.0
  0
LWPOLYLINE
  5
11a
100
AcDbEntity
  8
0
 62
1
100
AcDbPolyline
 90
1
 70
1
 10
3.966576
 20
5.902795
 30
0.0
  0
SPLINE
  5
11b
100
AcDbEntity
  8
0
 62
1
100
AcDbSpline
 70
8
 71
3
 72
8
 73
4
 74
0
 40
0
 40
0
 40
0
 40
0
 40
1
 40
1
 40
1
 40
1
 10
7.313030
 20
3.647948
 30
0.0
 10
7.313030
 20
3.656032
 30
0.0
 10
7.309818
 20
3.663785
 30
0.0
 10
7.304102
 20
3.669501
 30
0.0
  0
SPLINE
  5
11c
100
AcDbEntity
  8
0
 62
1
100
AcDbSpline
 70
8
 71
3
 72
8
 73
4
 74
0
 40
0
 40
0
 40
0
 40
0
 40
1
 40
1
 40
1
 40
1
 10
7.304102
 20
3.669501
 30
0.0
 10
7.298386
 20
3.675217
 30
0.0
 10
7.290633
 20
3.678428
 30
0.0
 10
7.282550
 20
3.678428
 30
0.0
  0
SPLINE
  5
11d
100
AcDbEntity
  8
0
 62
1
100
AcDbSpline
 70
8
 71
3
 72
8
 73
4
 74
0
 40
0
 40
0
 40
0
 40
0
 40
1
 40
1
 40
1
 40
1
 10
7.282550
 20
3.678428
 30
0.0
 10
7.274466
 20
3.678428
 30
0.0
 10
7.266713
 20
3.675217
 30
0.0
 10
7.260997
 20
3.669501
 30
0.0
  0
SPLINE
  5
11e
100
AcDbEntity
  8
0
 62
1
100
AcDbSpline
 70
8
 71
3
 72
8
 73
4
 74
0
 40
0
 40
0
 40
0
 40
0
 40
1
 40
1
 40
1
 40
1
 10
7.260997
 20
3.669501
 30
0.0
 10
7.255281
 20
3.663785
 30
0.0
 10
7.252069
 20
3.656032
 30
0.0
 10
7.252070
 20
3.647948
 30
0.0
  0
SPLINE
  5
11f
100
AcDbEntity
  8
0
 62
1
100
AcDbSpline
 70
8
 71
3
 72
8
 73
4
 74
0
 40
0
 40
0
 40
0
 40
0
 40
1
 40
1
 40
1
 40
1
 10
7.252070
 20
3.647948
 30
0.0
 10
7.252070
 20
3.639864
 30
0.0
 10
7.255281
 20
3.632112
 30
0.0
 10
7.260997
 20
3.626395
 30
0.0
  0
SPLINE
  5
120
100
AcDbEntity
  8
0
 62
1
100
AcDbSpline
 70
8
 71
3
 72
8
 73
4
 74
0
 40
0
 40
0
 40
0
 40
0
 40
1
 40
1
 40
1
 40
1
 10
7.260997
 20
3.626395
 30
0.0
 10
7.266713
 20
3.620679
 30
0.0
 10
7.274466
 20
3.617468
 30
0.0
 10
7.282550
 20
3.617468
 30
0.0
  0
SPLINE
  5
121
100
AcDbEntity
  8
0
 62
1
100
AcDbSpline
 70
8
 71
3
 72
8
 73
4
 74
0
 40
0
 40
0
 40
0
 40
0
 40
1
 40
1
 40
1
 40
1
 10
7.282550
 20
3.617468
 30
0.0
 10
7.290633
 20
3.617468
 30
0.0
 10
7.298386
 20
3.620679
 30
0.0
 10
7.304102
 20
3.626395
 30
0.0
  0
SPLINE
  5
122
100
AcDbEntity
  8
0
 62
1
100
AcDbSpline
 70
8
 71
3
 72
8
 73
4
 74
0
 40
0
 40
0
 40
0
 40
0
 40
1
 40
1
 40
1
 40
1
 10
7.304102
 20
3.626395
 30
0.0
 10
7.309818
 20
3.632112
 30
0.0
 10
7.313030
 20
3.639864
 30
0.0
 10
7.313030
 20
3.647948
 30
0.0
  0
LWPOLYLINE
  5
123
100
AcDbEntity
  8
0
 62
1
100
AcDbPolyline
 90
1
 70
1
 10
3.966576
 20
6.493362
 30
0.0
  0
SPLINE
  5
124
100
AcDbEntity
  8
0
 62
1
100
AcDbSpline
 70
8
 71
3
 72
8
 73
4
 74
0
 40
0
 40
0
 40
0
 40
0
 40
1
 40
1
 40
1
 40
1
 10
7.313030
 20
0.784689
 30
0.0
 10
7.313030
 20
0.792773
 30
0.0
 10
7.309818
 20
0.800525
 30
0.0
 10
7.304102
 20
0.806242
 30
0.0
  0
SPLINE
  5
125
100
AcDbEntity
  8
0
 62
1
100
AcDbSpline
 70
8
 71
3
 72
8
 73
4
 74
0
 40
0
 40
0
 40
0
 40
0
 40
1
 40
1
 40
1
 40
1
 10
7.304102
 20
0.806242
 30
0.0
 10
7.298386
 20
0.811958
 30
0.0
 10
7.290633
 20
0.815169
 30
0.0
 10
7.282550
 20
0.815169
 30
0.0
  0
SPLINE
  5
126
100
AcDbEntity
  8
0
 62
1
100
AcDbSpline
 70
8
 71
3
 72
8
 73
4
 74
0
 40
0
 40
0
 40
0
 40
0
 40
1
 40
1
 40
1
 40
1
 10
7.282550
 20
0.815169
 30
0.0
 10
7.274466
 20
0.815169
 30
0.0
 10
7.266713
 20
0.811958
 30
0.0
 10
7.260997
 20
0.806242
 30
0.0
  0
SPLINE
  5
127
100
AcDbEntity
  8
0
 62
1
100
AcDbSpline
 70
8
 71
3
 72
8
 73
4
 74
0
 40
0
 40
0
 40
0
 40
0
 40
1
 40
1
 40
1
 40
1
 10
7.260997
 20
0.806242
 30
0.0
 10
7.255281
 20
0.800525
 30
0.0
 10
7.252069
 20
0.792773
 30
0.0
 10
7.252070
 20
0.784689
 30
0.0
  0
SPLINE
  5
128
100
AcDbEntity
  8
0
 62
1
100
AcDbSpline
 70
8
 71
3
 72
8
 73
4
 74
0
 40
0
 40
0
 40
0
 40
0
 40
1
 40
1
 40
1
 40
1
 10
7.252070
 20
0.784689
 30
0.0
 10
7.252070
 20
0.776605
 30
0.0
 10
7.255281
 20
0.768852
 30
0.0
 10
7.260997
 20
0.763136
 30
0.0
  0
SPLINE
  5
129
100
AcDbEntity
  8
0
 62
1
100
AcDbSpline
 70
8
 71
3
 72
8
 73
4
 74
0
 40
0
 40
0
 40
0
 40
0
 40
1
 40
1
 40
1
 40
1
 10
7.260997
 20
0.763136
 30
0.0
 10
7.266713
 20
0.757420
 30
0.0
 10
7.274466
 20
0.754209
 30
0.0
 10
7.282550
 20
0.754209
 30
0.0
  0
SPLINE
  5
12a
100
AcDbEntity
  8
0
 62
1
100
AcDbSpline
 70
8
 71
3
 72
8
 73
4
 74
0
 40
0
 40
0
 40
0
 40
0
 40
1
 40
1
 40
1
 40
1
 10
7.282550
 20
0.754209
 30
0.0
 10
7.290633
 20
0.754209
 30
0.0
 10
7.298386
 20
0.757420
 30
0.0
 10
7.304102
 20
0.763136
 30
0.0
  0
SPLINE
  5
12b
100
AcDbEntity
  8
0
 62
1
100
AcDbSpline
 70
8
 71
3
 72
8
 73
4
 74
0
 40
0
 40
0
 40
0
 40
0
 40
1
 40
1
 40
1
 40
1
 10
7.304102
 20
0.763136
 30
0.0
 10
7.309818
 20
0.768852
 30
0.0
 10
7.313030
 20
0.776605
 30
0.0
 10
7.313030
 20
0.784689
 30
0.0
  0
LWPOLYLINE
  5
12c
100
AcDbEntity
  8
0
 62
1
100
AcDbPolyline
 90
1
 70
1
 10
7.313030
 20
3.647948
 30
0.0
  0
SPLINE
  5
12d
100
AcDbEntity
  8
0
 62
1
100
AcDbSpline
 70
8
 71
3
 72
8
 73
4
 74
0
 40
0
 40
0
 40
0
 40
0
 40
1
 40
1
 40
1
 40
1
 10
7.313030
 20
7.073918
 30
0.0
 10
7.313030
 20
7.082001
 30
0.0
 10
7.309818
 20
7.089754
 30
0.0
 10
7.304102
 20
7.095470
 30
0.0
  0
SPLINE
  5
12e
100
AcDbEntity
  8
0
 62
1
100
AcDbSpline
 70
8
 71
3
 72
8
 73
4
 74
0
 40
0
 40
0
 40
0
 40
0
 40
1
 40
1
 40
1
 40
1
 10
7.304102
 20
7.095470
 30
0.0
 10
7.298386
 20
7.101186
 30
0.0
 10
7.290633
 20
7.104398
 30
0.0
 10
7.282550
 20
7.104398
 30
0.0
  0
SPLINE
  5
12f
100
AcDbEntity
  8
0
 62
1
100
AcDbSpline
 70
8
 71
3
 72
8
 73
4
 74
0
 40
0
 40
0
 40
0
 40
0
 40
1
 40
1
 40
1
 40
1
 10
7.282550
 20
7.104398
 30
0.0
 10
7.274466
 20
7.104398
 30
0.0
 10
7.266713
 20
7.101186
 30
0.0
 10
7.260997
 20
7.095470
 30
0.0
  0
SPLINE
  5
130
100
AcDbEntity
  8
0
 62
1
100
AcDbSpline
 70
8
 71
3
 72
8
 73
4
 74
0
 40
0
 40
0
 40
0
 40
0
 40
1
 40
1
 40
1
 40
1
 10
7.260997
 20
7.095470
 30
0.0
 10
7.255281
 20
7.089754
 30
0.0
 10
7.252069
 20
7.082001
 30
0.0
 10
7.252070
 20
7.073918
 30
0.0
  0
SPLINE
  5
131
100
AcDbEntity
  8
0
 62
1
100
AcDbSpline
 70
8
 71
3
 72
8
 73
4
 74
0
 40
0
 40
0
 40
0
 40
0
 40
1
 40
1
 40
1
 40
1
 10
7.252070
 20
7.073918
 30
0.0
 10
7.252070
 20
7.065834
 30
0.0
 10
7.255281
 20
7.058081
 30
0.0
 10
7.260997
 20
7.052365
 30
0.0
  0
SPLINE
  5
132
100
AcDbEntity
  8
0
 62
1
100
AcDbSpline
 70
8
 71
3
 72
8
 73
4
 74
0
 40
0
 40
0
 40
0
 40
0
 40
1
 40
1
 40
1
 40
1
 10
7.260997
 20
7.052365
 30
0.0
 10
7.266713
 20
7.046649
 30
0.0
 10
7.274466
 20
7.043438
 30
0.0
 10
7.282550
 20
7.043438
 30
0.0
  0
SPLINE
  5
133
100
AcDbEntity
  8
0
 62
1
100
AcDbSpline
 70
8
 71
3
 72
8
 73
4
 74
0
 40
0
 40
0
 40
0
 40
0
 40
1
 40
1
 40
1
 40
1
 10
7.282550
 20
7.043438
 30
0.0
 10
7.290633
 20
7.043438
 30
0.0
 10
7.298386
 20
7.046649
 30
0.0
 10
7.304102
 20
7.052365
 30
0.0
  0
SPLINE
  5
134
100
AcDbEntity
  8
0
 62
1
100
AcDbSpline
 70
8
 71
3
 72
8
 73
4
 74
0
 40
0
 40
0
 40
0
 40
0
 40
1
 40
1
 40
1
 40
1
 10
7.304102
 20
7.052365
 30
0.0
 10
7.309818
 20
7.058081
 30
0.0
 10
7.313030
 20
7.065834
 30
0.0
 10
7.313030
 20
7.073918
 30
0.0
  0
LWPOLYLINE
  5
135
100
AcDbEntity
  8
0
 62
1
100
AcDbPolyline
 90
1
 70
1
 10
7.313030
 20
0.784689
 30
0.0
  0
SPLINE
  5
136
100
AcDbEntity
  8
0
 62
1
100
AcDbSpline
 70
8
 71
3
 72
8
 73
4
 74
0
 40
0
 40
0
 40
0
 40
0
 40
1
 40
1
 40
1
 40
1
 10
7.313030
 20
6.511255
 30
0.0
 10
7.313030
 20
6.519339
 30
0.0
 10
7.309818
 20
6.527092
 30
0.0
 10
7.304102
 20
6.532808
 30
0.0
  0
SPLINE
  5
137
100
AcDbEntity
  8
0
 62
1
100
AcDbSpline
 70
8
 71
3
 72
8
 73
4
 74
0
 40
0
 40
0
 40
0
 40
0
 40
1
 40
1
 40
1
 40
1
 10
7.304102
 20
6.532808
 30
0.0
 10
7.298386
 20
6.538524
 30
0.0
 10
7.290633
 20
6.541735
 30
0.0
 10
7.282550
 20
6.541735
 30
0.0
  0
SPLINE
  5
138
100
AcDbEntity
  8
0
 62
1
100
AcDbSpline
 70
8
 71
3
 72
8
 73
4
 74
0
 40
0
 40
0
 40
0
 40
0
 40
1
 40
1
 40
1
 40
1
 10
7.282550
 20
6.541735
 30
0.0
 10
7.274466
 20
6.541735
 30
0.0
 10
7.266713
 20
6.538524
 30
0.0
 10
7.260997
 20
6.532808
 30
0.0
  0
SPLINE
  5
139
100
AcDbEntity
  8
0
 62
1
100
AcDbSpline
 70
8
 71
3
 72
8
 73
4
 74
0
 40
0
 40
0
 40
0
 40
0
 40
1
 40
1
 40
1
 40
1
 10
7.260997
 20
6.532808
 30
0.0
 10
7.255281
 20
6.527092
 30
0.0
 10
7.252069
 20
6.519339
 30
0.0
 10
7.252070
 20
6.511255
 30
0.0
  0
SPLINE
  5
13a
100
AcDbEntity
  8
0
 62
1
100
AcDbSpline
 70
8
 71
3
 72
8
 73
4
 74
0
 40
0
 40
0
 40
0
 40
0
 40
1
 40
1
 40
1
 40
1
 10
7.252070
 20
6.511255
 30
0.0
 10
7.252070
 20
6.503171
 30
0.0
 10
7.255281
 20
6.495418
 30
0.0
 10
7.260997
 20
6.489702
 30
0.0
  0
SPLINE
  5
13b
100
AcDbEntity
  8
0
 62
1
100
AcDbSpline
 70
8
 71
3
 72
8
 73
4
 74
0
 40
0
 40
0
 40
0
 40
0
 40
1
 40
1
 40
1
 40
1
 10
7.260997
 20
6.489702
 30
0.0
 10
7.266713
 20
6.483986
 30
0.0
 10
7.274466
 20
6.480775
 30
0.0
 10
7.282550
 20
6.480775
 30
0.0
  0
SPLINE
  5
13c
100
AcDbEntity
  8
0
 62
1
100
AcDbSpline
 70
8
 71
3
 72
8
 73
4
 74
0
 40
0
 40
0
 40
0
 40
0
 40
1
 40
1
 40
1
 40
1
 10
7.282550
 20
6.480775
 30
0.0
 10
7.290633
 20
6.480775
 30
0.0
 10
7.298386
 20
6.483986
 30
0.0
 10
7.304102
 20
6.489702
 30
0.0
  0
SPLINE
  5
13d
100
AcDbEntity
  8
0
 62
1
100
AcDbSpline
 70
8
 71
3
 72
8
 73
4
 74
0
 40
0
 40
0
 40
0
 40
0
 40
1
 40
1
 40
1
 40
1
 10
7.304102
 20
6.489702
 30
0.0
 10
7.309818
 20
6.495418
 30
0.0
 10
7.313030
 20
6.503171
 30
0.0
 10
7.313030
 20
6.511255
 30
0.0
  0
LWPOLYLINE
  5
13e
100
AcDbEntity
  8
0
 62
1
100
AcDbPolyline
 90
1
 70
1
 10
7.313030
 20
7.073918
 30
0.0
  0
SPLINE
  5
13f
100
AcDbEntity
  8
0
 62
1
100
AcDbSpline
 70
8
 71
3
 72
8
 73
4
 74
0
 40
0
 40
0
 40
0
 40
0
 40
1
 40
1
 40
1
 40
1
 10
7.309153
 20
5.936620
 30
0.0
 10
7.309153
 20
5.944199
 30
0.0
 10
7.306143
 20
5.951467
 30
0.0
 10
7.300784
 20
5.956826
 30
0.0
  0
SPLINE
  5
140
100
AcDbEntity
  8
0
 62
1
100
AcDbSpline
 70
8
 71
3
 72
8
 73
4
 74
0
 40
0
 40
0
 40
0
 40
0
 40
1
 40
1
 40
1
 40
1
 10
7.300784
 20
5.956826
 30
0.0
 10
7.295425
 20
5.962185
 30
0.0
 10
7.288157
 20
5.965196
 30
0.0
 10
7.280578
 20
5.965196
 30
0.0
  0
SPLINE
  5
141
100
AcDbEntity
  8
0
 62
1
100
AcDbSpline
 70
8
 71
3
 72
8
 73
4
 74
0
 40
0
 40
0
 40
0
 40
0
 40
1
 40
1
 40
1
 40
1
 10
7.280578
 20
5.965196
 30
0.0
 10
7.273000
 20
5.965196
 30
0.0
 10
7.265731
 20
5.962185
 30
0.0
 10
7.260372
 20
5.956826
 30
0.0
  0
SPLINE
  5
142
100
AcDbEntity
  8
0
 62
1
100
AcDbSpline
 70
8
 71
3
 72
8
 73
4
 74
0
 40
0
 40
0
 40
0
 40
0
 40
1
 40
1
 40
1
 40
1
 10
7.260372
 20
5.956826
 30
0.0
 10
7.255014
 20
5.951467
 30
0.0
 10
7.252003
 20
5.944199
 30
0.0
 10
7.252003
 20
5.936620
 30
0.0
  0
SPLINE
  5
143
100
AcDbEntity
  8
0
 62
1
100
AcDbSpline
 70
8
 71
3
 72
8
 73
4
 74
0
 40
0
 40
0
 40
0
 40
0
 40
1
 40
1
 40
1
 40
1
 10
7.252003
 20
5.936620
 30
0.0
 10
7.252003
 20
5.929042
 30
0.0
 10
7.255014
 20
5.921774
 30
0.0
 10
7.260372
 20
5.916415
 30
0.0
  0
SPLINE
  5
144
100
AcDbEntity
  8
0
 62
1
100
AcDbSpline
 70
8
 71
3
 72
8
 73
4
 74
0
 40
0
 40
0
 40
0
 40
0
 40
1
 40
1
 40
1
 40
1
 10
7.260372
 20
5.916415
 30
0.0
 10
7.265731
 20
5.911056
 30
0.0
 10
7.273000
 20
5.908045
 30
0.0
 10
7.280578
 20
5.908045
 30
0.0
  0
SPLINE
  5
145
100
AcDbEntity
  8
0
 62
1
100
AcDbSpline
 70
8
 71
3
 72
8
 73
4
 74
0
 40
0
 40
0
 40
0
 40
0
 40
1
 40
1
 40
1
 40
1
 10
7.280578
 20
5.908045
 30
0.0
 10
7.288157
 20
5.908045
 30
0.0
 10
7.295425
 20
5.911056
 30
0.0
 10
7.300784
 20
5.916415
 30
0.0
  0
SPLINE
  5
146
100
AcDbEntity
  8
0
 62
1
100
AcDbSpline
 70
8
 71
3
 72
8
 73
4
 74
0
 40
0
 40
0
 40
0
 40
0
 40
1
 40
1
 40
1
 40
1
 10
7.300784
 20
5.916415
 30
0.0
 10
7.306143
 20
5.921774
 30
0.0
 10
7.309153
 20
5.929042
 30
0.0
 10
7.309153
 20
5.936620
 30
0.0
  0
LWPOLYLINE
  5
147
100
AcDbEntity
  8
0
 62
1
100
AcDbPolyline
 90
1
 70
1
 10
7.313030
 20
6.511255
 30
0.0
  0
SPLINE
  5
148
100
AcDbEntity
  8
0
 62
1
100
AcDbSpline
 70
8
 71
3
 72
8
 73
4
 74
0
 40
0
 40
0
 40
0
 40
0
 40
1
 40
1
 40
1
 40
1
 10
7.323446
 20
5.376366
 30
0.0
 10
7.323446
 20
5.384450
 30
0.0
 10
7.320235
 20
5.392202
 30
0.0
 10
7.314519
 20
5.397918
 30
0.0
  0
SPLINE
  5
149
100
AcDbEntity
  8
0
 62
1
100
AcDbSpline
 70
8
 71
3
 72
8
 73
4
 74
0
 40
0
 40
0
 40
0
 40
0
 40
1
 40
1
 40
1
 40
1
 10
7.314519
 20
5.397918
 30
0.0
 10
7.308803
 20
5.403635
 30
0.0
 10
7.301050
 20
5.406846
 30
0.0
 10
7.292966
 20
5.406846
 30
0.0
  0
SPLINE
  5
14a
100
AcDbEntity
  8
0
 62
1
100
AcDbSpline
 70
8
 71
3
 72
8
 73
4
 74
0
 40
0
 40
0
 40
0
 40
0
 40
1
 40
1
 40
1
 40
1
 10
7.292966
 20
5.406846
 30
0.0
 10
7.284882
 20
5.406846
 30
0.0
 10
7.277130
 20
5.403635
 30
0.0
 10
7.271414
 20
5.397918
 30
0.0
  0
SPLINE
  5
14b
100
AcDbEntity
  8
0
 62
1
100
AcDbSpline
 70
8
 71
3
 72
8
 73
4
 74
0
 40
0
 40
0
 40
0
 40
0
 40
1
 40
1
 40
1
 40
1
 10
7.271414
 20
5.397918
 30
0.0
 10
7.265697
 20
5.392202
 30
0.0
 10
7.262486
 20
5.384450
 30
0.0
 10
7.262486
 20
5.376366
 30
0.0
  0
SPLINE
  5
14c
100
AcDbEntity
  8
0
 62
1
100
AcDbSpline
 70
8
 71
3
 72
8
 73
4
 74
0
 40
0
 40
0
 40
0
 40
0
 40
1
 40
1
 40
1
 40
1
 10
7.262486
 20
5.376366
 30
0.0
 10
7.262486
 20
5.368282
 30
0.0
 10
7.265697
 20
5.360529
 30
0.0
 10
7.271414
 20
5.354813
 30
0.0
  0
SPLINE
  5
14d
100
AcDbEntity
  8
0
 62
1
100
AcDbSpline
 70
8
 71
3
 72
8
 73
4
 74
0
 40
0
 40
0
 40
0
 40
0
 40
1
 40
1
 40
1
 40
1
 10
7.271414
 20
5.354813
 30
0.0
 10
7.277130
 20
5.349097
 30
0.0
 10
7.284882
 20
5.345886
 30
0.0
 10
7.292966
 20
5.345886
 30
0.0
  0
SPLINE
  5
14e
100
AcDbEntity
  8
0
 62
1
100
AcDbSpline
 70
8
 71
3
 72
8
 73
4
 74
0
 40
0
 40
0
 40
0
 40
0
 40
1
 40
1
 40
1
 40
1
 10
7.292966
 20
5.345886
 30
0.0
 10
7.301050
 20
5.345886
 30
0.0
 10
7.308803
 20
5.349097
 30
0.0
 10
7.314519
 20
5.354813
 30
0.0
  0
SPLINE
  5
14f
100
AcDbEntity
  8
0
 62
1
100
AcDbSpline
 70
8
 71
3
 72
8
 73
4
 74
0
 40
0
 40
0
 40
0
 40
0
 40
1
 40
1
 40
1
 40
1
 10
7.314519
 20
5.354813
 30
0.0
 10
7.320235
 20
5.360529
 30
0.0
 10
7.323446
 20
5.368282
 30
0.0
 10
7.323446
 20
5.376366
 30
0.0
  0
LWPOLYLINE
  5
150
100
AcDbEntity
  8
0
 62
1
100
AcDbPolyline
 90
1
 70
1
 10
7.309153
 20
5.936620
 30
0.0
  0
SPLINE
  5
151
100
AcDbEntity
  8
0
 62
1
100
AcDbSpline
 70
8
 71
3
 72
8
 73
4
 74
0
 40
0
 40
0
 40
0
 40
0
 40
1
 40
1
 40
1
 40
1
 10
7.313030
 20
4.793275
 30
0.0
 10
7.313030
 20
4.801359
 30
0.0
 10
7.309818
 20
4.809111
 30
0.0
 10
7.304102
 20
4.814828
 30
0.0
  0
SPLINE
  5
152
100
AcDbEntity
  8
0
 62
1
100
AcDbSpline
 70
8
 71
3
 72
8
 73
4
 74
0
 40
0
 40
0
 40
0
 40
0
 40
1
 40
1
 40
1
 40
1
 10
7.304102
 20
4.814828
 30
0.0
 10
7.298386
 20
4.820544
 30
0.0
 10
7.290633
 20
4.823755
 30
0.0
 10
7.282550
 20
4.823755
 30
0.0
  0
SPLINE
  5
153
100
AcDbEntity
  8
0
 62
1
100
AcDbSpline
 70
8
 71
3
 72
8
 73
4
 74
0
 40
0
 40
0
 40
0
 40
0
 40
1
 40
1
 40
1
 40
1
 10
7.282550
 20
4.823755
 30
0.0
 10
7.274466
 20
4.823755
 30
0.0
 10
7.266713
 20
4.820544
 30
0.0
 10
7.260997
 20
4.814828
 30
0.0
  0
SPLINE
  5
154
100
AcDbEntity
  8
0
 62
1
100
AcDbSpline
 70
8
 71
3
 72
8
 73
4
 74
0
 40
0
 40
0
 40
0
 40
0
 40
1
 40
1
 40
1
 40
1
 10
7.260997
 20
4.814828
 30
0.0
 10
7.255281
 20
4.809111
 30
0.0
 10
7.252069
 20
4.801359
 30
0.0
 10
7.252070
 20
4.793275
 30
0.0
  0
SPLINE
  5
155
100
AcDbEntity
  8
0
 62
1
100
AcDbSpline
 70
8
 71
3
 72
8
 73
4
 74
0
 40
0
 40
0
 40
0
 40
0
 40
1
 40
1
 40
1
 40
1
 10
7.252070
 20
4.793275
 30
0.0
 10
7.252070
 20
4.785191
 30
0.0
 10
7.255281
 20
4.777438
 30
0.0
 10
7.260997
 20
4.771722
 30
0.0
  0
SPLINE
  5
156
100
AcDbEntity
  8
0
 62
1
100
AcDbSpline
 70
8
 71
3
 72
8
 73
4
 74
0
 40
0
 40
0
 40
0
 40
0
 40
1
 40
1
 40
1
 40
1
 10
7.260997
 20
4.771722
 30
0.0
 10
7.266713
 20
4.766006
 30
0.0
 10
7.274466
 20
4.762795
 30
0.0
 10
7.282550
 20
4.762795
 30
0.0
  0
SPLINE
  5
157
100
AcDbEntity
  8
0
 62
1
100
AcDbSpline
 70
8
 71
3
 72
8
 73
4
 74
0
 40
0
 40
0
 40
0
 40
0
 40
1
 40
1
 40
1
 40
1
 10
7.282550
 20
4.762795
 30
0.0
 10
7.290633
 20
4.762795
 30
0.0
 10
7.298386
 20
4.766006
 30
0.0
 10
7.304102
 20
4.771722
 30
0.0
  0
SPLINE
  5
158
100
AcDbEntity
  8
0
 62
1
100
AcDbSpline
 70
8
 71
3
 72
8
 73
4
 74
0
 40
0
 40
0
 40
0
 40
0
 40
1
 40
1
 40
1
 40
1
 10
7.304102
 20
4.771722
 30
0.0
 10
7.309818
 20
4.777438
 30
0.0
 10
7.313030
 20
4.785191
 30
0.0
 10
7.313030
 20
4.793275
 30
0.0
  0
LWPOLYLINE
  5
159
100
AcDbEntity
  8
0
 62
1
100
AcDbPolyline
 90
1
 70
1
 10
7.323446
 20
5.376366
 30
0.0
  0
SPLINE
  5
15a
100
AcDbEntity
  8
0
 62
1
100
AcDbSpline
 70
8
 71
3
 72
8
 73
4
 74
0
 40
0
 40
0
 40
0
 40
0
 40
1
 40
1
 40
1
 40
1
 10
7.313030
 20
4.220636
 30
0.0
 10
7.313030
 20
4.228720
 30
0.0
 10
7.309818
 20
4.236473
 30
0.0
 10
7.304102
 20
4.242189
 30
0.0
  0
SPLINE
  5
15b
100
AcDbEntity
  8
0
 62
1
100
AcDbSpline
 70
8
 71
3
 72
8
 73
4
 74
0
 40
0
 40
0
 40
0
 40
0
 40
1
 40
1
 40
1
 40
1
 10
7.304102
 20
4.242189
 30
0.0
 10
7.298386
 20
4.247905
 30
0.0
 10
7.290633
 20
4.251116
 30
0.0
 10
7.282550
 20
4.251116
 30
0.0
  0
SPLINE
  5
15c
100
AcDbEntity
  8
0
 62
1
100
AcDbSpline
 70
8
 71
3
 72
8
 73
4
 74
0
 40
0
 40
0
 40
0
 40
0
 40
1
 40
1
 40
1
 40
1
 10
7.282550
 20
4.251116
 30
0.0
 10
7.274466
 20
4.251116
 30
0.0
 10
7.266713
 20
4.247905
 30
0.0
 10
7.260997
 20
4.242189
 30
0.0
  0
SPLINE
  5
15d
100
AcDbEntity
  8
0
 62
1
100
AcDbSpline
 70
8
 71
3
 72
8
 73
4
 74
0
 40
0
 40
0
 40
0
 40
0
 40
1
 40
1
 40
1
 40
1
 10
7.260997
 20
4.242189
 30
0.0
 10
7.255281
 20
4.236473
 30
0.0
 10
7.252069
 20
4.228720
 30
0.0
 10
7.252070
 20
4.220636
 30
0.0
  0
SPLINE
  5
15e
100
AcDbEntity
  8
0
 62
1
100
AcDbSpline
 70
8
 71
3
 72
8
 73
4
 74
0
 40
0
 40
0
 40
0
 40
0
 40
1
 40
1
 40
1
 40
1
 10
7.252070
 20
4.220636
 30
0.0
 10
7.252070
 20
4.212552
 30
0.0
 10
7.255281
 20
4.204800
 30
0.0
 10
7.260997
 20
4.199084
 30
0.0
  0
SPLINE
  5
15f
100
AcDbEntity
  8
0
 62
1
100
AcDbSpline
 70
8
 71
3
 72
8
 73
4
 74
0
 40
0
 40
0
 40
0
 40
0
 40
1
 40
1
 40
1
 40
1
 10
7.260997
 20
4.199084
 30
0.0
 10
7.266713
 20
4.193367
 30
0.0
 10
7.274466
 20
4.190156
 30
0.0
 10
7.282550
 20
4.190156
 30
0.0
  0
SPLINE
  5
160
100
AcDbEntity
  8
0
 62
1
100
AcDbSpline
 70
8
 71
3
 72
8
 73
4
 74
0
 40
0
 40
0
 40
0
 40
0
 40
1
 40
1
 40
1
 40
1
 10
7.282550
 20
4.190156
 30
0.0
 10
7.290633
 20
4.190156
 30
0.0
 10
7.298386
 20
4.193367
 30
0.0
 10
7.304102
 20
4.199084
 30
0.0
  0
SPLINE
  5
161
100
AcDbEntity
  8
0
 62
1
100
AcDbSpline
 70
8
 71
3
 72
8
 73
4
 74
0
 40
0
 40
0
 40
0
 40
0
 40
1
 40
1
 40
1
 40
1
 10
7.304102
 20
4.199084
 30
0.0
 10
7.309818
 20
4.204800
 30
0.0
 10
7.313030
 20
4.212552
 30
0.0
 10
7.313030
 20
4.220636
 30
0.0
  0
LWPOLYLINE
  5
162
100
AcDbEntity
  8
0
 62
1
100
AcDbPolyline
 90
1
 70
1
 10
7.313030
 20
4.793275
 30
0.0
  0
SPLINE
  5
163
100
AcDbEntity
  8
0
 62
1
100
AcDbSpline
 70
8
 71
3
 72
8
 73
4
 74
0
 40
0
 40
0
 40
0
 40
0
 40
1
 40
1
 40
1
 40
1
 10
7.313030
 20
3.075309
 30
0.0
 10
7.313030
 20
3.083393
 30
0.0
 10
7.309818
 20
3.091146
 30
0.0
 10
7.304102
 20
3.096862
 30
0.0
  0
SPLINE
  5
164
100
AcDbEntity
  8
0
 62
1
100
AcDbSpline
 70
8
 71
3
 72
8
 73
4
 74
0
 40
0
 40
0
 40
0
 40
0
 40
1
 40
1
 40
1
 40
1
 10
7.304102
 20
3.096862
 30
0.0
 10
7.298386
 20
3.102578
 30
0.0
 10
7.290633
 20
3.105789
 30
0.0
 10
7.282550
 20
3.105789
 30
0.0
  0
SPLINE
  5
165
100
AcDbEntity
  8
0
 62
1
100
AcDbSpline
 70
8
 71
3
 72
8
 73
4
 74
0
 40
0
 40
0
 40
0
 40
0
 40
1
 40
1
 40
1
 40
1
 10
7.282550
 20
3.105789
 30
0.0
 10
7.274466
 20
3.105789
 30
0.0
 10
7.266713
 20
3.102578
 30
0.0
 10
7.260997
 20
3.096862
 30
0.0
  0
SPLINE
  5
166
100
AcDbEntity
  8
0
 62
1
100
AcDbSpline
 70
8
 71
3
 72
8
 73
4
 74
0
 40
0
 40
0
 40
0
 40
0
 40
1
 40
1
 40
1
 40
1
 10
7.260997
 20
3.096862
 30
0.0
 10
7.255281
 20
3.091146
 30
0.0
 10
7.252069
 20
3.083393
 30
0.0
 10
7.252070
 20
3.075309
 30
0.0
  0
SPLINE
  5
167
100
AcDbEntity
  8
0
 62
1
100
AcDbSpline
 70
8
 71
3
 72
8
 73
4
 74
0
 40
0
 40
0
 40
0
 40
0
 40
1
 40
1
 40
1
 40
1
 10
7.252070
 20
3.075309
 30
0.0
 10
7.252070
 20
3.067225
 30
0.0
 10
7.255281
 20
3.059473
 30
0.0
 10
7.260997
 20
3.053757
 30
0.0
  0
SPLINE
  5
168
100
AcDbEntity
  8
0
 62
1
100
AcDbSpline
 70
8
 71
3
 72
8
 73
4
 74
0
 40
0
 40
0
 40
0
 40
0
 40
1
 40
1
 40
1
 40
1
 10
7.260997
 20
3.053757
 30
0.0
 10
7.266713
 20
3.048040
 30
0.0
 10
7.274466
 20
3.044829
 30
0.0
 10
7.282550
 20
3.044829
 30
0.0
  0
SPLINE
  5
169
100
AcDbEntity
  8
0
 62
1
100
AcDbSpline
 70
8
 71
3
 72
8
 73
4
 74
0
 40
0
 40
0
 40
0
 40
0
 40
1
 40
1
 40
1
 40
1
 10
7.282550
 20
3.044829
 30
0.0
 10
7.290633
 20
3.044829
 30
0.0
 10
7.298386
 20
3.048040
 30
0.0
 10
7.304102
 20
3.053757
 30
0.0
  0
SPLINE
  5
16a
100
AcDbEntity
  8
0
 62
1
100
AcDbSpline
 70
8
 71
3
 72
8
 73
4
 74
0
 40
0
 40
0
 40
0
 40
0
 40
1
 40
1
 40
1
 40
1
 10
7.304102
 20
3.053757
 30
0.0
 10
7.309818
 20
3.059473
 30
0.0
 10
7.313030
 20
3.067225
 30
0.0
 10
7.313030
 20
3.075309
 30
0.0
  0
LWPOLYLINE
  5
16b
100
AcDbEntity
  8
0
 62
1
100
AcDbPolyline
 90
1
 70
1
 10
7.313030
 20
4.220636
 30
0.0
  0
SPLINE
  5
16c
100
AcDbEntity
  8
0
 62
1
100
AcDbSpline
 70
8
 71
3
 72
8
 73
4
 74
0
 40
0
 40
0
 40
0
 40
0
 40
1
 40
1
 40
1
 40
1
 10
7.313030
 20
2.502642
 30
0.0
 10
7.313030
 20
2.510726
 30
0.0
 10
7.309818
 20
2.518479
 30
0.0
 10
7.304102
 20
2.524195
 30
0.0
  0
SPLINE
  5
16d
100
AcDbEntity
  8
0
 62
1
100
AcDbSpline
 70
8
 71
3
 72
8
 73
4
 74
0
 40
0
 40
0
 40
0
 40
0
 40
1
 40
1
 40
1
 40
1
 10
7.304102
 20
2.524195
 30
0.0
 10
7.298386
 20
2.529911
 30
0.0
 10
7.290633
 20
2.533122
 30
0.0
 10
7.282550
 20
2.533122
 30
0.0
  0
SPLINE
  5
16e
100
AcDbEntity
  8
0
 62
1
100
AcDbSpline
 70
8
 71
3
 72
8
 73
4
 74
0
 40
0
 40
0
 40
0
 40
0
 40
1
 40
1
 40
1
 40
1
 10
7.282550
 20
2.533122
 30
0.0
 10
7.274466
 20
2.533122
 30
0.0
 10
7.266713
 20
2.529911
 30
0.0
 10
7.260997
 20
2.524195
 30
0.0
  0
SPLINE
  5
16f
100
AcDbEntity
  8
0
 62
1
100
AcDbSpline
 70
8
 71
3
 72
8
 73
4
 74
0
 40
0
 40
0
 40
0
 40
0
 40
1
 40
1
 40
1
 40
1
 10
7.260997
 20
2.524195
 30
0.0
 10
7.255281
 20
2.518479
 30
0.0
 10
7.252069
 20
2.510726
 30
0.0
 10
7.252070
 20
2.502642
 30
0.0
  0
SPLINE
  5
170
100
AcDbEntity
  8
0
 62
1
100
AcDbSpline
 70
8
 71
3
 72
8
 73
4
 74
0
 40
0
 40
0
 40
0
 40
0
 40
1
 40
1
 40
1
 40
1
 10
7.252070
 20
2.502642
 30
0.0
 10
7.252070
 20
2.494558
 30
0.0
 10
7.255281
 20
2.486806
 30
0.0
 10
7.260997
 20
2.481090
 30
0.0
  0
SPLINE
  5
171
100
AcDbEntity
  8
0
 62
1
100
AcDbSpline
 70
8
 71
3
 72
8
 73
4
 74
0
 40
0
 40
0
 40
0
 40
0
 40
1
 40
1
 40
1
 40
1
 10
7.260997
 20
2.481090
 30
0.0
 10
7.266713
 20
2.475373
 30
0.0
 10
7.274466
 20
2.472162
 30
0.0
 10
7.282550
 20
2.472162
 30
0.0
  0
SPLINE
  5
172
100
AcDbEntity
  8
0
 62
1
100
AcDbSpline
 70
8
 71
3
 72
8
 73
4
 74
0
 40
0
 40
0
 40
0
 40
0
 40
1
 40
1
 40
1
 40
1
 10
7.282550
 20
2.472162
 30
0.0
 10
7.290633
 20
2.472162
 30
0.0
 10
7.298386
 20
2.475373
 30
0.0
 10
7.304102
 20
2.481090
 30
0.0
  0
SPLINE
  5
173
100
AcDbEntity
  8
0
 62
1
100
AcDbSpline
 70
8
 71
3
 72
8
 73
4
 74
0
 40
0
 40
0
 40
0
 40
0
 40
1
 40
1
 40
1
 40
1
 10
7.304102
 20
2.481090
 30
0.0
 10
7.309818
 20
2.486806
 30
0.0
 10
7.313030
 20
2.494558
 30
0.0
 10
7.313030
 20
2.502642
 30
0.0
  0
LWPOLYLINE
  5
174
100
AcDbEntity
  8
0
 62
1
100
AcDbPolyline
 90
1
 70
1
 10
7.313030
 20
3.075309
 30
0.0
  0
SPLINE
  5
175
100
AcDbEntity
  8
0
 62
1
100
AcDbSpline
 70
8
 71
3
 72
8
 73
4
 74
0
 40
0
 40
0
 40
0
 40
0
 40
1
 40
1
 40
1
 40
1
 10
7.313030
 20
1.930003
 30
0.0
 10
7.313030
 20
1.938087
 30
0.0
 10
7.309818
 20
1.945840
 30
0.0
 10
7.304102
 20
1.951556
 30
0.0
  0
SPLINE
  5
176
100
AcDbEntity
  8
0
 62
1
100
AcDbSpline
 70
8
 71
3
 72
8
 73
4
 74
0
 40
0
 40
0
 40
0
 40
0
 40
1
 40
1
 40
1
 40
1
 10
7.304102
 20
1.951556
 30
0.0
 10
7.298386
 20
1.957272
 30
0.0
 10
7.290633
 20
1.960483
 30
0.0
 10
7.282550
 20
1.960483
 30
0.0
  0
SPLINE
  5
177
100
AcDbEntity
  8
0
 62
1
100
AcDbSpline
 70
8
 71
3
 72
8
 73
4
 74
0
 40
0
 40
0
 40
0
 40
0
 40
1
 40
1
 40
1
 40
1
 10
7.282550
 20
1.960483
 30
0.0
 10
7.274466
 20
1.960483
 30
0.0
 10
7.266713
 20
1.957272
 30
0.0
 10
7.260997
 20
1.951556
 30
0.0
  0
SPLINE
  5
178
100
AcDbEntity
  8
0
 62
1
100
AcDbSpline
 70
8
 71
3
 72
8
 73
4
 74
0
 40
0
 40
0
 40
0
 40
0
 40
1
 40
1
 40
1
 40
1
 10
7.260997
 20
1.951556
 30
0.0
 10
7.255281
 20
1.945840
 30
0.0
 10
7.252069
 20
1.938087
 30
0.0
 10
7.252070
 20
1.930003
 30
0.0
  0
SPLINE
  5
179
100
AcDbEntity
  8
0
 62
1
100
AcDbSpline
 70
8
 71
3
 72
8
 73
4
 74
0
 40
0
 40
0
 40
0
 40
0
 40
1
 40
1
 40
1
 40
1
 10
7.252070
 20
1.930003
 30
0.0
 10
7.252070
 20
1.921920
 30
0.0
 10
7.255281
 20
1.914167
 30
0.0
 10
7.260997
 20
1.908451
 30
0.0
  0
SPLINE
  5
17a
100
AcDbEntity
  8
0
 62
1
100
AcDbSpline
 70
8
 71
3
 72
8
 73
4
 74
0
 40
0
 40
0
 40
0
 40
0
 40
1
 40
1
 40
1
 40
1
 10
7.260997
 20
1.908451
 30
0.0
 10
7.266713
 20
1.902735
 30
0.0
 10
7.274466
 20
1.899523
 30
0.0
 10
7.282550
 20
1.899523
 30
0.0
  0
SPLINE
  5
17b
100
AcDbEntity
  8
0
 62
1
100
AcDbSpline
 70
8
 71
3
 72
8
 73
4
 74
0
 40
0
 40
0
 40
0
 40
0
 40
1
 40
1
 40
1
 40
1
 10
7.282550
 20
1.899523
 30
0.0
 10
7.290633
 20
1.899523
 30
0.0
 10
7.298386
 20
1.902735
 30
0.0
 10
7.304102
 20
1.908451
 30
0.0
  0
SPLINE
  5
17c
100
AcDbEntity
  8
0
 62
1
100
AcDbSpline
 70
8
 71
3
 72
8
 73
4
 74
0
 40
0
 40
0
 40
0
 40
0
 40
1
 40
1
 40
1
 40
1
 10
7.304102
 20
1.908451
 30
0.0
 10
7.309818
 20
1.914167
 30
0.0
 10
7.313030
 20
1.921920
 30
0.0
 10
7.313030
 20
1.930003
 30
0.0
  0
LWPOLYLINE
  5
17d
100
AcDbEntity
  8
0
 62
1
100
AcDbPolyline
 90
1
 70
1
 10
7.313030
 20
2.502642
 30
0.0
  0
SPLINE
  5
17e
100
AcDbEntity
  8
0
 62
1
100
AcDbSpline
 70
8
 71
3
 72
8
 73
4
 74
0
 40
0
 40
0
 40
0
 40
0
 40
1
 40
1
 40
1
 40
1
 10
7.313030
 20
1.357331
 30
0.0
 10
7.313030
 20
1.365414
 30
0.0
 10
7.309818
 20
1.373167
 30
0.0
 10
7.304102
 20
1.378883
 30
0.0
  0
SPLINE
  5
17f
100
AcDbEntity
  8
0
 62
1
100
AcDbSpline
 70
8
 71
3
 72
8
 73
4
 74
0
 40
0
 40
0
 40
0
 40
0
 40
1
 40
1
 40
1
 40
1
 10
7.304102
 20
1.378883
 30
0.0
 10
7.298386
 20
1.384599
 30
0.0
 10
7.290633
 20
1.387811
 30
0.0
 10
7.282550
 20
1.387811
 30
0.0
  0
SPLINE
  5
180
100
AcDbEntity
  8
0
 62
1
100
AcDbSpline
 70
8
 71
3
 72
8
 73
4
 74
0
 40
0
 40
0
 40
0
 40
0
 40
1
 40
1
 40
1
 40
1
 10
7.282550
 20
1.387811
 30
0.0
 10
7.274466
 20
1.387811
 30
0.0
 10
7.266713
 20
1.384599
 30
0.0
 10
7.260997
 20
1.378883
 30
0.0
  0
SPLINE
  5
181
100
AcDbEntity
  8
0
 62
1
100
AcDbSpline
 70
8
 71
3
 72
8
 73
4
 74
0
 40
0
 40
0
 40
0
 40
0
 40
1
 40
1
 40
1
 40
1
 10
7.260997
 20
1.378883
 30
0.0
 10
7.255281
 20
1.373167
 30
0.0
 10
7.252069
 20
1.365414
 30
0.0
 10
7.252070
 20
1.357331
 30
0.0
  0
SPLINE
  5
182
100
AcDbEntity
  8
0
 62
1
100
AcDbSpline
 70
8
 71
3
 72
8
 73
4
 74
0
 40
0
 40
0
 40
0
 40
0
 40
1
 40
1
 40
1
 40
1
 10
7.252070
 20
1.357331
 30
0.0
 10
7.252070
 20
1.349247
 30
0.0
 10
7.255281
 20
1.341494
 30
0.0
 10
7.260997
 20
1.335778
 30
0.0
  0
SPLINE
  5
183
100
AcDbEntity
  8
0
 62
1
100
AcDbSpline
 70
8
 71
3
 72
8
 73
4
 74
0
 40
0
 40
0
 40
0
 40
0
 40
1
 40
1
 40
1
 40
1
 10
7.260997
 20
1.335778
 30
0.0
 10
7.266713
 20
1.330062
 30
0.0
 10
7.274466
 20
1.326851
 30
0.0
 10
7.282550
 20
1.326851
 30
0.0
  0
SPLINE
  5
184
100
AcDbEntity
  8
0
 62
1
100
AcDbSpline
 70
8
 71
3
 72
8
 73
4
 74
0
 40
0
 40
0
 40
0
 40
0
 40
1
 40
1
 40
1
 40
1
 10
7.282550
 20
1.326851
 30
0.0
 10
7.290633
 20
1.326851
 30
0.0
 10
7.298386
 20
1.330062
 30
0.0
 10
7.304102
 20
1.335778
 30
0.0
  0
SPLINE
  5
185
100
AcDbEntity
  8
0
 62
1
100
AcDbSpline
 70
8
 71
3
 72
8
 73
4
 74
0
 40
0
 40
0
 40
0
 40
0
 40
1
 40
1
 40
1
 40
1
 10
7.304102
 20
1.335778
 30
0.0
 10
7.309818
 20
1.341494
 30
0.0
 10
7.313030
 20
1.349247
 30
0.0
 10
7.313030
 20
1.357331
 30
0.0
  0
LWPOLYLINE
  5
186
100
AcDbEntity
  8
0
 62
1
100
AcDbPolyline
 90
1
 70
1
 10
7.313030
 20
1.930003
 30
0.0
  0
SPLINE
  5
187
100
AcDbEntity
  8
0
 62
1
100
AcDbSpline
 70
8
 71
3
 72
8
 73
4
 74
0
 40
0
 40
0
 40
0
 40
0
 40
1
 40
1
 40
1
 40
1
 10
4.655535
 20
5.127647
 30
0.0
 10
4.655535
 20
5.135731
 30
0.0
 10
4.652324
 20
5.143484
 30
0.0
 10
4.646608
 20
5.149200
 30
0.0
  0
SPLINE
  5
188
100
AcDbEntity
  8
0
 62
1
100
AcDbSpline
 70
8
 71
3
 72
8
 73
4
 74
0
 40
0
 40
0
 40
0
 40
0
 40
1
 40
1
 40
1
 40
1
 10
4.646608
 20
5.149200
 30
0.0
 10
4.640892
 20
5.154916
 30
0.0
 10
4.633139
 20
5.158127
 30
0.0
 10
4.625055
 20
5.158127
 30
0.0
  0
SPLINE
  5
189
100
AcDbEntity
  8
0
 62
1
100
AcDbSpline
 70
8
 71
3
 72
8
 73
4
 74
0
 40
0
 40
0
 40
0
 40
0
 40
1
 40
1
 40
1
 40
1
 10
4.625055
 20
5.158127
 30
0.0
 10
4.616971
 20
5.158127
 30
0.0
 10
4.609219
 20
5.154916
 30
0.0
 10
4.603503
 20
5.149200
 30
0.0
  0
SPLINE
  5
18a
100
AcDbEntity
  8
0
 62
1
100
AcDbSpline
 70
8
 71
3
 72
8
 73
4
 74
0
 40
0
 40
0
 40
0
 40
0
 40
1
 40
1
 40
1
 40
1
 10
4.603503
 20
5.149200
 30
0.0
 10
4.597787
 20
5.143484
 30
0.0
 10
4.594575
 20
5.135731
 30
0.0
 10
4.594575
 20
5.127647
 30
0.0
  0
SPLINE
  5
18b
100
AcDbEntity
  8
0
 62
1
100
AcDbSpline
 70
8
 71
3
 72
8
 73
4
 74
0
 40
0
 40
0
 40
0
 40
0
 40
1
 40
1
 40
1
 40
1
 10
4.594575
 20
5.127647
 30
0.0
 10
4.594575
 20
5.119563
 30
0.0
 10
4.597787
 20
5.111811
 30
0.0
 10
4.603503
 20
5.106095
 30
0.0
  0
SPLINE
  5
18c
100
AcDbEntity
  8
0
 62
1
100
AcDbSpline
 70
8
 71
3
 72
8
 73
4
 74
0
 40
0
 40
0
 40
0
 40
0
 40
1
 40
1
 40
1
 40
1
 10
4.603503
 20
5.106095
 30
0.0
 10
4.609219
 20
5.100378
 30
0.0
 10
4.616971
 20
5.097167
 30
0.0
 10
4.625055
 20
5.097167
 30
0.0
  0
SPLINE
  5
18d
100
AcDbEntity
  8
0
 62
1
100
AcDbSpline
 70
8
 71
3
 72
8
 73
4
 74
0
 40
0
 40
0
 40
0
 40
0
 40
1
 40
1
 40
1
 40
1
 10
4.625055
 20
5.097167
 30
0.0
 10
4.633139
 20
5.097167
 30
0.0
 10
4.640892
 20
5.100378
 30
0.0
 10
4.646608
 20
5.106095
 30
0.0
  0
SPLINE
  5
18e
100
AcDbEntity
  8
0
 62
1
100
AcDbSpline
 70
8
 71
3
 72
8
 73
4
 74
0
 40
0
 40
0
 40
0
 40
0
 40
1
 40
1
 40
1
 40
1
 10
4.646608
 20
5.106095
 30
0.0
 10
4.652324
 20
5.111811
 30
0.0
 10
4.655535
 20
5.119563
 30
0.0
 10
4.655535
 20
5.127647
 30
0.0
  0
LWPOLYLINE
  5
18f
100
AcDbEntity
  8
0
 62
1
100
AcDbPolyline
 90
1
 70
1
 10
7.313030
 20
1.357331
 30
0.0
  0
SPLINE
  5
190
100
AcDbEntity
  8
0
 62
1
100
AcDbSpline
 70
8
 71
3
 72
8
 73
4
 74
0
 40
0
 40
0
 40
0
 40
0
 40
1
 40
1
 40
1
 40
1
 10
2.773224
 20
3.245315
 30
0.0
 10
2.773224
 20
3.253399
 30
0.0
 10
2.770013
 20
3.261152
 30
0.0
 10
2.764297
 20
3.266868
 30
0.0
  0
SPLINE
  5
191
100
AcDbEntity
  8
0
 62
1
100
AcDbSpline
 70
8
 71
3
 72
8
 73
4
 74
0
 40
0
 40
0
 40
0
 40
0
 40
1
 40
1
 40
1
 40
1
 10
2.764297
 20
3.266868
 30
0.0
 10
2.758581
 20
3.272584
 30
0.0
 10
2.750828
 20
3.275795
 30
0.0
 10
2.742744
 20
3.275795
 30
0.0
  0
SPLINE
  5
192
100
AcDbEntity
  8
0
 62
1
100
AcDbSpline
 70
8
 71
3
 72
8
 73
4
 74
0
 40
0
 40
0
 40
0
 40
0
 40
1
 40
1
 40
1
 40
1
 10
2.742744
 20
3.275795
 30
0.0
 10
2.734660
 20
3.275795
 30
0.0
 10
2.726908
 20
3.272584
 30
0.0
 10
2.721191
 20
3.266868
 30
0.0
  0
SPLINE
  5
193
100
AcDbEntity
  8
0
 62
1
100
AcDbSpline
 70
8
 71
3
 72
8
 73
4
 74
0
 40
0
 40
0
 40
0
 40
0
 40
1
 40
1
 40
1
 40
1
 10
2.721191
 20
3.266868
 30
0.0
 10
2.715475
 20
3.261152
 30
0.0
 10
2.712264
 20
3.253399
 30
0.0
 10
2.712264
 20
3.245315
 30
0.0
  0
SPLINE
  5
194
100
AcDbEntity
  8
0
 62
1
100
AcDbSpline
 70
8
 71
3
 72
8
 73
4
 74
0
 40
0
 40
0
 40
0
 40
0
 40
1
 40
1
 40
1
 40
1
 10
2.712264
 20
3.245315
 30
0.0
 10
2.712264
 20
3.237231
 30
0.0
 10
2.715475
 20
3.229479
 30
0.0
 10
2.721191
 20
3.223762
 30
0.0
  0
SPLINE
  5
195
100
AcDbEntity
  8
0
 62
1
100
AcDbSpline
 70
8
 71
3
 72
8
 73
4
 74
0
 40
0
 40
0
 40
0
 40
0
 40
1
 40
1
 40
1
 40
1
 10
2.721191
 20
3.223762
 30
0.0
 10
2.726908
 20
3.218046
 30
0.0
 10
2.734660
 20
3.214835
 30
0.0
 10
2.742744
 20
3.214835
 30
0.0
  0
SPLINE
  5
196
100
AcDbEntity
  8
0
 62
1
100
AcDbSpline
 70
8
 71
3
 72
8
 73
4
 74
0
 40
0
 40
0
 40
0
 40
0
 40
1
 40
1
 40
1
 40
1
 10
2.742744
 20
3.214835
 30
0.0
 10
2.750828
 20
3.214835
 30
0.0
 10
2.758581
 20
3.218046
 30
0.0
 10
2.764297
 20
3.223762
 30
0.0
  0
SPLINE
  5
197
100
AcDbEntity
  8
0
 62
1
100
AcDbSpline
 70
8
 71
3
 72
8
 73
4
 74
0
 40
0
 40
0
 40
0
 40
0
 40
1
 40
1
 40
1
 40
1
 10
2.764297
 20
3.223762
 30
0.0
 10
2.770013
 20
3.229479
 30
0.0
 10
2.773224
 20
3.237231
 30
0.0
 10
2.773224
 20
3.245315
 30
0.0
  0
LWPOLYLINE
  5
198
100
AcDbEntity
  8
0
 62
1
100
AcDbPolyline
 90
1
 70
1
 10
4.655535
 20
5.127647
 30
0.0
  0
SPLINE
  5
199
100
AcDbEntity
  8
0
 62
1
100
AcDbSpline
 70
8
 71
3
 72
8
 73
4
 74
0
 40
0
 40
0
 40
0
 40
0
 40
1
 40
1
 40
1
 40
1
 10
2.773224
 20
4.623269
 30
0.0
 10
2.773224
 20
4.631353
 30
0.0
 10
2.770013
 20
4.639106
 30
0.0
 10
2.764297
 20
4.644822
 30
0.0
  0
SPLINE
  5
19a
100
AcDbEntity
  8
0
 62
1
100
AcDbSpline
 70
8
 71
3
 72
8
 73
4
 74
0
 40
0
 40
0
 40
0
 40
0
 40
1
 40
1
 40
1
 40
1
 10
2.764297
 20
4.644822
 30
0.0
 10
2.758581
 20
4.650538
 30
0.0
 10
2.750828
 20
4.653749
 30
0.0
 10
2.742744
 20
4.653749
 30
0.0
  0
SPLINE
  5
19b
100
AcDbEntity
  8
0
 62
1
100
AcDbSpline
 70
8
 71
3
 72
8
 73
4
 74
0
 40
0
 40
0
 40
0
 40
0
 40
1
 40
1
 40
1
 40
1
 10
2.742744
 20
4.653749
 30
0.0
 10
2.734660
 20
4.653749
 30
0.0
 10
2.726908
 20
4.650538
 30
0.0
 10
2.721191
 20
4.644822
 30
0.0
  0
SPLINE
  5
19c
100
AcDbEntity
  8
0
 62
1
100
AcDbSpline
 70
8
 71
3
 72
8
 73
4
 74
0
 40
0
 40
0
 40
0
 40
0
 40
1
 40
1
 40
1
 40
1
 10
2.721191
 20
4.644822
 30
0.0
 10
2.715475
 20
4.639106
 30
0.0
 10
2.712264
 20
4.631353
 30
0.0
 10
2.712264
 20
4.623269
 30
0.0
  0
SPLINE
  5
19d
100
AcDbEntity
  8
0
 62
1
100
AcDbSpline
 70
8
 71
3
 72
8
 73
4
 74
0
 40
0
 40
0
 40
0
 40
0
 40
1
 40
1
 40
1
 40
1
 10
2.712264
 20
4.623269
 30
0.0
 10
2.712264
 20
4.615185
 30
0.0
 10
2.715475
 20
4.607433
 30
0.0
 10
2.721191
 20
4.601717
 30
0.0
  0
SPLINE
  5
19e
100
AcDbEntity
  8
0
 62
1
100
AcDbSpline
 70
8
 71
3
 72
8
 73
4
 74
0
 40
0
 40
0
 40
0
 40
0
 40
1
 40
1
 40
1
 40
1
 10
2.721191
 20
4.601717
 30
0.0
 10
2.726908
 20
4.596000
 30
0.0
 10
2.734660
 20
4.592789
 30
0.0
 10
2.742744
 20
4.592789
 30
0.0
  0
SPLINE
  5
19f
100
AcDbEntity
  8
0
 62
1
100
AcDbSpline
 70
8
 71
3
 72
8
 73
4
 74
0
 40
0
 40
0
 40
0
 40
0
 40
1
 40
1
 40
1
 40
1
 10
2.742744
 20
4.592789
 30
0.0
 10
2.750828
 20
4.592789
 30
0.0
 10
2.758581
 20
4.596000
 30
0.0
 10
2.764297
 20
4.601717
 30
0.0
  0
SPLINE
  5
1a0
100
AcDbEntity
  8
0
 62
1
100
AcDbSpline
 70
8
 71
3
 72
8
 73
4
 74
0
 40
0
 40
0
 40
0
 40
0
 40
1
 40
1
 40
1
 40
1
 10
2.764297
 20
4.601717
 30
0.0
 10
2.770013
 20
4.607433
 30
0.0
 10
2.773224
 20
4.615185
 30
0.0
 10
2.773224
 20
4.623269
 30
0.0
  0
LWPOLYLINE
  5
1a1
100
AcDbEntity
  8
0
 62
1
100
AcDbPolyline
 90
1
 70
1
 10
2.773224
 20
3.245315
 30
0.0
  0
SPLINE
  5
1a2
100
AcDbEntity
  8
0
 62
1
100
AcDbSpline
 70
8
 71
3
 72
8
 73
4
 74
0
 40
0
 40
0
 40
0
 40
0
 40
1
 40
1
 40
1
 40
1
 10
5.159913
 20
3.245315
 30
0.0
 10
5.159913
 20
3.253399
 30
0.0
 10
5.156702
 20
3.261152
 30
0.0
 10
5.150986
 20
3.266868
 30
0.0
  0
SPLINE
  5
1a3
100
AcDbEntity
  8
0
 62
1
100
AcDbSpline
 70
8
 71
3
 72
8
 73
4
 74
0
 40
0
 40
0
 40
0
 40
0
 40
1
 40
1
 40
1
 40
1
 10
5.150986
 20
3.266868
 30
0.0
 10
5.145270
 20
3.272584
 30
0.0
 10
5.137517
 20
3.275795
 30
0.0
 10
5.129433
 20
3.275795
 30
0.0
  0
SPLINE
  5
1a4
100
AcDbEntity
  8
0
 62
1
100
AcDbSpline
 70
8
 71
3
 72
8
 73
4
 74
0
 40
0
 40
0
 40
0
 40
0
 40
1
 40
1
 40
1
 40
1
 10
5.129433
 20
3.275795
 30
0.0
 10
5.121350
 20
3.275795
 30
0.0
 10
5.113597
 20
3.272584
 30
0.0
 10
5.107881
 20
3.266868
 30
0.0
  0
SPLINE
  5
1a5
100
AcDbEntity
  8
0
 62
1
100
AcDbSpline
 70
8
 71
3
 72
8
 73
4
 74
0
 40
0
 40
0
 40
0
 40
0
 40
1
 40
1
 40
1
 40
1
 10
5.107881
 20
3.266868
 30
0.0
 10
5.102165
 20
3.261152
 30
0.0
 10
5.098953
 20
3.253399
 30
0.0
 10
5.098953
 20
3.245315
 30
0.0
  0
SPLINE
  5
1a6
100
AcDbEntity
  8
0
 62
1
100
AcDbSpline
 70
8
 71
3
 72
8
 73
4
 74
0
 40
0
 40
0
 40
0
 40
0
 40
1
 40
1
 40
1
 40
1
 10
5.098953
 20
3.245315
 30
0.0
 10
5.098953
 20
3.237231
 30
0.0
 10
5.102165
 20
3.229479
 30
0.0
 10
5.107881
 20
3.223762
 30
0.0
  0
SPLINE
  5
1a7
100
AcDbEntity
  8
0
 62
1
100
AcDbSpline
 70
8
 71
3
 72
8
 73
4
 74
0
 40
0
 40
0
 40
0
 40
0
 40
1
 40
1
 40
1
 40
1
 10
5.107881
 20
3.223762
 30
0.0
 10
5.113597
 20
3.218046
 30
0.0
 10
5.121350
 20
3.214835
 30
0.0
 10
5.129433
 20
3.214835
 30
0.0
  0
SPLINE
  5
1a8
100
AcDbEntity
  8
0
 62
1
100
AcDbSpline
 70
8
 71
3
 72
8
 73
4
 74
0
 40
0
 40
0
 40
0
 40
0
 40
1
 40
1
 40
1
 40
1
 10
5.129433
 20
3.214835
 30
0.0
 10
5.137517
 20
3.214835
 30
0.0
 10
5.145270
 20
3.218046
 30
0.0
 10
5.150986
 20
3.223762
 30
0.0
  0
SPLINE
  5
1a9
100
AcDbEntity
  8
0
 62
1
100
AcDbSpline
 70
8
 71
3
 72
8
 73
4
 74
0
 40
0
 40
0
 40
0
 40
0
 40
1
 40
1
 40
1
 40
1
 10
5.150986
 20
3.223762
 30
0.0
 10
5.156702
 20
3.229479
 30
0.0
 10
5.159913
 20
3.237231
 30
0.0
 10
5.159913
 20
3.245315
 30
0.0
  0
LWPOLYLINE
  5
1aa
100
AcDbEntity
  8
0
 62
1
100
AcDbPolyline
 90
1
 70
1
 10
2.773224
 20
4.623269
 30
0.0
  0
SPLINE
  5
1ab
100
AcDbEntity
  8
0
 62
1
100
AcDbSpline
 70
8
 71
3
 72
8
 73
4
 74
0
 40
0
 40
0
 40
0
 40
0
 40
1
 40
1
 40
1
 40
1
 10
4.655535
 20
2.740958
 30
0.0
 10
4.655535
 20
2.749042
 30
0.0
 10
4.652324
 20
2.756795
 30
0.0
 10
4.646608
 20
2.762511
 30
0.0
  0
SPLINE
  5
1ac
100
AcDbEntity
  8
0
 62
1
100
AcDbSpline
 70
8
 71
3
 72
8
 73
4
 74
0
 40
0
 40
0
 40
0
 40
0
 40
1
 40
1
 40
1
 40
1
 10
4.646608
 20
2.762511
 30
0.0
 10
4.640892
 20
2.768227
 30
0.0
 10
4.633139
 20
2.771438
 30
0.0
 10
4.625055
 20
2.771438
 30
0.0
  0
SPLINE
  5
1ad
100
AcDbEntity
  8
0
 62
1
100
AcDbSpline
 70
8
 71
3
 72
8
 73
4
 74
0
 40
0
 40
0
 40
0
 40
0
 40
1
 40
1
 40
1
 40
1
 10
4.625055
 20
2.771438
 30
0.0
 10
4.616971
 20
2.771438
 30
0.0
 10
4.609219
 20
2.768227
 30
0.0
 10
4.603503
 20
2.762511
 30
0.0
  0
SPLINE
  5
1ae
100
AcDbEntity
  8
0
 62
1
100
AcDbSpline
 70
8
 71
3
 72
8
 73
4
 74
0
 40
0
 40
0
 40
0
 40
0
 40
1
 40
1
 40
1
 40
1
 10
4.603503
 20
2.762511
 30
0.0
 10
4.597787
 20
2.756795
 30
0.0
 10
4.594575
 20
2.749042
 30
0.0
 10
4.594575
 20
2.740958
 30
0.0
  0
SPLINE
  5
1af
100
AcDbEntity
  8
0
 62
1
100
AcDbSpline
 70
8
 71
3
 72
8
 73
4
 74
0
 40
0
 40
0
 40
0
 40
0
 40
1
 40
1
 40
1
 40
1
 10
4.594575
 20
2.740958
 30
0.0
 10
4.594575
 20
2.732874
 30
0.0
 10
4.597787
 20
2.725122
 30
0.0
 10
4.603503
 20
2.719405
 30
0.0
  0
SPLINE
  5
1b0
100
AcDbEntity
  8
0
 62
1
100
AcDbSpline
 70
8
 71
3
 72
8
 73
4
 74
0
 40
0
 40
0
 40
0
 40
0
 40
1
 40
1
 40
1
 40
1
 10
4.603503
 20
2.719405
 30
0.0
 10
4.609219
 20
2.713689
 30
0.0
 10
4.616971
 20
2.710478
 30
0.0
 10
4.625055
 20
2.710478
 30
0.0
  0
SPLINE
  5
1b1
100
AcDbEntity
  8
0
 62
1
100
AcDbSpline
 70
8
 71
3
 72
8
 73
4
 74
0
 40
0
 40
0
 40
0
 40
0
 40
1
 40
1
 40
1
 40
1
 10
4.625055
 20
2.710478
 30
0.0
 10
4.633139
 20
2.710478
 30
0.0
 10
4.640892
 20
2.713689
 30
0.0
 10
4.646608
 20
2.719405
 30
0.0
  0
SPLINE
  5
1b2
100
AcDbEntity
  8
0
 62
1
100
AcDbSpline
 70
8
 71
3
 72
8
 73
4
 74
0
 40
0
 40
0
 40
0
 40
0
 40
1
 40
1
 40
1
 40
1
 10
4.646608
 20
2.719405
 30
0.0
 10
4.652324
 20
2.725122
 30
0.0
 10
4.655535
 20
2.732874
 30
0.0
 10
4.655535
 20
2.740958
 30
0.0
  0
LWPOLYLINE
  5
1b3
100
AcDbEntity
  8
0
 62
1
100
AcDbPolyline
 90
1
 70
1
 10
5.159913
 20
3.245315
 30
0.0
  0
SPLINE
  5
1b4
100
AcDbEntity
  8
0
 62
1
100
AcDbSpline
 70
8
 71
3
 72
8
 73
4
 74
0
 40
0
 40
0
 40
0
 40
0
 40
1
 40
1
 40
1
 40
1
 10
3.287998
 20
2.751375
 30
0.0
 10
3.287998
 20
2.759459
 30
0.0
 10
3.284787
 20
2.767211
 30
0.0
 10
3.279070
 20
2.772927
 30
0.0
  0
SPLINE
  5
1b5
100
AcDbEntity
  8
0
 62
1
100
AcDbSpline
 70
8
 71
3
 72
8
 73
4
 74
0
 40
0
 40
0
 40
0
 40
0
 40
1
 40
1
 40
1
 40
1
 10
3.279070
 20
2.772927
 30
0.0
 10
3.273354
 20
2.778643
 30
0.0
 10
3.265602
 20
2.781855
 30
0.0
 10
3.257518
 20
2.781855
 30
0.0
  0
SPLINE
  5
1b6
100
AcDbEntity
  8
0
 62
1
100
AcDbSpline
 70
8
 71
3
 72
8
 73
4
 74
0
 40
0
 40
0
 40
0
 40
0
 40
1
 40
1
 40
1
 40
1
 10
3.257518
 20
2.781855
 30
0.0
 10
3.249434
 20
2.781855
 30
0.0
 10
3.241681
 20
2.778643
 30
0.0
 10
3.235965
 20
2.772927
 30
0.0
  0
SPLINE
  5
1b7
100
AcDbEntity
  8
0
 62
1
100
AcDbSpline
 70
8
 71
3
 72
8
 73
4
 74
0
 40
0
 40
0
 40
0
 40
0
 40
1
 40
1
 40
1
 40
1
 10
3.235965
 20
2.772927
 30
0.0
 10
3.230249
 20
2.767211
 30
0.0
 10
3.227038
 20
2.759459
 30
0.0
 10
3.227038
 20
2.751375
 30
0.0
  0
SPLINE
  5
1b8
100
AcDbEntity
  8
0
 62
1
100
AcDbSpline
 70
8
 71
3
 72
8
 73
4
 74
0
 40
0
 40
0
 40
0
 40
0
 40
1
 40
1
 40
1
 40
1
 10
3.227038
 20
2.751375
 30
0.0
 10
3.227038
 20
2.743291
 30
0.0
 10
3.230249
 20
2.735538
 30
0.0
 10
3.235965
 20
2.729822
 30
0.0
  0
SPLINE
  5
1b9
100
AcDbEntity
  8
0
 62
1
100
AcDbSpline
 70
8
 71
3
 72
8
 73
4
 74
0
 40
0
 40
0
 40
0
 40
0
 40
1
 40
1
 40
1
 40
1
 10
3.235965
 20
2.729822
 30
0.0
 10
3.241681
 20
2.724106
 30
0.0
 10
3.249434
 20
2.720895
 30
0.0
 10
3.257518
 20
2.720895
 30
0.0
  0
SPLINE
  5
1ba
100
AcDbEntity
  8
0
 62
1
100
AcDbSpline
 70
8
 71
3
 72
8
 73
4
 74
0
 40
0
 40
0
 40
0
 40
0
 40
1
 40
1
 40
1
 40
1
 10
3.257518
 20
2.720895
 30
0.0
 10
3.265602
 20
2.720895
 30
0.0
 10
3.273354
 20
2.724106
 30
0.0
 10
3.279070
 20
2.729822
 30
0.0
  0
SPLINE
  5
1bb
100
AcDbEntity
  8
0
 62
1
100
AcDbSpline
 70
8
 71
3
 72
8
 73
4
 74
0
 40
0
 40
0
 40
0
 40
0
 40
1
 40
1
 40
1
 40
1
 10
3.279070
 20
2.729822
 30
0.0
 10
3.284787
 20
2.735538
 30
0.0
 10
3.287998
 20
2.743291
 30
0.0
 10
3.287998
 20
2.751375
 30
0.0
  0
LWPOLYLINE
  5
1bc
100
AcDbEntity
  8
0
 62
1
100
AcDbPolyline
 90
1
 70
1
 10
4.655535
 20
2.740958
 30
0.0
  0
SPLINE
  5
1bd
100
AcDbEntity
  8
0
 62
1
100
AcDbSpline
 70
8
 71
3
 72
8
 73
4
 74
0
 40
0
 40
0
 40
0
 40
0
 40
1
 40
1
 40
1
 40
1
 10
3.966576
 20
2.556342
 30
0.0
 10
3.966576
 20
2.564425
 30
0.0
 10
3.963364
 20
2.572178
 30
0.0
 10
3.957648
 20
2.577894
 30
0.0
  0
SPLINE
  5
1be
100
AcDbEntity
  8
0
 62
1
100
AcDbSpline
 70
8
 71
3
 72
8
 73
4
 74
0
 40
0
 40
0
 40
0
 40
0
 40
1
 40
1
 40
1
 40
1
 10
3.957648
 20
2.577894
 30
0.0
 10
3.951932
 20
2.583610
 30
0.0
 10
3.944179
 20
2.586822
 30
0.0
 10
3.936096
 20
2.586822
 30
0.0
  0
SPLINE
  5
1bf
100
AcDbEntity
  8
0
 62
1
100
AcDbSpline
 70
8
 71
3
 72
8
 73
4
 74
0
 40
0
 40
0
 40
0
 40
0
 40
1
 40
1
 40
1
 40
1
 10
3.936096
 20
2.586822
 30
0.0
 10
3.928012
 20
2.586822
 30
0.0
 10
3.920259
 20
2.583610
 30
0.0
 10
3.914543
 20
2.577894
 30
0.0
  0
SPLINE
  5
1c0
100
AcDbEntity
  8
0
 62
1
100
AcDbSpline
 70
8
 71
3
 72
8
 73
4
 74
0
 40
0
 40
0
 40
0
 40
0
 40
1
 40
1
 40
1
 40
1
 10
3.914543
 20
2.577894
 30
0.0
 10
3.908827
 20
2.572178
 30
0.0
 10
3.905616
 20
2.564425
 30
0.0
 10
3.905616
 20
2.556342
 30
0.0
  0
SPLINE
  5
1c1
100
AcDbEntity
  8
0
 62
1
100
AcDbSpline
 70
8
 71
3
 72
8
 73
4
 74
0
 40
0
 40
0
 40
0
 40
0
 40
1
 40
1
 40
1
 40
1
 10
3.905616
 20
2.556342
 30
0.0
 10
3.905616
 20
2.548258
 30
0.0
 10
3.908827
 20
2.540505
 30
0.0
 10
3.914543
 20
2.534789
 30
0.0
  0
SPLINE
  5
1c2
100
AcDbEntity
  8
0
 62
1
100
AcDbSpline
 70
8
 71
3
 72
8
 73
4
 74
0
 40
0
 40
0
 40
0
 40
0
 40
1
 40
1
 40
1
 40
1
 10
3.914543
 20
2.534789
 30
0.0
 10
3.920259
 20
2.529073
 30
0.0
 10
3.928012
 20
2.525862
 30
0.0
 10
3.936096
 20
2.525862
 30
0.0
  0
SPLINE
  5
1c3
100
AcDbEntity
  8
0
 62
1
100
AcDbSpline
 70
8
 71
3
 72
8
 73
4
 74
0
 40
0
 40
0
 40
0
 40
0
 40
1
 40
1
 40
1
 40
1
 10
3.936096
 20
2.525862
 30
0.0
 10
3.944179
 20
2.525862
 30
0.0
 10
3.951932
 20
2.529073
 30
0.0
 10
3.957648
 20
2.534789
 30
0.0
  0
SPLINE
  5
1c4
100
AcDbEntity
  8
0
 62
1
100
AcDbSpline
 70
8
 71
3
 72
8
 73
4
 74
0
 40
0
 40
0
 40
0
 40
0
 40
1
 40
1
 40
1
 40
1
 10
3.957648
 20
2.534789
 30
0.0
 10
3.963364
 20
2.540505
 30
0.0
 10
3.966576
 20
2.548258
 30
0.0
 10
3.966576
 20
2.556342
 30
0.0
  0
LWPOLYLINE
  5
1c5
100
AcDbEntity
  8
0
 62
1
100
AcDbPolyline
 90
1
 70
1
 10
3.287998
 20
2.751375
 30
0.0
  0
SPLINE
  5
1c6
100
AcDbEntity
  8
0
 62
1
100
AcDbSpline
 70
8
 71
3
 72
8
 73
4
 74
0
 40
0
 40
0
 40
0
 40
0
 40
1
 40
1
 40
1
 40
1
 10
5.344530
 20
3.934296
 30
0.0
 10
5.344530
 20
3.942379
 30
0.0
 10
5.341319
 20
3.950132
 30
0.0
 10
5.335602
 20
3.955848
 30
0.0
  0
SPLINE
  5
1c7
100
AcDbEntity
  8
0
 62
1
100
AcDbSpline
 70
8
 71
3
 72
8
 73
4
 74
0
 40
0
 40
0
 40
0
 40
0
 40
1
 40
1
 40
1
 40
1
 10
5.335602
 20
3.955848
 30
0.0
 10
5.329886
 20
3.961564
 30
0.0
 10
5.322134
 20
3.964776
 30
0.0
 10
5.314050
 20
3.964776
 30
0.0
  0
SPLINE
  5
1c8
100
AcDbEntity
  8
0
 62
1
100
AcDbSpline
 70
8
 71
3
 72
8
 73
4
 74
0
 40
0
 40
0
 40
0
 40
0
 40
1
 40
1
 40
1
 40
1
 10
5.314050
 20
3.964776
 30
0.0
 10
5.305966
 20
3.964776
 30
0.0
 10
5.298213
 20
3.961564
 30
0.0
 10
5.292497
 20
3.955848
 30
0.0
  0
SPLINE
  5
1c9
100
AcDbEntity
  8
0
 62
1
100
AcDbSpline
 70
8
 71
3
 72
8
 73
4
 74
0
 40
0
 40
0
 40
0
 40
0
 40
1
 40
1
 40
1
 40
1
 10
5.292497
 20
3.955848
 30
0.0
 10
5.286781
 20
3.950132
 30
0.0
 10
5.283570
 20
3.942379
 30
0.0
 10
5.283570
 20
3.934296
 30
0.0
  0
SPLINE
  5
1ca
100
AcDbEntity
  8
0
 62
1
100
AcDbSpline
 70
8
 71
3
 72
8
 73
4
 74
0
 40
0
 40
0
 40
0
 40
0
 40
1
 40
1
 40
1
 40
1
 10
5.283570
 20
3.934296
 30
0.0
 10
5.283570
 20
3.926212
 30
0.0
 10
5.286781
 20
3.918459
 30
0.0
 10
5.292497
 20
3.912743
 30
0.0
  0
SPLINE
  5
1cb
100
AcDbEntity
  8
0
 62
1
100
AcDbSpline
 70
8
 71
3
 72
8
 73
4
 74
0
 40
0
 40
0
 40
0
 40
0
 40
1
 40
1
 40
1
 40
1
 10
5.292497
 20
3.912743
 30
0.0
 10
5.298213
 20
3.907027
 30
0.0
 10
5.305966
 20
3.903816
 30
0.0
 10
5.314050
 20
3.903816
 30
0.0
  0
SPLINE
  5
1cc
100
AcDbEntity
  8
0
 62
1
100
AcDbSpline
 70
8
 71
3
 72
8
 73
4
 74
0
 40
0
 40
0
 40
0
 40
0
 40
1
 40
1
 40
1
 40
1
 10
5.314050
 20
3.903816
 30
0.0
 10
5.322134
 20
3.903816
 30
0.0
 10
5.329886
 20
3.907027
 30
0.0
 10
5.335602
 20
3.912743
 30
0.0
  0
SPLINE
  5
1cd
100
AcDbEntity
  8
0
 62
1
100
AcDbSpline
 70
8
 71
3
 72
8
 73
4
 74
0
 40
0
 40
0
 40
0
 40
0
 40
1
 40
1
 40
1
 40
1
 10
5.335602
 20
3.912743
 30
0.0
 10
5.341319
 20
3.918459
 30
0.0
 10
5.344530
 20
3.926212
 30
0.0
 10
5.344530
 20
3.934296
 30
0.0
  0
LWPOLYLINE
  5
1ce
100
AcDbEntity
  8
0
 62
1
100
AcDbPolyline
 90
1
 70
1
 10
3.966576
 20
2.556342
 30
0.0
  0
SPLINE
  5
1cf
100
AcDbEntity
  8
0
 62
1
100
AcDbSpline
 70
8
 71
3
 72
8
 73
4
 74
0
 40
0
 40
0
 40
0
 40
0
 40
1
 40
1
 40
1
 40
1
 10
5.159913
 20
4.623269
 30
0.0
 10
5.159913
 20
4.631353
 30
0.0
 10
5.156702
 20
4.639106
 30
0.0
 10
5.150986
 20
4.644822
 30
0.0
  0
SPLINE
  5
1d0
100
AcDbEntity
  8
0
 62
1
100
AcDbSpline
 70
8
 71
3
 72
8
 73
4
 74
0
 40
0
 40
0
 40
0
 40
0
 40
1
 40
1
 40
1
 40
1
 10
5.150986
 20
4.644822
 30
0.0
 10
5.145270
 20
4.650538
 30
0.0
 10
5.137517
 20
4.653749
 30
0.0
 10
5.129433
 20
4.653749
 30
0.0
  0
SPLINE
  5
1d1
100
AcDbEntity
  8
0
 62
1
100
AcDbSpline
 70
8
 71
3
 72
8
 73
4
 74
0
 40
0
 40
0
 40
0
 40
0
 40
1
 40
1
 40
1
 40
1
 10
5.129433
 20
4.653749
 30
0.0
 10
5.121350
 20
4.653749
 30
0.0
 10
5.113597
 20
4.650538
 30
0.0
 10
5.107881
 20
4.644822
 30
0.0
  0
SPLINE
  5
1d2
100
AcDbEntity
  8
0
 62
1
100
AcDbSpline
 70
8
 71
3
 72
8
 73
4
 74
0
 40
0
 40
0
 40
0
 40
0
 40
1
 40
1
 40
1
 40
1
 10
5.107881
 20
4.644822
 30
0.0
 10
5.102165
 20
4.639106
 30
0.0
 10
5.098953
 20
4.631353
 30
0.0
 10
5.098953
 20
4.623269
 30
0.0
  0
SPLINE
  5
1d3
100
AcDbEntity
  8
0
 62
1
100
AcDbSpline
 70
8
 71
3
 72
8
 73
4
 74
0
 40
0
 40
0
 40
0
 40
0
 40
1
 40
1
 40
1
 40
1
 10
5.098953
 20
4.623269
 30
0.0
 10
5.098953
 20
4.615185
 30
0.0
 10
5.102165
 20
4.607433
 30
0.0
 10
5.107881
 20
4.601717
 30
0.0
  0
SPLINE
  5
1d4
100
AcDbEntity
  8
0
 62
1
100
AcDbSpline
 70
8
 71
3
 72
8
 73
4
 74
0
 40
0
 40
0
 40
0
 40
0
 40
1
 40
1
 40
1
 40
1
 10
5.107881
 20
4.601717
 30
0.0
 10
5.113597
 20
4.596000
 30
0.0
 10
5.121350
 20
4.592789
 30
0.0
 10
5.129433
 20
4.592789
 30
0.0
  0
SPLINE
  5
1d5
100
AcDbEntity
  8
0
 62
1
100
AcDbSpline
 70
8
 71
3
 72
8
 73
4
 74
0
 40
0
 40
0
 40
0
 40
0
 40
1
 40
1
 40
1
 40
1
 10
5.129433
 20
4.592789
 30
0.0
 10
5.137517
 20
4.592789
 30
0.0
 10
5.145270
 20
4.596000
 30
0.0
 10
5.150986
 20
4.601717
 30
0.0
  0
SPLINE
  5
1d6
100
AcDbEntity
  8
0
 62
1
100
AcDbSpline
 70
8
 71
3
 72
8
 73
4
 74
0
 40
0
 40
0
 40
0
 40
0
 40
1
 40
1
 40
1
 40
1
 10
5.150986
 20
4.601717
 30
0.0
 10
5.156702
 20
4.607433
 30
0.0
 10
5.159913
 20
4.615185
 30
0.0
 10
5.159913
 20
4.623269
 30
0.0
  0
LWPOLYLINE
  5
1d7
100
AcDbEntity
  8
0
 62
1
100
AcDbPolyline
 90
1
 70
1
 10
5.344530
 20
3.934296
 30
0.0
  0
SPLINE
  5
1d8
100
AcDbEntity
  8
0
 62
1
100
AcDbSpline
 70
8
 71
3
 72
8
 73
4
 74
0
 40
0
 40
0
 40
0
 40
0
 40
1
 40
1
 40
1
 40
1
 10
2.588610
 20
3.934296
 30
0.0
 10
2.588610
 20
3.942379
 30
0.0
 10
2.585399
 20
3.950132
 30
0.0
 10
2.579683
 20
3.955848
 30
0.0
  0
SPLINE
  5
1d9
100
AcDbEntity
  8
0
 62
1
100
AcDbSpline
 70
8
 71
3
 72
8
 73
4
 74
0
 40
0
 40
0
 40
0
 40
0
 40
1
 40
1
 40
1
 40
1
 10
2.579683
 20
3.955848
 30
0.0
 10
2.573967
 20
3.961564
 30
0.0
 10
2.566214
 20
3.964776
 30
0.0
 10
2.558130
 20
3.964776
 30
0.0
  0
SPLINE
  5
1da
100
AcDbEntity
  8
0
 62
1
100
AcDbSpline
 70
8
 71
3
 72
8
 73
4
 74
0
 40
0
 40
0
 40
0
 40
0
 40
1
 40
1
 40
1
 40
1
 10
2.558130
 20
3.964776
 30
0.0
 10
2.550047
 20
3.964776
 30
0.0
 10
2.542294
 20
3.961564
 30
0.0
 10
2.536578
 20
3.955848
 30
0.0
  0
SPLINE
  5
1db
100
AcDbEntity
  8
0
 62
1
100
AcDbSpline
 70
8
 71
3
 72
8
 73
4
 74
0
 40
0
 40
0
 40
0
 40
0
 40
1
 40
1
 40
1
 40
1
 10
2.536578
 20
3.955848
 30
0.0
 10
2.530862
 20
3.950132
 30
0.0
 10
2.527650
 20
3.942379
 30
0.0
 10
2.527650
 20
3.934296
 30
0.0
  0
SPLINE
  5
1dc
100
AcDbEntity
  8
0
 62
1
100
AcDbSpline
 70
8
 71
3
 72
8
 73
4
 74
0
 40
0
 40
0
 40
0
 40
0
 40
1
 40
1
 40
1
 40
1
 10
2.527650
 20
3.934296
 30
0.0
 10
2.527650
 20
3.926212
 30
0.0
 10
2.530862
 20
3.918459
 30
0.0
 10
2.536578
 20
3.912743
 30
0.0
  0
SPLINE
  5
1dd
100
AcDbEntity
  8
0
 62
1
100
AcDbSpline
 70
8
 71
3
 72
8
 73
4
 74
0
 40
0
 40
0
 40
0
 40
0
 40
1
 40
1
 40
1
 40
1
 10
2.536578
 20
3.912743
 30
0.0
 10
2.542294
 20
3.907027
 30
0.0
 10
2.550047
 20
3.903816
 30
0.0
 10
2.558130
 20
3.903816
 30
0.0
  0
SPLINE
  5
1de
100
AcDbEntity
  8
0
 62
1
100
AcDbSpline
 70
8
 71
3
 72
8
 73
4
 74
0
 40
0
 40
0
 40
0
 40
0
 40
1
 40
1
 40
1
 40
1
 10
2.558130
 20
3.903816
 30
0.0
 10
2.566214
 20
3.903816
 30
0.0
 10
2.573967
 20
3.907027
 30
0.0
 10
2.579683
 20
3.912743
 30
0.0
  0
SPLINE
  5
1df
100
AcDbEntity
  8
0
 62
1
100
AcDbSpline
 70
8
 71
3
 72
8
 73
4
 74
0
 40
0
 40
0
 40
0
 40
0
 40
1
 40
1
 40
1
 40
1
 10
2.579683
 20
3.912743
 30
0.0
 10
2.585399
 20
3.918459
 30
0.0
 10
2.588610
 20
3.926212
 30
0.0
 10
2.588610
 20
3.934296
 30
0.0
  0
LWPOLYLINE
  5
1e0
100
AcDbEntity
  8
0
 62
1
100
AcDbPolyline
 90
1
 70
1
 10
5.159913
 20
4.623269
 30
0.0
  0
SPLINE
  5
1e1
100
AcDbEntity
  8
0
 62
1
100
AcDbSpline
 70
8
 71
3
 72
8
 73
4
 74
0
 40
0
 40
0
 40
0
 40
0
 40
1
 40
1
 40
1
 40
1
 10
3.277581
 20
5.127647
 30
0.0
 10
3.277581
 20
5.135731
 30
0.0
 10
3.274370
 20
5.143484
 30
0.0
 10
3.268654
 20
5.149200
 30
0.0
  0
SPLINE
  5
1e2
100
AcDbEntity
  8
0
 62
1
100
AcDbSpline
 70
8
 71
3
 72
8
 73
4
 74
0
 40
0
 40
0
 40
0
 40
0
 40
1
 40
1
 40
1
 40
1
 10
3.268654
 20
5.149200
 30
0.0
 10
3.262938
 20
5.154916
 30
0.0
 10
3.255185
 20
5.158127
 30
0.0
 10
3.247101
 20
5.158127
 30
0.0
  0
SPLINE
  5
1e3
100
AcDbEntity
  8
0
 62
1
100
AcDbSpline
 70
8
 71
3
 72
8
 73
4
 74
0
 40
0
 40
0
 40
0
 40
0
 40
1
 40
1
 40
1
 40
1
 10
3.247101
 20
5.158127
 30
0.0
 10
3.239017
 20
5.158127
 30
0.0
 10
3.231265
 20
5.154916
 30
0.0
 10
3.225549
 20
5.149200
 30
0.0
  0
SPLINE
  5
1e4
100
AcDbEntity
  8
0
 62
1
100
AcDbSpline
 70
8
 71
3
 72
8
 73
4
 74
0
 40
0
 40
0
 40
0
 40
0
 40
1
 40
1
 40
1
 40
1
 10
3.225549
 20
5.149200
 30
0.0
 10
3.219832
 20
5.143484
 30
0.0
 10
3.216621
 20
5.135731
 30
0.0
 10
3.216621
 20
5.127647
 30
0.0
  0
SPLINE
  5
1e5
100
AcDbEntity
  8
0
 62
1
100
AcDbSpline
 70
8
 71
3
 72
8
 73
4
 74
0
 40
0
 40
0
 40
0
 40
0
 40
1
 40
1
 40
1
 40
1
 10
3.216621
 20
5.127647
 30
0.0
 10
3.216621
 20
5.119563
 30
0.0
 10
3.219832
 20
5.111811
 30
0.0
 10
3.225549
 20
5.106095
 30
0.0
  0
SPLINE
  5
1e6
100
AcDbEntity
  8
0
 62
1
100
AcDbSpline
 70
8
 71
3
 72
8
 73
4
 74
0
 40
0
 40
0
 40
0
 40
0
 40
1
 40
1
 40
1
 40
1
 10
3.225549
 20
5.106095
 30
0.0
 10
3.231265
 20
5.100378
 30
0.0
 10
3.239017
 20
5.097167
 30
0.0
 10
3.247101
 20
5.097167
 30
0.0
  0
SPLINE
  5
1e7
100
AcDbEntity
  8
0
 62
1
100
AcDbSpline
 70
8
 71
3
 72
8
 73
4
 74
0
 40
0
 40
0
 40
0
 40
0
 40
1
 40
1
 40
1
 40
1
 10
3.247101
 20
5.097167
 30
0.0
 10
3.255185
 20
5.097167
 30
0.0
 10
3.262938
 20
5.100378
 30
0.0
 10
3.268654
 20
5.106095
 30
0.0
  0
SPLINE
  5
1e8
100
AcDbEntity
  8
0
 62
1
100
AcDbSpline
 70
8
 71
3
 72
8
 73
4
 74
0
 40
0
 40
0
 40
0
 40
0
 40
1
 40
1
 40
1
 40
1
 10
3.268654
 20
5.106095
 30
0.0
 10
3.274370
 20
5.111811
 30
0.0
 10
3.277581
 20
5.119563
 30
0.0
 10
3.277581
 20
5.127647
 30
0.0
  0
LWPOLYLINE
  5
1e9
100
AcDbEntity
  8
0
 62
1
100
AcDbPolyline
 90
1
 70
1
 10
2.588610
 20
3.934296
 30
0.0
  0
SPLINE
  5
1ea
100
AcDbEntity
  8
0
 62
1
100
AcDbSpline
 70
8
 71
3
 72
8
 73
4
 74
0
 40
0
 40
0
 40
0
 40
0
 40
1
 40
1
 40
1
 40
1
 10
2.261805
 20
2.950046
 30
0.0
 10
2.261805
 20
2.958130
 30
0.0
 10
2.258593
 20
2.965882
 30
0.0
 10
2.252877
 20
2.971598
 30
0.0
  0
SPLINE
  5
1eb
100
AcDbEntity
  8
0
 62
1
100
AcDbSpline
 70
8
 71
3
 72
8
 73
4
 74
0
 40
0
 40
0
 40
0
 40
0
 40
1
 40
1
 40
1
 40
1
 10
2.252877
 20
2.971598
 30
0.0
 10
2.247161
 20
2.977315
 30
0.0
 10
2.239409
 20
2.980526
 30
0.0
 10
2.231325
 20
2.980526
 30
0.0
  0
SPLINE
  5
1ec
100
AcDbEntity
  8
0
 62
1
100
AcDbSpline
 70
8
 71
3
 72
8
 73
4
 74
0
 40
0
 40
0
 40
0
 40
0
 40
1
 40
1
 40
1
 40
1
 10
2.231325
 20
2.980526
 30
0.0
 10
2.223241
 20
2.980526
 30
0.0
 10
2.215488
 20
2.977315
 30
0.0
 10
2.209772
 20
2.971598
 30
0.0
  0
SPLINE
  5
1ed
100
AcDbEntity
  8
0
 62
1
100
AcDbSpline
 70
8
 71
3
 72
8
 73
4
 74
0
 40
0
 40
0
 40
0
 40
0
 40
1
 40
1
 40
1
 40
1
 10
2.209772
 20
2.971598
 30
0.0
 10
2.204056
 20
2.965882
 30
0.0
 10
2.200845
 20
2.958130
 30
0.0
 10
2.200845
 20
2.950046
 30
0.0
  0
SPLINE
  5
1ee
100
AcDbEntity
  8
0
 62
1
100
AcDbSpline
 70
8
 71
3
 72
8
 73
4
 74
0
 40
0
 40
0
 40
0
 40
0
 40
1
 40
1
 40
1
 40
1
 10
2.200845
 20
2.950046
 30
0.0
 10
2.200845
 20
2.941962
 30
0.0
 10
2.204056
 20
2.934209
 30
0.0
 10
2.209772
 20
2.928493
 30
0.0
  0
SPLINE
  5
1ef
100
AcDbEntity
  8
0
 62
1
100
AcDbSpline
 70
8
 71
3
 72
8
 73
4
 74
0
 40
0
 40
0
 40
0
 40
0
 40
1
 40
1
 40
1
 40
1
 10
2.209772
 20
2.928493
 30
0.0
 10
2.215488
 20
2.922777
 30
0.0
 10
2.223241
 20
2.919566
 30
0.0
 10
2.231325
 20
2.919566
 30
0.0
  0
SPLINE
  5
1f0
100
AcDbEntity
  8
0
 62
1
100
AcDbSpline
 70
8
 71
3
 72
8
 73
4
 74
0
 40
0
 40
0
 40
0
 40
0
 40
1
 40
1
 40
1
 40
1
 10
2.231325
 20
2.919566
 30
0.0
 10
2.239409
 20
2.919566
 30
0.0
 10
2.247161
 20
2.922777
 30
0.0
 10
2.252877
 20
2.928493
 30
0.0
  0
SPLINE
  5
1f1
100
AcDbEntity
  8
0
 62
1
100
AcDbSpline
 70
8
 71
3
 72
8
 73
4
 74
0
 40
0
 40
0
 40
0
 40
0
 40
1
 40
1
 40
1
 40
1
 10
2.252877
 20
2.928493
 30
0.0
 10
2.258593
 20
2.934209
 30
0.0
 10
2.261805
 20
2.941962
 30
0.0
 10
2.261805
 20
2.950046
 30
0.0
  0
LWPOLYLINE
  5
1f2
100
AcDbEntity
  8
0
 62
1
100
AcDbPolyline
 90
1
 70
1
 10
3.277581
 20
5.127647
 30
0.0
  0
SPLINE
  5
1f3
100
AcDbEntity
  8
0
 62
1
100
AcDbSpline
 70
8
 71
3
 72
8
 73
4
 74
0
 40
0
 40
0
 40
0
 40
0
 40
1
 40
1
 40
1
 40
1
 10
5.671329
 20
4.918546
 30
0.0
 10
5.671329
 20
4.926629
 30
0.0
 10
5.668117
 20
4.934382
 30
0.0
 10
5.662401
 20
4.940098
 30
0.0
  0
SPLINE
  5
1f4
100
AcDbEntity
  8
0
 62
1
100
AcDbSpline
 70
8
 71
3
 72
8
 73
4
 74
0
 40
0
 40
0
 40
0
 40
0
 40
1
 40
1
 40
1
 40
1
 10
5.662401
 20
4.940098
 30
0.0
 10
5.656685
 20
4.945814
 30
0.0
 10
5.648932
 20
4.949026
 30
0.0
 10
5.640849
 20
4.949026
 30
0.0
  0
SPLINE
  5
1f5
100
AcDbEntity
  8
0
 62
1
100
AcDbSpline
 70
8
 71
3
 72
8
 73
4
 74
0
 40
0
 40
0
 40
0
 40
0
 40
1
 40
1
 40
1
 40
1
 10
5.640849
 20
4.949026
 30
0.0
 10
5.632765
 20
4.949026
 30
0.0
 10
5.625012
 20
4.945814
 30
0.0
 10
5.619296
 20
4.940098
 30
0.0
  0
SPLINE
  5
1f6
100
AcDbEntity
  8
0
 62
1
100
AcDbSpline
 70
8
 71
3
 72
8
 73
4
 74
0
 40
0
 40
0
 40
0
 40
0
 40
1
 40
1
 40
1
 40
1
 10
5.619296
 20
4.940098
 30
0.0
 10
5.613580
 20
4.934382
 30
0.0
 10
5.610369
 20
4.926629
 30
0.0
 10
5.610369
 20
4.918546
 30
0.0
  0
SPLINE
  5
1f7
100
AcDbEntity
  8
0
 62
1
100
AcDbSpline
 70
8
 71
3
 72
8
 73
4
 74
0
 40
0
 40
0
 40
0
 40
0
 40
1
 40
1
 40
1
 40
1
 10
5.610369
 20
4.918546
 30
0.0
 10
5.610369
 20
4.910462
 30
0.0
 10
5.613580
 20
4.902709
 30
0.0
 10
5.619296
 20
4.896993
 30
0.0
  0
SPLINE
  5
1f8
100
AcDbEntity
  8
0
 62
1
100
AcDbSpline
 70
8
 71
3
 72
8
 73
4
 74
0
 40
0
 40
0
 40
0
 40
0
 40
1
 40
1
 40
1
 40
1
 10
5.619296
 20
4.896993
 30
0.0
 10
5.625012
 20
4.891277
 30
0.0
 10
5.632765
 20
4.888066
 30
0.0
 10
5.640849
 20
4.888066
 30
0.0
  0
SPLINE
  5
1f9
100
AcDbEntity
  8
0
 62
1
100
AcDbSpline
 70
8
 71
3
 72
8
 73
4
 74
0
 40
0
 40
0
 40
0
 40
0
 40
1
 40
1
 40
1
 40
1
 10
5.640849
 20
4.888066
 30
0.0
 10
5.648932
 20
4.888066
 30
0.0
 10
5.656685
 20
4.891277
 30
0.0
 10
5.662401
 20
4.896993
 30
0.0
  0
SPLINE
  5
1fa
100
AcDbEntity
  8
0
 62
1
100
AcDbSpline
 70
8
 71
3
 72
8
 73
4
 74
0
 40
0
 40
0
 40
0
 40
0
 40
1
 40
1
 40
1
 40
1
 10
5.662401
 20
4.896993
 30
0.0
 10
5.668117
 20
4.902709
 30
0.0
 10
5.671329
 20
4.910462
 30
0.0
 10
5.671329
 20
4.918546
 30
0.0
  0
LWPOLYLINE
  5
1fb
100
AcDbEntity
  8
0
 62
1
100
AcDbPolyline
 90
1
 70
1
 10
2.261805
 20
2.950046
 30
0.0
  0
SPLINE
  5
1fc
100
AcDbEntity
  8
0
 62
1
100
AcDbSpline
 70
8
 71
3
 72
8
 73
4
 74
0
 40
0
 40
0
 40
0
 40
0
 40
1
 40
1
 40
1
 40
1
 10
3.966576
 20
1.952746
 30
0.0
 10
3.966576
 20
1.960830
 30
0.0
 10
3.963364
 20
1.968583
 30
0.0
 10
3.957648
 20
1.974299
 30
0.0
  0
SPLINE
  5
1fd
100
AcDbEntity
  8
0
 62
1
100
AcDbSpline
 70
8
 71
3
 72
8
 73
4
 74
0
 40
0
 40
0
 40
0
 40
0
 40
1
 40
1
 40
1
 40
1
 10
3.957648
 20
1.974299
 30
0.0
 10
3.951932
 20
1.980015
 30
0.0
 10
3.944179
 20
1.983226
 30
0.0
 10
3.936096
 20
1.983226
 30
0.0
  0
SPLINE
  5
1fe
100
AcDbEntity
  8
0
 62
1
100
AcDbSpline
 70
8
 71
3
 72
8
 73
4
 74
0
 40
0
 40
0
 40
0
 40
0
 40
1
 40
1
 40
1
 40
1
 10
3.936096
 20
1.983226
 30
0.0
 10
3.928012
 20
1.983226
 30
0.0
 10
3.920259
 20
1.980015
 30
0.0
 10
3.914543
 20
1.974299
 30
0.0
  0
SPLINE
  5
1ff
100
AcDbEntity
  8
0
 62
1
100
AcDbSpline
 70
8
 71
3
 72
8
 73
4
 74
0
 40
0
 40
0
 40
0
 40
0
 40
1
 40
1
 40
1
 40
1
 10
3.914543
 20
1.974299
 30
0.0
 10
3.908827
 20
1.968583
 30
0.0
 10
3.905616
 20
1.960830
 30
0.0
 10
3.905616
 20
1.952746
 30
0.0
  0
SPLINE
  5
200
100
AcDbEntity
  8
0
 62
1
100
AcDbSpline
 70
8
 71
3
 72
8
 73
4
 74
0
 40
0
 40
0
 40
0
 40
0
 40
1
 40
1
 40
1
 40
1
 10
3.905616
 20
1.952746
 30
0.0
 10
3.905616
 20
1.944662
 30
0.0
 10
3.908827
 20
1.936910
 30
0.0
 10
3.914543
 20
1.931194
 30
0.0
  0
SPLINE
  5
201
100
AcDbEntity
  8
0
 62
1
100
AcDbSpline
 70
8
 71
3
 72
8
 73
4
 74
0
 40
0
 40
0
 40
0
 40
0
 40
1
 40
1
 40
1
 40
1
 10
3.914543
 20
1.931194
 30
0.0
 10
3.920259
 20
1.925477
 30
0.0
 10
3.928012
 20
1.922266
 30
0.0
 10
3.936096
 20
1.922266
 30
0.0
  0
SPLINE
  5
202
100
AcDbEntity
  8
0
 62
1
100
AcDbSpline
 70
8
 71
3
 72
8
 73
4
 74
0
 40
0
 40
0
 40
0
 40
0
 40
1
 40
1
 40
1
 40
1
 10
3.936096
 20
1.922266
 30
0.0
 10
3.944179
 20
1.922266
 30
0.0
 10
3.951932
 20
1.925477
 30
0.0
 10
3.957648
 20
1.931194
 30
0.0
  0
SPLINE
  5
203
100
AcDbEntity
  8
0
 62
1
100
AcDbSpline
 70
8
 71
3
 72
8
 73
4
 74
0
 40
0
 40
0
 40
0
 40
0
 40
1
 40
1
 40
1
 40
1
 10
3.957648
 20
1.931194
 30
0.0
 10
3.963364
 20
1.936910
 30
0.0
 10
3.966576
 20
1.944662
 30
0.0
 10
3.966576
 20
1.952746
 30
0.0
  0
LWPOLYLINE
  5
204
100
AcDbEntity
  8
0
 62
1
100
AcDbPolyline
 90
1
 70
1
 10
5.671329
 20
4.918546
 30
0.0
  0
SPLINE
  5
205
100
AcDbEntity
  8
0
 62
1
100
AcDbSpline
 70
8
 71
3
 72
8
 73
4
 74
0
 40
0
 40
0
 40
0
 40
0
 40
1
 40
1
 40
1
 40
1
 10
4.950826
 20
5.639062
 30
0.0
 10
4.950826
 20
5.647146
 30
0.0
 10
4.947614
 20
5.654899
 30
0.0
 10
4.941898
 20
5.660615
 30
0.0
  0
SPLINE
  5
206
100
AcDbEntity
  8
0
 62
1
100
AcDbSpline
 70
8
 71
3
 72
8
 73
4
 74
0
 40
0
 40
0
 40
0
 40
0
 40
1
 40
1
 40
1
 40
1
 10
4.941898
 20
5.660615
 30
0.0
 10
4.936182
 20
5.666331
 30
0.0
 10
4.928429
 20
5.669543
 30
0.0
 10
4.920346
 20
5.669543
 30
0.0
  0
SPLINE
  5
207
100
AcDbEntity
  8
0
 62
1
100
AcDbSpline
 70
8
 71
3
 72
8
 73
4
 74
0
 40
0
 40
0
 40
0
 40
0
 40
1
 40
1
 40
1
 40
1
 10
4.920346
 20
5.669543
 30
0.0
 10
4.912262
 20
5.669543
 30
0.0
 10
4.904509
 20
5.666331
 30
0.0
 10
4.898793
 20
5.660615
 30
0.0
  0
SPLINE
  5
208
100
AcDbEntity
  8
0
 62
1
100
AcDbSpline
 70
8
 71
3
 72
8
 73
4
 74
0
 40
0
 40
0
 40
0
 40
0
 40
1
 40
1
 40
1
 40
1
 10
4.898793
 20
5.660615
 30
0.0
 10
4.893077
 20
5.654899
 30
0.0
 10
4.889866
 20
5.647146
 30
0.0
 10
4.889866
 20
5.639062
 30
0.0
  0
SPLINE
  5
209
100
AcDbEntity
  8
0
 62
1
100
AcDbSpline
 70
8
 71
3
 72
8
 73
4
 74
0
 40
0
 40
0
 40
0
 40
0
 40
1
 40
1
 40
1
 40
1
 10
4.889866
 20
5.639062
 30
0.0
 10
4.889866
 20
5.630979
 30
0.0
 10
4.893077
 20
5.623226
 30
0.0
 10
4.898793
 20
5.617510
 30
0.0
  0
SPLINE
  5
20a
100
AcDbEntity
  8
0
 62
1
100
AcDbSpline
 70
8
 71
3
 72
8
 73
4
 74
0
 40
0
 40
0
 40
0
 40
0
 40
1
 40
1
 40
1
 40
1
 10
4.898793
 20
5.617510
 30
0.0
 10
4.904509
 20
5.611794
 30
0.0
 10
4.912262
 20
5.608582
 30
0.0
 10
4.920346
 20
5.608582
 30
0.0
  0
SPLINE
  5
20b
100
AcDbEntity
  8
0
 62
1
100
AcDbSpline
 70
8
 71
3
 72
8
 73
4
 74
0
 40
0
 40
0
 40
0
 40
0
 40
1
 40
1
 40
1
 40
1
 10
4.920346
 20
5.608582
 30
0.0
 10
4.928429
 20
5.608582
 30
0.0
 10
4.936182
 20
5.611794
 30
0.0
 10
4.941898
 20
5.617510
 30
0.0
  0
SPLINE
  5
20c
100
AcDbEntity
  8
0
 62
1
100
AcDbSpline
 70
8
 71
3
 72
8
 73
4
 74
0
 40
0
 40
0
 40
0
 40
0
 40
1
 40
1
 40
1
 40
1
 10
4.941898
 20
5.617510
 30
0.0
 10
4.947614
 20
5.623226
 30
0.0
 10
4.950826
 20
5.630979
 30
0.0
 10
4.950826
 20
5.639062
 30
0.0
  0
LWPOLYLINE
  5
20d
100
AcDbEntity
  8
0
 62
1
100
AcDbPolyline
 90
1
 70
1
 10
3.966576
 20
1.952746
 30
0.0
  0
SPLINE
  5
20e
100
AcDbEntity
  8
0
 62
1
100
AcDbSpline
 70
8
 71
3
 72
8
 73
4
 74
0
 40
0
 40
0
 40
0
 40
0
 40
1
 40
1
 40
1
 40
1
 10
2.261810
 20
4.918562
 30
0.0
 10
2.261810
 20
4.926646
 30
0.0
 10
2.258599
 20
4.934399
 30
0.0
 10
2.252882
 20
4.940115
 30
0.0
  0
SPLINE
  5
20f
100
AcDbEntity
  8
0
 62
1
100
AcDbSpline
 70
8
 71
3
 72
8
 73
4
 74
0
 40
0
 40
0
 40
0
 40
0
 40
1
 40
1
 40
1
 40
1
 10
2.252882
 20
4.940115
 30
0.0
 10
2.247166
 20
4.945831
 30
0.0
 10
2.239414
 20
4.949042
 30
0.0
 10
2.231330
 20
4.949042
 30
0.0
  0
SPLINE
  5
210
100
AcDbEntity
  8
0
 62
1
100
AcDbSpline
 70
8
 71
3
 72
8
 73
4
 74
0
 40
0
 40
0
 40
0
 40
0
 40
1
 40
1
 40
1
 40
1
 10
2.231330
 20
4.949042
 30
0.0
 10
2.223246
 20
4.949042
 30
0.0
 10
2.215493
 20
4.945831
 30
0.0
 10
2.209777
 20
4.940115
 30
0.0
  0
SPLINE
  5
211
100
AcDbEntity
  8
0
 62
1
100
AcDbSpline
 70
8
 71
3
 72
8
 73
4
 74
0
 40
0
 40
0
 40
0
 40
0
 40
1
 40
1
 40
1
 40
1
 10
2.209777
 20
4.940115
 30
0.0
 10
2.204061
 20
4.934399
 30
0.0
 10
2.200850
 20
4.926646
 30
0.0
 10
2.200850
 20
4.918562
 30
0.0
  0
SPLINE
  5
212
100
AcDbEntity
  8
0
 62
1
100
AcDbSpline
 70
8
 71
3
 72
8
 73
4
 74
0
 40
0
 40
0
 40
0
 40
0
 40
1
 40
1
 40
1
 40
1
 10
2.200850
 20
4.918562
 30
0.0
 10
2.200850
 20
4.910478
 30
0.0
 10
2.204061
 20
4.902726
 30
0.0
 10
2.209777
 20
4.897010
 30
0.0
  0
SPLINE
  5
213
100
AcDbEntity
  8
0
 62
1
100
AcDbSpline
 70
8
 71
3
 72
8
 73
4
 74
0
 40
0
 40
0
 40
0
 40
0
 40
1
 40
1
 40
1
 40
1
 10
2.209777
 20
4.897010
 30
0.0
 10
2.215493
 20
4.891293
 30
0.0
 10
2.223246
 20
4.888082
 30
0.0
 10
2.231330
 20
4.888082
 30
0.0
  0
SPLINE
  5
214
100
AcDbEntity
  8
0
 62
1
100
AcDbSpline
 70
8
 71
3
 72
8
 73
4
 74
0
 40
0
 40
0
 40
0
 40
0
 40
1
 40
1
 40
1
 40
1
 10
2.231330
 20
4.888082
 30
0.0
 10
2.239414
 20
4.888082
 30
0.0
 10
2.247166
 20
4.891293
 30
0.0
 10
2.252882
 20
4.897010
 30
0.0
  0
SPLINE
  5
215
100
AcDbEntity
  8
0
 62
1
100
AcDbSpline
 70
8
 71
3
 72
8
 73
4
 74
0
 40
0
 40
0
 40
0
 40
0
 40
1
 40
1
 40
1
 40
1
 10
2.252882
 20
4.897010
 30
0.0
 10
2.258599
 20
4.902726
 30
0.0
 10
2.261810
 20
4.910478
 30
0.0
 10
2.261810
 20
4.918562
 30
0.0
  0
LWPOLYLINE
  5
216
100
AcDbEntity
  8
0
 62
1
100
AcDbPolyline
 90
1
 70
1
 10
4.950826
 20
5.639062
 30
0.0
  0
SPLINE
  5
217
100
AcDbEntity
  8
0
 62
1
100
AcDbSpline
 70
8
 71
3
 72
8
 73
4
 74
0
 40
0
 40
0
 40
0
 40
0
 40
1
 40
1
 40
1
 40
1
 10
1.998069
 20
3.934296
 30
0.0
 10
1.998069
 20
3.942379
 30
0.0
 10
1.994858
 20
3.950132
 30
0.0
 10
1.989142
 20
3.955848
 30
0.0
  0
SPLINE
  5
218
100
AcDbEntity
  8
0
 62
1
100
AcDbSpline
 70
8
 71
3
 72
8
 73
4
 74
0
 40
0
 40
0
 40
0
 40
0
 40
1
 40
1
 40
1
 40
1
 10
1.989142
 20
3.955848
 30
0.0
 10
1.983426
 20
3.961564
 30
0.0
 10
1.975673
 20
3.964776
 30
0.0
 10
1.967589
 20
3.964776
 30
0.0
  0
SPLINE
  5
219
100
AcDbEntity
  8
0
 62
1
100
AcDbSpline
 70
8
 71
3
 72
8
 73
4
 74
0
 40
0
 40
0
 40
0
 40
0
 40
1
 40
1
 40
1
 40
1
 10
1.967589
 20
3.964776
 30
0.0
 10
1.959505
 20
3.964776
 30
0.0
 10
1.951752
 20
3.961564
 30
0.0
 10
1.946036
 20
3.955848
 30
0.0
  0
SPLINE
  5
21a
100
AcDbEntity
  8
0
 62
1
100
AcDbSpline
 70
8
 71
3
 72
8
 73
4
 74
0
 40
0
 40
0
 40
0
 40
0
 40
1
 40
1
 40
1
 40
1
 10
1.946036
 20
3.955848
 30
0.0
 10
1.940320
 20
3.950132
 30
0.0
 10
1.937109
 20
3.942379
 30
0.0
 10
1.937109
 20
3.934296
 30
0.0
  0
SPLINE
  5
21b
100
AcDbEntity
  8
0
 62
1
100
AcDbSpline
 70
8
 71
3
 72
8
 73
4
 74
0
 40
0
 40
0
 40
0
 40
0
 40
1
 40
1
 40
1
 40
1
 10
1.937109
 20
3.934296
 30
0.0
 10
1.937109
 20
3.926212
 30
0.0
 10
1.940320
 20
3.918459
 30
0.0
 10
1.946036
 20
3.912743
 30
0.0
  0
SPLINE
  5
21c
100
AcDbEntity
  8
0
 62
1
100
AcDbSpline
 70
8
 71
3
 72
8
 73
4
 74
0
 40
0
 40
0
 40
0
 40
0
 40
1
 40
1
 40
1
 40
1
 10
1.946036
 20
3.912743
 30
0.0
 10
1.951752
 20
3.907027
 30
0.0
 10
1.959505
 20
3.903816
 30
0.0
 10
1.967589
 20
3.903816
 30
0.0
  0
SPLINE
  5
21d
100
AcDbEntity
  8
0
 62
1
100
AcDbSpline
 70
8
 71
3
 72
8
 73
4
 74
0
 40
0
 40
0
 40
0
 40
0
 40
1
 40
1
 40
1
 40
1
 10
1.967589
 20
3.903816
 30
0.0
 10
1.975673
 20
3.903816
 30
0.0
 10
1.983426
 20
3.907027
 30
0.0
 10
1.989142
 20
3.912743
 30
0.0
  0
SPLINE
  5
21e
100
AcDbEntity
  8
0
 62
1
100
AcDbSpline
 70
8
 71
3
 72
8
 73
4
 74
0
 40
0
 40
0
 40
0
 40
0
 40
1
 40
1
 40
1
 40
1
 10
1.989142
 20
3.912743
 30
0.0
 10
1.994858
 20
3.918459
 30
0.0
 10
1.998069
 20
3.926212
 30
0.0
 10
1.998069
 20
3.934296
 30
0.0
  0
LWPOLYLINE
  5
21f
100
AcDbEntity
  8
0
 62
1
100
AcDbPolyline
 90
1
 70
1
 10
2.261810
 20
4.918562
 30
0.0
  0
SPLINE
  5
220
100
AcDbEntity
  8
0
 62
1
100
AcDbSpline
 70
8
 71
3
 72
8
 73
4
 74
0
 40
0
 40
0
 40
0
 40
0
 40
1
 40
1
 40
1
 40
1
 10
5.935075
 20
3.934296
 30
0.0
 10
5.935075
 20
3.942379
 30
0.0
 10
5.931864
 20
3.950132
 30
0.0
 10
5.926148
 20
3.955848
 30
0.0
  0
SPLINE
  5
221
100
AcDbEntity
  8
0
 62
1
100
AcDbSpline
 70
8
 71
3
 72
8
 73
4
 74
0
 40
0
 40
0
 40
0
 40
0
 40
1
 40
1
 40
1
 40
1
 10
5.926148
 20
3.955848
 30
0.0
 10
5.920432
 20
3.961564
 30
0.0
 10
5.912679
 20
3.964776
 30
0.0
 10
5.904595
 20
3.964776
 30
0.0
  0
SPLINE
  5
222
100
AcDbEntity
  8
0
 62
1
100
AcDbSpline
 70
8
 71
3
 72
8
 73
4
 74
0
 40
0
 40
0
 40
0
 40
0
 40
1
 40
1
 40
1
 40
1
 10
5.904595
 20
3.964776
 30
0.0
 10
5.896512
 20
3.964776
 30
0.0
 10
5.888759
 20
3.961564
 30
0.0
 10
5.883043
 20
3.955848
 30
0.0
  0
SPLINE
  5
223
100
AcDbEntity
  8
0
 62
1
100
AcDbSpline
 70
8
 71
3
 72
8
 73
4
 74
0
 40
0
 40
0
 40
0
 40
0
 40
1
 40
1
 40
1
 40
1
 10
5.883043
 20
3.955848
 30
0.0
 10
5.877327
 20
3.950132
 30
0.0
 10
5.874115
 20
3.942379
 30
0.0
 10
5.874115
 20
3.934296
 30
0.0
  0
SPLINE
  5
224
100
AcDbEntity
  8
0
 62
1
100
AcDbSpline
 70
8
 71
3
 72
8
 73
4
 74
0
 40
0
 40
0
 40
0
 40
0
 40
1
 40
1
 40
1
 40
1
 10
5.874115
 20
3.934296
 30
0.0
 10
5.874115
 20
3.926212
 30
0.0
 10
5.877327
 20
3.918459
 30
0.0
 10
5.883043
 20
3.912743
 30
0.0
  0
SPLINE
  5
225
100
AcDbEntity
  8
0
 62
1
100
AcDbSpline
 70
8
 71
3
 72
8
 73
4
 74
0
 40
0
 40
0
 40
0
 40
0
 40
1
 40
1
 40
1
 40
1
 10
5.883043
 20
3.912743
 30
0.0
 10
5.888759
 20
3.907027
 30
0.0
 10
5.896512
 20
3.903816
 30
0.0
 10
5.904595
 20
3.903816
 30
0.0
  0
SPLINE
  5
226
100
AcDbEntity
  8
0
 62
1
100
AcDbSpline
 70
8
 71
3
 72
8
 73
4
 74
0
 40
0
 40
0
 40
0
 40
0
 40
1
 40
1
 40
1
 40
1
 10
5.904595
 20
3.903816
 30
0.0
 10
5.912679
 20
3.903816
 30
0.0
 10
5.920432
 20
3.907027
 30
0.0
 10
5.926148
 20
3.912743
 30
0.0
  0
SPLINE
  5
227
100
AcDbEntity
  8
0
 62
1
100
AcDbSpline
 70
8
 71
3
 72
8
 73
4
 74
0
 40
0
 40
0
 40
0
 40
0
 40
1
 40
1
 40
1
 40
1
 10
5.926148
 20
3.912743
 30
0.0
 10
5.931864
 20
3.918459
 30
0.0
 10
5.935075
 20
3.926212
 30
0.0
 10
5.935075
 20
3.934296
 30
0.0
  0
LWPOLYLINE
  5
228
100
AcDbEntity
  8
0
 62
1
100
AcDbPolyline
 90
1
 70
1
 10
1.998069
 20
3.934296
 30
0.0
  0
SPLINE
  5
229
100
AcDbEntity
  8
0
 62
1
100
AcDbSpline
 70
8
 71
3
 72
8
 73
4
 74
0
 40
0
 40
0
 40
0
 40
0
 40
1
 40
1
 40
1
 40
1
 10
4.950826
 20
2.229529
 30
0.0
 10
4.950826
 20
2.237613
 30
0.0
 10
4.947614
 20
2.245365
 30
0.0
 10
4.941898
 20
2.251082
 30
0.0
  0
SPLINE
  5
22a
100
AcDbEntity
  8
0
 62
1
100
AcDbSpline
 70
8
 71
3
 72
8
 73
4
 74
0
 40
0
 40
0
 40
0
 40
0
 40
1
 40
1
 40
1
 40
1
 10
4.941898
 20
2.251082
 30
0.0
 10
4.936182
 20
2.256798
 30
0.0
 10
4.928429
 20
2.260009
 30
0.0
 10
4.920346
 20
2.260009
 30
0.0
  0
SPLINE
  5
22b
100
AcDbEntity
  8
0
 62
1
100
AcDbSpline
 70
8
 71
3
 72
8
 73
4
 74
0
 40
0
 40
0
 40
0
 40
0
 40
1
 40
1
 40
1
 40
1
 10
4.920346
 20
2.260009
 30
0.0
 10
4.912262
 20
2.260009
 30
0.0
 10
4.904509
 20
2.256798
 30
0.0
 10
4.898793
 20
2.251082
 30
0.0
  0
SPLINE
  5
22c
100
AcDbEntity
  8
0
 62
1
100
AcDbSpline
 70
8
 71
3
 72
8
 73
4
 74
0
 40
0
 40
0
 40
0
 40
0
 40
1
 40
1
 40
1
 40
1
 10
4.898793
 20
2.251082
 30
0.0
 10
4.893077
 20
2.245365
 30
0.0
 10
4.889866
 20
2.237613
 30
0.0
 10
4.889866
 20
2.229529
 30
0.0
  0
SPLINE
  5
22d
100
AcDbEntity
  8
0
 62
1
100
AcDbSpline
 70
8
 71
3
 72
8
 73
4
 74
0
 40
0
 40
0
 40
0
 40
0
 40
1
 40
1
 40
1
 40
1
 10
4.889866
 20
2.229529
 30
0.0
 10
4.889866
 20
2.221445
 30
0.0
 10
4.893077
 20
2.213692
 30
0.0
 10
4.898793
 20
2.207976
 30
0.0
  0
SPLINE
  5
22e
100
AcDbEntity
  8
0
 62
1
100
AcDbSpline
 70
8
 71
3
 72
8
 73
4
 74
0
 40
0
 40
0
 40
0
 40
0
 40
1
 40
1
 40
1
 40
1
 10
4.898793
 20
2.207976
 30
0.0
 10
4.904509
 20
2.202260
 30
0.0
 10
4.912262
 20
2.199049
 30
0.0
 10
4.920346
 20
2.199049
 30
0.0
  0
SPLINE
  5
22f
100
AcDbEntity
  8
0
 62
1
100
AcDbSpline
 70
8
 71
3
 72
8
 73
4
 74
0
 40
0
 40
0
 40
0
 40
0
 40
1
 40
1
 40
1
 40
1
 10
4.920346
 20
2.199049
 30
0.0
 10
4.928429
 20
2.199049
 30
0.0
 10
4.936182
 20
2.202260
 30
0.0
 10
4.941898
 20
2.207976
 30
0.0
  0
SPLINE
  5
230
100
AcDbEntity
  8
0
 62
1
100
AcDbSpline
 70
8
 71
3
 72
8
 73
4
 74
0
 40
0
 40
0
 40
0
 40
0
 40
1
 40
1
 40
1
 40
1
 10
4.941898
 20
2.207976
 30
0.0
 10
4.947614
 20
2.213692
 30
0.0
 10
4.950826
 20
2.221445
 30
0.0
 10
4.950826
 20
2.229529
 30
0.0
  0
LWPOLYLINE
  5
231
100
AcDbEntity
  8
0
 62
1
100
AcDbPolyline
 90
1
 70
1
 10
5.935075
 20
3.934296
 30
0.0
  0
SPLINE
  5
232
100
AcDbEntity
  8
0
 62
1
100
AcDbSpline
 70
8
 71
3
 72
8
 73
4
 74
0
 40
0
 40
0
 40
0
 40
0
 40
1
 40
1
 40
1
 40
1
 10
5.671329
 20
2.950046
 30
0.0
 10
5.671329
 20
2.958130
 30
0.0
 10
5.668117
 20
2.965882
 30
0.0
 10
5.662401
 20
2.971598
 30
0.0
  0
SPLINE
  5
233
100
AcDbEntity
  8
0
 62
1
100
AcDbSpline
 70
8
 71
3
 72
8
 73
4
 74
0
 40
0
 40
0
 40
0
 40
0
 40
1
 40
1
 40
1
 40
1
 10
5.662401
 20
2.971598
 30
0.0
 10
5.656685
 20
2.977315
 30
0.0
 10
5.648932
 20
2.980526
 30
0.0
 10
5.640849
 20
2.980526
 30
0.0
  0
SPLINE
  5
234
100
AcDbEntity
  8
0
 62
1
100
AcDbSpline
 70
8
 71
3
 72
8
 73
4
 74
0
 40
0
 40
0
 40
0
 40
0
 40
1
 40
1
 40
1
 40
1
 10
5.640849
 20
2.980526
 30
0.0
 10
5.632765
 20
2.980526
 30
0.0
 10
5.625012
 20
2.977315
 30
0.0
 10
5.619296
 20
2.971598
 30
0.0
  0
SPLINE
  5
235
100
AcDbEntity
  8
0
 62
1
100
AcDbSpline
 70
8
 71
3
 72
8
 73
4
 74
0
 40
0
 40
0
 40
0
 40
0
 40
1
 40
1
 40
1
 40
1
 10
5.619296
 20
2.971598
 30
0.0
 10
5.613580
 20
2.965882
 30
0.0
 10
5.610369
 20
2.958130
 30
0.0
 10
5.610369
 20
2.950046
 30
0.0
  0
SPLINE
  5
236
100
AcDbEntity
  8
0
 62
1
100
AcDbSpline
 70
8
 71
3
 72
8
 73
4
 74
0
 40
0
 40
0
 40
0
 40
0
 40
1
 40
1
 40
1
 40
1
 10
5.610369
 20
2.950046
 30
0.0
 10
5.610369
 20
2.941962
 30
0.0
 10
5.613580
 20
2.934209
 30
0.0
 10
5.619296
 20
2.928493
 30
0.0
  0
SPLINE
  5
237
100
AcDbEntity
  8
0
 62
1
100
AcDbSpline
 70
8
 71
3
 72
8
 73
4
 74
0
 40
0
 40
0
 40
0
 40
0
 40
1
 40
1
 40
1
 40
1
 10
5.619296
 20
2.928493
 30
0.0
 10
5.625012
 20
2.922777
 30
0.0
 10
5.632765
 20
2.919566
 30
0.0
 10
5.640849
 20
2.919566
 30
0.0
  0
SPLINE
  5
238
100
AcDbEntity
  8
0
 62
1
100
AcDbSpline
 70
8
 71
3
 72
8
 73
4
 74
0
 40
0
 40
0
 40
0
 40
0
 40
1
 40
1
 40
1
 40
1
 10
5.640849
 20
2.919566
 30
0.0
 10
5.648932
 20
2.919566
 30
0.0
 10
5.656685
 20
2.922777
 30
0.0
 10
5.662401
 20
2.928493
 30
0.0
  0
SPLINE
  5
239
100
AcDbEntity
  8
0
 62
1
100
AcDbSpline
 70
8
 71
3
 72
8
 73
4
 74
0
 40
0
 40
0
 40
0
 40
0
 40
1
 40
1
 40
1
 40
1
 10
5.662401
 20
2.928493
 30
0.0
 10
5.668117
 20
2.934209
 30
0.0
 10
5.671329
 20
2.941962
 30
0.0
 10
5.671329
 20
2.950046
 30
0.0
  0
LWPOLYLINE
  5
23a
100
AcDbEntity
  8
0
 62
1
100
AcDbPolyline
 90
1
 70
1
 10
4.950826
 20
2.229529
 30
0.0
  0
SPLINE
  5
23b
100
AcDbEntity
  8
0
 62
1
100
AcDbSpline
 70
8
 71
3
 72
8
 73
4
 74
0
 40
0
 40
0
 40
0
 40
0
 40
1
 40
1
 40
1
 40
1
 10
2.982312
 20
5.639062
 30
0.0
 10
2.982312
 20
5.647146
 30
0.0
 10
2.979101
 20
5.654899
 30
0.0
 10
2.973385
 20
5.660615
 30
0.0
  0
SPLINE
  5
23c
100
AcDbEntity
  8
0
 62
1
100
AcDbSpline
 70
8
 71
3
 72
8
 73
4
 74
0
 40
0
 40
0
 40
0
 40
0
 40
1
 40
1
 40
1
 40
1
 10
2.973385
 20
5.660615
 30
0.0
 10
2.967668
 20
5.666331
 30
0.0
 10
2.959916
 20
5.669543
 30
0.0
 10
2.951832
 20
5.669543
 30
0.0
  0
SPLINE
  5
23d
100
AcDbEntity
  8
0
 62
1
100
AcDbSpline
 70
8
 71
3
 72
8
 73
4
 74
0
 40
0
 40
0
 40
0
 40
0
 40
1
 40
1
 40
1
 40
1
 10
2.951832
 20
5.669543
 30
0.0
 10
2.943748
 20
5.669543
 30
0.0
 10
2.935995
 20
5.666331
 30
0.0
 10
2.930279
 20
5.660615
 30
0.0
  0
SPLINE
  5
23e
100
AcDbEntity
  8
0
 62
1
100
AcDbSpline
 70
8
 71
3
 72
8
 73
4
 74
0
 40
0
 40
0
 40
0
 40
0
 40
1
 40
1
 40
1
 40
1
 10
2.930279
 20
5.660615
 30
0.0
 10
2.924563
 20
5.654899
 30
0.0
 10
2.921352
 20
5.647146
 30
0.0
 10
2.921352
 20
5.639062
 30
0.0
  0
SPLINE
  5
23f
100
AcDbEntity
  8
0
 62
1
100
AcDbSpline
 70
8
 71
3
 72
8
 73
4
 74
0
 40
0
 40
0
 40
0
 40
0
 40
1
 40
1
 40
1
 40
1
 10
2.921352
 20
5.639062
 30
0.0
 10
2.921352
 20
5.630979
 30
0.0
 10
2.924563
 20
5.623226
 30
0.0
 10
2.930279
 20
5.617510
 30
0.0
  0
SPLINE
  5
240
100
AcDbEntity
  8
0
 62
1
100
AcDbSpline
 70
8
 71
3
 72
8
 73
4
 74
0
 40
0
 40
0
 40
0
 40
0
 40
1
 40
1
 40
1
 40
1
 10
2.930279
 20
5.617510
 30
0.0
 10
2.935995
 20
5.611794
 30
0.0
 10
2.943748
 20
5.608582
 30
0.0
 10
2.951832
 20
5.608582
 30
0.0
  0
SPLINE
  5
241
100
AcDbEntity
  8
0
 62
1
100
AcDbSpline
 70
8
 71
3
 72
8
 73
4
 74
0
 40
0
 40
0
 40
0
 40
0
 40
1
 40
1
 40
1
 40
1
 10
2.951832
 20
5.608582
 30
0.0
 10
2.959916
 20
5.608582
 30
0.0
 10
2.967668
 20
5.611794
 30
0.0
 10
2.973385
 20
5.617510
 30
0.0
  0
SPLINE
  5
242
100
AcDbEntity
  8
0
 62
1
100
AcDbSpline
 70
8
 71
3
 72
8
 73
4
 74
0
 40
0
 40
0
 40
0
 40
0
 40
1
 40
1
 40
1
 40
1
 10
2.973385
 20
5.617510
 30
0.0
 10
2.979101
 20
5.623226
 30
0.0
 10
2.982312
 20
5.630979
 30
0.0
 10
2.982312
 20
5.639062
 30
0.0
  0
LWPOLYLINE
  5
243
100
AcDbEntity
  8
0
 62
1
100
AcDbPolyline
 90
1
 70
1
 10
5.671329
 20
2.950046
 30
0.0
  0
SPLINE
  5
244
100
AcDbEntity
  8
0
 62
1
100
AcDbSpline
 70
8
 71
3
 72
8
 73
4
 74
0
 40
0
 40
0
 40
0
 40
0
 40
1
 40
1
 40
1
 40
1
 10
2.982312
 20
2.229529
 30
0.0
 10
2.982312
 20
2.237613
 30
0.0
 10
2.979101
 20
2.245365
 30
0.0
 10
2.973385
 20
2.251082
 30
0.0
  0
SPLINE
  5
245
100
AcDbEntity
  8
0
 62
1
100
AcDbSpline
 70
8
 71
3
 72
8
 73
4
 74
0
 40
0
 40
0
 40
0
 40
0
 40
1
 40
1
 40
1
 40
1
 10
2.973385
 20
2.251082
 30
0.0
 10
2.967668
 20
2.256798
 30
0.0
 10
2.959916
 20
2.260009
 30
0.0
 10
2.951832
 20
2.260009
 30
0.0
  0
SPLINE
  5
246
100
AcDbEntity
  8
0
 62
1
100
AcDbSpline
 70
8
 71
3
 72
8
 73
4
 74
0
 40
0
 40
0
 40
0
 40
0
 40
1
 40
1
 40
1
 40
1
 10
2.951832
 20
2.260009
 30
0.0
 10
2.943748
 20
2.260009
 30
0.0
 10
2.935995
 20
2.256798
 30
0.0
 10
2.930279
 20
2.251082
 30
0.0
  0
SPLINE
  5
247
100
AcDbEntity
  8
0
 62
1
100
AcDbSpline
 70
8
 71
3
 72
8
 73
4
 74
0
 40
0
 40
0
 40
0
 40
0
 40
1
 40
1
 40
1
 40
1
 10
2.930279
 20
2.251082
 30
0.0
 10
2.924563
 20
2.245365
 30
0.0
 10
2.921352
 20
2.237613
 30
0.0
 10
2.921352
 20
2.229529
 30
0.0
  0
SPLINE
  5
248
100
AcDbEntity
  8
0
 62
1
100
AcDbSpline
 70
8
 71
3
 72
8
 73
4
 74
0
 40
0
 40
0
 40
0
 40
0
 40
1
 40
1
 40
1
 40
1
 10
2.921352
 20
2.229529
 30
0.0
 10
2.921352
 20
2.221445
 30
0.0
 10
2.924563
 20
2.213692
 30
0.0
 10
2.930279
 20
2.207976
 30
0.0
  0
SPLINE
  5
249
100
AcDbEntity
  8
0
 62
1
100
AcDbSpline
 70
8
 71
3
 72
8
 73
4
 74
0
 40
0
 40
0
 40
0
 40
0
 40
1
 40
1
 40
1
 40
1
 10
2.930279
 20
2.207976
 30
0.0
 10
2.935995
 20
2.202260
 30
0.0
 10
2.943748
 20
2.199049
 30
0.0
 10
2.951832
 20
2.199049
 30
0.0
  0
SPLINE
  5
24a
100
AcDbEntity
  8
0
 62
1
100
AcDbSpline
 70
8
 71
3
 72
8
 73
4
 74
0
 40
0
 40
0
 40
0
 40
0
 40
1
 40
1
 40
1
 40
1
 10
2.951832
 20
2.199049
 30
0.0
 10
2.959916
 20
2.199049
 30
0.0
 10
2.967668
 20
2.202260
 30
0.0
 10
2.973385
 20
2.207976
 30
0.0
  0
SPLINE
  5
24b
100
AcDbEntity
  8
0
 62
1
100
AcDbSpline
 70
8
 71
3
 72
8
 73
4
 74
0
 40
0
 40
0
 40
0
 40
0
 40
1
 40
1
 40
1
 40
1
 10
2.973385
 20
2.207976
 30
0.0
 10
2.979101
 20
2.213692
 30
0.0
 10
2.982312
 20
2.221445
 30
0.0
 10
2.982312
 20
2.229529
 30
0.0
  0
LWPOLYLINE
  5
24c
100
AcDbEntity
  8
0
 62
1
100
AcDbPolyline
 90
1
 70
1
 10
2.982312
 20
5.639062
 30
0.0
  0
SPLINE
  5
24d
100
AcDbEntity
  8
0
 62
1
100
AcDbSpline
 70
8
 71
3
 72
8
 73
4
 74
0
 40
0
 40
0
 40
0
 40
0
 40
1
 40
1
 40
1
 40
1
 10
2.687036
 20
6.150527
 30
0.0
 10
2.687036
 20
6.158611
 30
0.0
 10
2.683824
 20
6.166364
 30
0.0
 10
2.678108
 20
6.172080
 30
0.0
  0
SPLINE
  5
24e
100
AcDbEntity
  8
0
 62
1
100
AcDbSpline
 70
8
 71
3
 72
8
 73
4
 74
0
 40
0
 40
0
 40
0
 40
0
 40
1
 40
1
 40
1
 40
1
 10
2.678108
 20
6.172080
 30
0.0
 10
2.672392
 20
6.177796
 30
0.0
 10
2.664639
 20
6.181007
 30
0.0
 10
2.656556
 20
6.181007
 30
0.0
  0
SPLINE
  5
24f
100
AcDbEntity
  8
0
 62
1
100
AcDbSpline
 70
8
 71
3
 72
8
 73
4
 74
0
 40
0
 40
0
 40
0
 40
0
 40
1
 40
1
 40
1
 40
1
 10
2.656556
 20
6.181007
 30
0.0
 10
2.648472
 20
6.181007
 30
0.0
 10
2.640719
 20
6.177796
 30
0.0
 10
2.635003
 20
6.172080
 30
0.0
  0
SPLINE
  5
250
100
AcDbEntity
  8
0
 62
1
100
AcDbSpline
 70
8
 71
3
 72
8
 73
4
 74
0
 40
0
 40
0
 40
0
 40
0
 40
1
 40
1
 40
1
 40
1
 10
2.635003
 20
6.172080
 30
0.0
 10
2.629287
 20
6.166364
 30
0.0
 10
2.626075
 20
6.158611
 30
0.0
 10
2.626075
 20
6.150527
 30
0.0
  0
SPLINE
  5
251
100
AcDbEntity
  8
0
 62
1
100
AcDbSpline
 70
8
 71
3
 72
8
 73
4
 74
0
 40
0
 40
0
 40
0
 40
0
 40
1
 40
1
 40
1
 40
1
 10
2.626075
 20
6.150527
 30
0.0
 10
2.626075
 20
6.142443
 30
0.0
 10
2.629287
 20
6.134690
 30
0.0
 10
2.635003
 20
6.128974
 30
0.0
  0
SPLINE
  5
252
100
AcDbEntity
  8
0
 62
1
100
AcDbSpline
 70
8
 71
3
 72
8
 73
4
 74
0
 40
0
 40
0
 40
0
 40
0
 40
1
 40
1
 40
1
 40
1
 10
2.635003
 20
6.128974
 30
0.0
 10
2.640719
 20
6.123258
 30
0.0
 10
2.648472
 20
6.120047
 30
0.0
 10
2.656556
 20
6.120047
 30
0.0
  0
SPLINE
  5
253
100
AcDbEntity
  8
0
 62
1
100
AcDbSpline
 70
8
 71
3
 72
8
 73
4
 74
0
 40
0
 40
0
 40
0
 40
0
 40
1
 40
1
 40
1
 40
1
 10
2.656556
 20
6.120047
 30
0.0
 10
2.664639
 20
6.120047
 30
0.0
 10
2.672392
 20
6.123258
 30
0.0
 10
2.678108
 20
6.128974
 30
0.0
  0
SPLINE
  5
254
100
AcDbEntity
  8
0
 62
1
100
AcDbSpline
 70
8
 71
3
 72
8
 73
4
 74
0
 40
0
 40
0
 40
0
 40
0
 40
1
 40
1
 40
1
 40
1
 10
2.678108
 20
6.128974
 30
0.0
 10
2.683824
 20
6.134690
 30
0.0
 10
2.687036
 20
6.142443
 30
0.0
 10
2.687036
 20
6.150527
 30
0.0
  0
LWPOLYLINE
  5
255
100
AcDbEntity
  8
0
 62
1
100
AcDbPolyline
 90
1
 70
1
 10
2.982312
 20
2.229529
 30
0.0
  0
SPLINE
  5
256
100
AcDbEntity
  8
0
 62
1
100
AcDbSpline
 70
8
 71
3
 72
8
 73
4
 74
0
 40
0
 40
0
 40
0
 40
0
 40
1
 40
1
 40
1
 40
1
 10
1.750343
 20
5.213815
 30
0.0
 10
1.750343
 20
5.221899
 30
0.0
 10
1.747132
 20
5.229651
 30
0.0
 10
1.741416
 20
5.235367
 30
0.0
  0
SPLINE
  5
257
100
AcDbEntity
  8
0
 62
1
100
AcDbSpline
 70
8
 71
3
 72
8
 73
4
 74
0
 40
0
 40
0
 40
0
 40
0
 40
1
 40
1
 40
1
 40
1
 10
1.741416
 20
5.235367
 30
0.0
 10
1.735699
 20
5.241084
 30
0.0
 10
1.727947
 20
5.244295
 30
0.0
 10
1.719863
 20
5.244295
 30
0.0
  0
SPLINE
  5
258
100
AcDbEntity
  8
0
 62
1
100
AcDbSpline
 70
8
 71
3
 72
8
 73
4
 74
0
 40
0
 40
0
 40
0
 40
0
 40
1
 40
1
 40
1
 40
1
 10
1.719863
 20
5.244295
 30
0.0
 10
1.711779
 20
5.244295
 30
0.0
 10
1.704026
 20
5.241084
 30
0.0
 10
1.698310
 20
5.235367
 30
0.0
  0
SPLINE
  5
259
100
AcDbEntity
  8
0
 62
1
100
AcDbSpline
 70
8
 71
3
 72
8
 73
4
 74
0
 40
0
 40
0
 40
0
 40
0
 40
1
 40
1
 40
1
 40
1
 10
1.698310
 20
5.235367
 30
0.0
 10
1.692594
 20
5.229651
 30
0.0
 10
1.689383
 20
5.221899
 30
0.0
 10
1.689383
 20
5.213815
 30
0.0
  0
SPLINE
  5
25a
100
AcDbEntity
  8
0
 62
1
100
AcDbSpline
 70
8
 71
3
 72
8
 73
4
 74
0
 40
0
 40
0
 40
0
 40
0
 40
1
 40
1
 40
1
 40
1
 10
1.689383
 20
5.213815
 30
0.0
 10
1.689383
 20
5.205731
 30
0.0
 10
1.692594
 20
5.197978
 30
0.0
 10
1.698310
 20
5.192262
 30
0.0
  0
SPLINE
  5
25b
100
AcDbEntity
  8
0
 62
1
100
AcDbSpline
 70
8
 71
3
 72
8
 73
4
 74
0
 40
0
 40
0
 40
0
 40
0
 40
1
 40
1
 40
1
 40
1
 10
1.698310
 20
5.192262
 30
0.0
 10
1.704026
 20
5.186546
 30
0.0
 10
1.711779
 20
5.183335
 30
0.0
 10
1.719863
 20
5.183335
 30
0.0
  0
SPLINE
  5
25c
100
AcDbEntity
  8
0
 62
1
100
AcDbSpline
 70
8
 71
3
 72
8
 73
4
 74
0
 40
0
 40
0
 40
0
 40
0
 40
1
 40
1
 40
1
 40
1
 10
1.719863
 20
5.183335
 30
0.0
 10
1.727947
 20
5.183335
 30
0.0
 10
1.735699
 20
5.186546
 30
0.0
 10
1.741416
 20
5.192262
 30
0.0
  0
SPLINE
  5
25d
100
AcDbEntity
  8
0
 62
1
100
AcDbSpline
 70
8
 71
3
 72
8
 73
4
 74
0
 40
0
 40
0
 40
0
 40
0
 40
1
 40
1
 40
1
 40
1
 10
1.741416
 20
5.192262
 30
0.0
 10
1.747132
 20
5.197978
 30
0.0
 10
1.750343
 20
5.205731
 30
0.0
 10
1.750343
 20
5.213815
 30
0.0
  0
LWPOLYLINE
  5
25e
100
AcDbEntity
  8
0
 62
1
100
AcDbPolyline
 90
1
 70
1
 10
2.687036
 20
6.150527
 30
0.0
  0
SPLINE
  5
25f
100
AcDbEntity
  8
0
 62
1
100
AcDbSpline
 70
8
 71
3
 72
8
 73
4
 74
0
 40
0
 40
0
 40
0
 40
0
 40
1
 40
1
 40
1
 40
1
 10
1.407509
 20
3.934296
 30
0.0
 10
1.407509
 20
3.942379
 30
0.0
 10
1.404298
 20
3.950132
 30
0.0
 10
1.398582
 20
3.955848
 30
0.0
  0
SPLINE
  5
260
100
AcDbEntity
  8
0
 62
1
100
AcDbSpline
 70
8
 71
3
 72
8
 73
4
 74
0
 40
0
 40
0
 40
0
 40
0
 40
1
 40
1
 40
1
 40
1
 10
1.398582
 20
3.955848
 30
0.0
 10
1.392866
 20
3.961564
 30
0.0
 10
1.385113
 20
3.964776
 30
0.0
 10
1.377029
 20
3.964776
 30
0.0
  0
SPLINE
  5
261
100
AcDbEntity
  8
0
 62
1
100
AcDbSpline
 70
8
 71
3
 72
8
 73
4
 74
0
 40
0
 40
0
 40
0
 40
0
 40
1
 40
1
 40
1
 40
1
 10
1.377029
 20
3.964776
 30
0.0
 10
1.368945
 20
3.964776
 30
0.0
 10
1.361193
 20
3.961564
 30
0.0
 10
1.355477
 20
3.955848
 30
0.0
  0
SPLINE
  5
262
100
AcDbEntity
  8
0
 62
1
100
AcDbSpline
 70
8
 71
3
 72
8
 73
4
 74
0
 40
0
 40
0
 40
0
 40
0
 40
1
 40
1
 40
1
 40
1
 10
1.355477
 20
3.955848
 30
0.0
 10
1.349760
 20
3.950132
 30
0.0
 10
1.346549
 20
3.942379
 30
0.0
 10
1.346549
 20
3.934296
 30
0.0
  0
SPLINE
  5
263
100
AcDbEntity
  8
0
 62
1
100
AcDbSpline
 70
8
 71
3
 72
8
 73
4
 74
0
 40
0
 40
0
 40
0
 40
0
 40
1
 40
1
 40
1
 40
1
 10
1.346549
 20
3.934296
 30
0.0
 10
1.346549
 20
3.926212
 30
0.0
 10
1.349760
 20
3.918459
 30
0.0
 10
1.355477
 20
3.912743
 30
0.0
  0
SPLINE
  5
264
100
AcDbEntity
  8
0
 62
1
100
AcDbSpline
 70
8
 71
3
 72
8
 73
4
 74
0
 40
0
 40
0
 40
0
 40
0
 40
1
 40
1
 40
1
 40
1
 10
1.355477
 20
3.912743
 30
0.0
 10
1.361193
 20
3.907027
 30
0.0
 10
1.368945
 20
3.903816
 30
0.0
 10
1.377029
 20
3.903816
 30
0.0
  0
SPLINE
  5
265
100
AcDbEntity
  8
0
 62
1
100
AcDbSpline
 70
8
 71
3
 72
8
 73
4
 74
0
 40
0
 40
0
 40
0
 40
0
 40
1
 40
1
 40
1
 40
1
 10
1.377029
 20
3.903816
 30
0.0
 10
1.385113
 20
3.903816
 30
0.0
 10
1.392866
 20
3.907027
 30
0.0
 10
1.398582
 20
3.912743
 30
0.0
  0
SPLINE
  5
266
100
AcDbEntity
  8
0
 62
1
100
AcDbSpline
 70
8
 71
3
 72
8
 73
4
 74
0
 40
0
 40
0
 40
0
 40
0
 40
1
 40
1
 40
1
 40
1
 10
1.398582
 20
3.912743
 30
0.0
 10
1.404298
 20
3.918459
 30
0.0
 10
1.407509
 20
3.926212
 30
0.0
 10
1.407509
 20
3.934296
 30
0.0
  0
LWPOLYLINE
  5
267
100
AcDbEntity
  8
0
 62
1
100
AcDbPolyline
 90
1
 70
1
 10
1.750343
 20
5.213815
 30
0.0
  0
SPLINE
  5
268
100
AcDbEntity
  8
0
 62
1
100
AcDbSpline
 70
8
 71
3
 72
8
 73
4
 74
0
 40
0
 40
0
 40
0
 40
0
 40
1
 40
1
 40
1
 40
1
 10
1.750343
 20
2.654769
 30
0.0
 10
1.750343
 20
2.662853
 30
0.0
 10
1.747132
 20
2.670606
 30
0.0
 10
1.741416
 20
2.676322
 30
0.0
  0
SPLINE
  5
269
100
AcDbEntity
  8
0
 62
1
100
AcDbSpline
 70
8
 71
3
 72
8
 73
4
 74
0
 40
0
 40
0
 40
0
 40
0
 40
1
 40
1
 40
1
 40
1
 10
1.741416
 20
2.676322
 30
0.0
 10
1.735699
 20
2.682038
 30
0.0
 10
1.727947
 20
2.685249
 30
0.0
 10
1.719863
 20
2.685249
 30
0.0
  0
SPLINE
  5
26a
100
AcDbEntity
  8
0
 62
1
100
AcDbSpline
 70
8
 71
3
 72
8
 73
4
 74
0
 40
0
 40
0
 40
0
 40
0
 40
1
 40
1
 40
1
 40
1
 10
1.719863
 20
2.685249
 30
0.0
 10
1.711779
 20
2.685249
 30
0.0
 10
1.704026
 20
2.682038
 30
0.0
 10
1.698310
 20
2.676322
 30
0.0
  0
SPLINE
  5
26b
100
AcDbEntity
  8
0
 62
1
100
AcDbSpline
 70
8
 71
3
 72
8
 73
4
 74
0
 40
0
 40
0
 40
0
 40
0
 40
1
 40
1
 40
1
 40
1
 10
1.698310
 20
2.676322
 30
0.0
 10
1.692594
 20
2.670606
 30
0.0
 10
1.689383
 20
2.662853
 30
0.0
 10
1.689383
 20
2.654769
 30
0.0
  0
SPLINE
  5
26c
100
AcDbEntity
  8
0
 62
1
100
AcDbSpline
 70
8
 71
3
 72
8
 73
4
 74
0
 40
0
 40
0
 40
0
 40
0
 40
1
 40
1
 40
1
 40
1
 10
1.689383
 20
2.654769
 30
0.0
 10
1.689383
 20
2.646686
 30
0.0
 10
1.692594
 20
2.638933
 30
0.0
 10
1.698310
 20
2.633217
 30
0.0
  0
SPLINE
  5
26d
100
AcDbEntity
  8
0
 62
1
100
AcDbSpline
 70
8
 71
3
 72
8
 73
4
 74
0
 40
0
 40
0
 40
0
 40
0
 40
1
 40
1
 40
1
 40
1
 10
1.698310
 20
2.633217
 30
0.0
 10
1.704026
 20
2.627501
 30
0.0
 10
1.711779
 20
2.624289
 30
0.0
 10
1.719863
 20
2.624289
 30
0.0
  0
SPLINE
  5
26e
100
AcDbEntity
  8
0
 62
1
100
AcDbSpline
 70
8
 71
3
 72
8
 73
4
 74
0
 40
0
 40
0
 40
0
 40
0
 40
1
 40
1
 40
1
 40
1
 10
1.719863
 20
2.624289
 30
0.0
 10
1.727947
 20
2.624289
 30
0.0
 10
1.735699
 20
2.627501
 30
0.0
 10
1.741416
 20
2.633217
 30
0.0
  0
SPLINE
  5
26f
100
AcDbEntity
  8
0
 62
1
100
AcDbSpline
 70
8
 71
3
 72
8
 73
4
 74
0
 40
0
 40
0
 40
0
 40
0
 40
1
 40
1
 40
1
 40
1
 10
1.741416
 20
2.633217
 30
0.0
 10
1.747132
 20
2.638933
 30
0.0
 10
1.750343
 20
2.646686
 30
0.0
 10
1.750343
 20
2.654769
 30
0.0
  0
LWPOLYLINE
  5
270
100
AcDbEntity
  8
0
 62
1
100
AcDbPolyline
 90
1
 70
1
 10
1.407509
 20
3.934296
 30
0.0
  0
SPLINE
  5
271
100
AcDbEntity
  8
0
 62
1
100
AcDbSpline
 70
8
 71
3
 72
8
 73
4
 74
0
 40
0
 40
0
 40
0
 40
0
 40
1
 40
1
 40
1
 40
1
 10
2.687036
 20
1.718077
 30
0.0
 10
2.687036
 20
1.726161
 30
0.0
 10
2.683824
 20
1.733913
 30
0.0
 10
2.678108
 20
1.739629
 30
0.0
  0
SPLINE
  5
272
100
AcDbEntity
  8
0
 62
1
100
AcDbSpline
 70
8
 71
3
 72
8
 73
4
 74
0
 40
0
 40
0
 40
0
 40
0
 40
1
 40
1
 40
1
 40
1
 10
2.678108
 20
1.739629
 30
0.0
 10
2.672392
 20
1.745346
 30
0.0
 10
2.664639
 20
1.748557
 30
0.0
 10
2.656556
 20
1.748557
 30
0.0
  0
SPLINE
  5
273
100
AcDbEntity
  8
0
 62
1
100
AcDbSpline
 70
8
 71
3
 72
8
 73
4
 74
0
 40
0
 40
0
 40
0
 40
0
 40
1
 40
1
 40
1
 40
1
 10
2.656556
 20
1.748557
 30
0.0
 10
2.648472
 20
1.748557
 30
0.0
 10
2.640719
 20
1.745346
 30
0.0
 10
2.635003
 20
1.739629
 30
0.0
  0
SPLINE
  5
274
100
AcDbEntity
  8
0
 62
1
100
AcDbSpline
 70
8
 71
3
 72
8
 73
4
 74
0
 40
0
 40
0
 40
0
 40
0
 40
1
 40
1
 40
1
 40
1
 10
2.635003
 20
1.739629
 30
0.0
 10
2.629287
 20
1.733913
 30
0.0
 10
2.626075
 20
1.726161
 30
0.0
 10
2.626075
 20
1.718077
 30
0.0
  0
SPLINE
  5
275
100
AcDbEntity
  8
0
 62
1
100
AcDbSpline
 70
8
 71
3
 72
8
 73
4
 74
0
 40
0
 40
0
 40
0
 40
0
 40
1
 40
1
 40
1
 40
1
 10
2.626075
 20
1.718077
 30
0.0
 10
2.626075
 20
1.709993
 30
0.0
 10
2.629287
 20
1.702240
 30
0.0
 10
2.635003
 20
1.696524
 30
0.0
  0
SPLINE
  5
276
100
AcDbEntity
  8
0
 62
1
100
AcDbSpline
 70
8
 71
3
 72
8
 73
4
 74
0
 40
0
 40
0
 40
0
 40
0
 40
1
 40
1
 40
1
 40
1
 10
2.635003
 20
1.696524
 30
0.0
 10
2.640719
 20
1.690808
 30
0.0
 10
2.648472
 20
1.687597
 30
0.0
 10
2.656556
 20
1.687597
 30
0.0
  0
SPLINE
  5
277
100
AcDbEntity
  8
0
 62
1
100
AcDbSpline
 70
8
 71
3
 72
8
 73
4
 74
0
 40
0
 40
0
 40
0
 40
0
 40
1
 40
1
 40
1
 40
1
 10
2.656556
 20
1.687597
 30
0.0
 10
2.664639
 20
1.687597
 30
0.0
 10
2.672392
 20
1.690808
 30
0.0
 10
2.678108
 20
1.696524
 30
0.0
  0
SPLINE
  5
278
100
AcDbEntity
  8
0
 62
1
100
AcDbSpline
 70
8
 71
3
 72
8
 73
4
 74
0
 40
0
 40
0
 40
0
 40
0
 40
1
 40
1
 40
1
 40
1
 10
2.678108
 20
1.696524
 30
0.0
 10
2.683824
 20
1.702240
 30
0.0
 10
2.687036
 20
1.709993
 30
0.0
 10
2.687036
 20
1.718077
 30
0.0
  0
LWPOLYLINE
  5
279
100
AcDbEntity
  8
0
 62
1
100
AcDbPolyline
 90
1
 70
1
 10
1.750343
 20
2.654769
 30
0.0
  0
SPLINE
  5
27a
100
AcDbEntity
  8
0
 62
1
100
AcDbSpline
 70
8
 71
3
 72
8
 73
4
 74
0
 40
0
 40
0
 40
0
 40
0
 40
1
 40
1
 40
1
 40
1
 10
3.966576
 20
1.375242
 30
0.0
 10
3.966576
 20
1.383326
 30
0.0
 10
3.963364
 20
1.391078
 30
0.0
 10
3.957648
 20
1.396794
 30
0.0
  0
SPLINE
  5
27b
100
AcDbEntity
  8
0
 62
1
100
AcDbSpline
 70
8
 71
3
 72
8
 73
4
 74
0
 40
0
 40
0
 40
0
 40
0
 40
1
 40
1
 40
1
 40
1
 10
3.957648
 20
1.396794
 30
0.0
 10
3.951932
 20
1.402510
 30
0.0
 10
3.944179
 20
1.405722
 30
0.0
 10
3.936096
 20
1.405722
 30
0.0
  0
SPLINE
  5
27c
100
AcDbEntity
  8
0
 62
1
100
AcDbSpline
 70
8
 71
3
 72
8
 73
4
 74
0
 40
0
 40
0
 40
0
 40
0
 40
1
 40
1
 40
1
 40
1
 10
3.936096
 20
1.405722
 30
0.0
 10
3.928012
 20
1.405722
 30
0.0
 10
3.920259
 20
1.402510
 30
0.0
 10
3.914543
 20
1.396794
 30
0.0
  0
SPLINE
  5
27d
100
AcDbEntity
  8
0
 62
1
100
AcDbSpline
 70
8
 71
3
 72
8
 73
4
 74
0
 40
0
 40
0
 40
0
 40
0
 40
1
 40
1
 40
1
 40
1
 10
3.914543
 20
1.396794
 30
0.0
 10
3.908827
 20
1.391078
 30
0.0
 10
3.905616
 20
1.383326
 30
0.0
 10
3.905616
 20
1.375242
 30
0.0
  0
SPLINE
  5
27e
100
AcDbEntity
  8
0
 62
1
100
AcDbSpline
 70
8
 71
3
 72
8
 73
4
 74
0
 40
0
 40
0
 40
0
 40
0
 40
1
 40
1
 40
1
 40
1
 10
3.905616
 20
1.375242
 30
0.0
 10
3.905616
 20
1.367158
 30
0.0
 10
3.908827
 20
1.359405
 30
0.0
 10
3.914543
 20
1.353689
 30
0.0
  0
SPLINE
  5
27f
100
AcDbEntity
  8
0
 62
1
100
AcDbSpline
 70
8
 71
3
 72
8
 73
4
 74
0
 40
0
 40
0
 40
0
 40
0
 40
1
 40
1
 40
1
 40
1
 10
3.914543
 20
1.353689
 30
0.0
 10
3.920259
 20
1.347973
 30
0.0
 10
3.928012
 20
1.344762
 30
0.0
 10
3.936096
 20
1.344762
 30
0.0
  0
SPLINE
  5
280
100
AcDbEntity
  8
0
 62
1
100
AcDbSpline
 70
8
 71
3
 72
8
 73
4
 74
0
 40
0
 40
0
 40
0
 40
0
 40
1
 40
1
 40
1
 40
1
 10
3.936096
 20
1.344762
 30
0.0
 10
3.944179
 20
1.344762
 30
0.0
 10
3.951932
 20
1.347973
 30
0.0
 10
3.957648
 20
1.353689
 30
0.0
  0
SPLINE
  5
281
100
AcDbEntity
  8
0
 62
1
100
AcDbSpline
 70
8
 71
3
 72
8
 73
4
 74
0
 40
0
 40
0
 40
0
 40
0
 40
1
 40
1
 40
1
 40
1
 10
3.957648
 20
1.353689
 30
0.0
 10
3.963364
 20
1.359405
 30
0.0
 10
3.966576
 20
1.367158
 30
0.0
 10
3.966576
 20
1.375242
 30
0.0
  0
LWPOLYLINE
  5
282
100
AcDbEntity
  8
0
 62
1
100
AcDbPolyline
 90
1
 70
1
 10
2.687036
 20
1.718077
 30
0.0
  0
SPLINE
  5
283
100
AcDbEntity
  8
0
 62
1
100
AcDbSpline
 70
8
 71
3
 72
8
 73
4
 74
0
 40
0
 40
0
 40
0
 40
0
 40
1
 40
1
 40
1
 40
1
 10
5.246081
 20
1.718077
 30
0.0
 10
5.246081
 20
1.726161
 30
0.0
 10
5.242870
 20
1.733913
 30
0.0
 10
5.237154
 20
1.739629
 30
0.0
  0
SPLINE
  5
284
100
AcDbEntity
  8
0
 62
1
100
AcDbSpline
 70
8
 71
3
 72
8
 73
4
 74
0
 40
0
 40
0
 40
0
 40
0
 40
1
 40
1
 40
1
 40
1
 10
5.237154
 20
1.739629
 30
0.0
 10
5.231437
 20
1.745346
 30
0.0
 10
5.223685
 20
1.748557
 30
0.0
 10
5.215601
 20
1.748557
 30
0.0
  0
SPLINE
  5
285
100
AcDbEntity
  8
0
 62
1
100
AcDbSpline
 70
8
 71
3
 72
8
 73
4
 74
0
 40
0
 40
0
 40
0
 40
0
 40
1
 40
1
 40
1
 40
1
 10
5.215601
 20
1.748557
 30
0.0
 10
5.207517
 20
1.748557
 30
0.0
 10
5.199764
 20
1.745346
 30
0.0
 10
5.194048
 20
1.739629
 30
0.0
  0
SPLINE
  5
286
100
AcDbEntity
  8
0
 62
1
100
AcDbSpline
 70
8
 71
3
 72
8
 73
4
 74
0
 40
0
 40
0
 40
0
 40
0
 40
1
 40
1
 40
1
 40
1
 10
5.194048
 20
1.739629
 30
0.0
 10
5.188332
 20
1.733913
 30
0.0
 10
5.185121
 20
1.726161
 30
0.0
 10
5.185121
 20
1.718077
 30
0.0
  0
SPLINE
  5
287
100
AcDbEntity
  8
0
 62
1
100
AcDbSpline
 70
8
 71
3
 72
8
 73
4
 74
0
 40
0
 40
0
 40
0
 40
0
 40
1
 40
1
 40
1
 40
1
 10
5.185121
 20
1.718077
 30
0.0
 10
5.185121
 20
1.709993
 30
0.0
 10
5.188332
 20
1.702240
 30
0.0
 10
5.194048
 20
1.696524
 30
0.0
  0
SPLINE
  5
288
100
AcDbEntity
  8
0
 62
1
100
AcDbSpline
 70
8
 71
3
 72
8
 73
4
 74
0
 40
0
 40
0
 40
0
 40
0
 40
1
 40
1
 40
1
 40
1
 10
5.194048
 20
1.696524
 30
0.0
 10
5.199764
 20
1.690808
 30
0.0
 10
5.207517
 20
1.687597
 30
0.0
 10
5.215601
 20
1.687597
 30
0.0
  0
SPLINE
  5
289
100
AcDbEntity
  8
0
 62
1
100
AcDbSpline
 70
8
 71
3
 72
8
 73
4
 74
0
 40
0
 40
0
 40
0
 40
0
 40
1
 40
1
 40
1
 40
1
 10
5.215601
 20
1.687597
 30
0.0
 10
5.223685
 20
1.687597
 30
0.0
 10
5.231437
 20
1.690808
 30
0.0
 10
5.237154
 20
1.696524
 30
0.0
  0
SPLINE
  5
28a
100
AcDbEntity
  8
0
 62
1
100
AcDbSpline
 70
8
 71
3
 72
8
 73
4
 74
0
 40
0
 40
0
 40
0
 40
0
 40
1
 40
1
 40
1
 40
1
 10
5.237154
 20
1.696524
 30
0.0
 10
5.242870
 20
1.702240
 30
0.0
 10
5.246081
 20
1.709993
 30
0.0
 10
5.246081
 20
1.718077
 30
0.0
  0
LWPOLYLINE
  5
28b
100
AcDbEntity
  8
0
 62
1
100
AcDbPolyline
 90
1
 70
1
 10
3.966576
 20
1.375242
 30
0.0
  0
SPLINE
  5
28c
100
AcDbEntity
  8
0
 62
1
100
AcDbSpline
 70
8
 71
3
 72
8
 73
4
 74
0
 40
0
 40
0
 40
0
 40
0
 40
1
 40
1
 40
1
 40
1
 10
6.182793
 20
2.654769
 30
0.0
 10
6.182793
 20
2.662853
 30
0.0
 10
6.179582
 20
2.670606
 30
0.0
 10
6.173866
 20
2.676322
 30
0.0
  0
SPLINE
  5
28d
100
AcDbEntity
  8
0
 62
1
100
AcDbSpline
 70
8
 71
3
 72
8
 73
4
 74
0
 40
0
 40
0
 40
0
 40
0
 40
1
 40
1
 40
1
 40
1
 10
6.173866
 20
2.676322
 30
0.0
 10
6.168150
 20
2.682038
 30
0.0
 10
6.160397
 20
2.685249
 30
0.0
 10
6.152313
 20
2.685249
 30
0.0
  0
SPLINE
  5
28e
100
AcDbEntity
  8
0
 62
1
100
AcDbSpline
 70
8
 71
3
 72
8
 73
4
 74
0
 40
0
 40
0
 40
0
 40
0
 40
1
 40
1
 40
1
 40
1
 10
6.152313
 20
2.685249
 30
0.0
 10
6.144229
 20
2.685249
 30
0.0
 10
6.136477
 20
2.682038
 30
0.0
 10
6.130760
 20
2.676322
 30
0.0
  0
SPLINE
  5
28f
100
AcDbEntity
  8
0
 62
1
100
AcDbSpline
 70
8
 71
3
 72
8
 73
4
 74
0
 40
0
 40
0
 40
0
 40
0
 40
1
 40
1
 40
1
 40
1
 10
6.130760
 20
2.676322
 30
0.0
 10
6.125044
 20
2.670606
 30
0.0
 10
6.121833
 20
2.662853
 30
0.0
 10
6.121833
 20
2.654769
 30
0.0
  0
SPLINE
  5
290
100
AcDbEntity
  8
0
 62
1
100
AcDbSpline
 70
8
 71
3
 72
8
 73
4
 74
0
 40
0
 40
0
 40
0
 40
0
 40
1
 40
1
 40
1
 40
1
 10
6.121833
 20
2.654769
 30
0.0
 10
6.121833
 20
2.646686
 30
0.0
 10
6.125044
 20
2.638933
 30
0.0
 10
6.130760
 20
2.633217
 30
0.0
  0
SPLINE
  5
291
100
AcDbEntity
  8
0
 62
1
100
AcDbSpline
 70
8
 71
3
 72
8
 73
4
 74
0
 40
0
 40
0
 40
0
 40
0
 40
1
 40
1
 40
1
 40
1
 10
6.130760
 20
2.633217
 30
0.0
 10
6.136477
 20
2.627501
 30
0.0
 10
6.144229
 20
2.624289
 30
0.0
 10
6.152313
 20
2.624289
 30
0.0
  0
SPLINE
  5
292
100
AcDbEntity
  8
0
 62
1
100
AcDbSpline
 70
8
 71
3
 72
8
 73
4
 74
0
 40
0
 40
0
 40
0
 40
0
 40
1
 40
1
 40
1
 40
1
 10
6.152313
 20
2.624289
 30
0.0
 10
6.160397
 20
2.624289
 30
0.0
 10
6.168150
 20
2.627501
 30
0.0
 10
6.173866
 20
2.633217
 30
0.0
  0
SPLINE
  5
293
100
AcDbEntity
  8
0
 62
1
100
AcDbSpline
 70
8
 71
3
 72
8
 73
4
 74
0
 40
0
 40
0
 40
0
 40
0
 40
1
 40
1
 40
1
 40
1
 10
6.173866
 20
2.633217
 30
0.0
 10
6.179582
 20
2.638933
 30
0.0
 10
6.182793
 20
2.646686
 30
0.0
 10
6.182793
 20
2.654769
 30
0.0
  0
LWPOLYLINE
  5
294
100
AcDbEntity
  8
0
 62
1
100
AcDbPolyline
 90
1
 70
1
 10
5.246081
 20
1.718077
 30
0.0
  0
SPLINE
  5
295
100
AcDbEntity
  8
0
 62
1
100
AcDbSpline
 70
8
 71
3
 72
8
 73
4
 74
0
 40
0
 40
0
 40
0
 40
0
 40
1
 40
1
 40
1
 40
1
 10
6.525628
 20
3.934296
 30
0.0
 10
6.525628
 20
3.942379
 30
0.0
 10
6.522417
 20
3.950132
 30
0.0
 10
6.516701
 20
3.955848
 30
0.0
  0
SPLINE
  5
296
100
AcDbEntity
  8
0
 62
1
100
AcDbSpline
 70
8
 71
3
 72
8
 73
4
 74
0
 40
0
 40
0
 40
0
 40
0
 40
1
 40
1
 40
1
 40
1
 10
6.516701
 20
3.955848
 30
0.0
 10
6.510985
 20
3.961564
 30
0.0
 10
6.503232
 20
3.964776
 30
0.0
 10
6.495148
 20
3.964776
 30
0.0
  0
SPLINE
  5
297
100
AcDbEntity
  8
0
 62
1
100
AcDbSpline
 70
8
 71
3
 72
8
 73
4
 74
0
 40
0
 40
0
 40
0
 40
0
 40
1
 40
1
 40
1
 40
1
 10
6.495148
 20
3.964776
 30
0.0
 10
6.487064
 20
3.964776
 30
0.0
 10
6.479312
 20
3.961564
 30
0.0
 10
6.473596
 20
3.955848
 30
0.0
  0
SPLINE
  5
298
100
AcDbEntity
  8
0
 62
1
100
AcDbSpline
 70
8
 71
3
 72
8
 73
4
 74
0
 40
0
 40
0
 40
0
 40
0
 40
1
 40
1
 40
1
 40
1
 10
6.473596
 20
3.955848
 30
0.0
 10
6.467879
 20
3.950132
 30
0.0
 10
6.464668
 20
3.942379
 30
0.0
 10
6.464668
 20
3.934296
 30
0.0
  0
SPLINE
  5
299
100
AcDbEntity
  8
0
 62
1
100
AcDbSpline
 70
8
 71
3
 72
8
 73
4
 74
0
 40
0
 40
0
 40
0
 40
0
 40
1
 40
1
 40
1
 40
1
 10
6.464668
 20
3.934296
 30
0.0
 10
6.464668
 20
3.926212
 30
0.0
 10
6.467879
 20
3.918459
 30
0.0
 10
6.473596
 20
3.912743
 30
0.0
  0
SPLINE
  5
29a
100
AcDbEntity
  8
0
 62
1
100
AcDbSpline
 70
8
 71
3
 72
8
 73
4
 74
0
 40
0
 40
0
 40
0
 40
0
 40
1
 40
1
 40
1
 40
1
 10
6.473596
 20
3.912743
 30
0.0
 10
6.479312
 20
3.907027
 30
0.0
 10
6.487064
 20
3.903816
 30
0.0
 10
6.495148
 20
3.903816
 30
0.0
  0
SPLINE
  5
29b
100
AcDbEntity
  8
0
 62
1
100
AcDbSpline
 70
8
 71
3
 72
8
 73
4
 74
0
 40
0
 40
0
 40
0
 40
0
 40
1
 40
1
 40
1
 40
1
 10
6.495148
 20
3.903816
 30
0.0
 10
6.503232
 20
3.903816
 30
0.0
 10
6.510985
 20
3.907027
 30
0.0
 10
6.516701
 20
3.912743
 30
0.0
  0
SPLINE
  5
29c
100
AcDbEntity
  8
0
 62
1
100
AcDbSpline
 70
8
 71
3
 72
8
 73
4
 74
0
 40
0
 40
0
 40
0
 40
0
 40
1
 40
1
 40
1
 40
1
 10
6.516701
 20
3.912743
 30
0.0
 10
6.522417
 20
3.918459
 30
0.0
 10
6.525628
 20
3.926212
 30
0.0
 10
6.525628
 20
3.934296
 30
0.0
  0
LWPOLYLINE
  5
29d
100
AcDbEntity
  8
0
 62
1
100
AcDbPolyline
 90
1
 70
1
 10
6.182793
 20
2.654769
 30
0.0
  0
SPLINE
  5
29e
100
AcDbEntity
  8
0
 62
1
100
AcDbSpline
 70
8
 71
3
 72
8
 73
4
 74
0
 40
0
 40
0
 40
0
 40
0
 40
1
 40
1
 40
1
 40
1
 10
6.182793
 20
5.213815
 30
0.0
 10
6.182793
 20
5.221899
 30
0.0
 10
6.179582
 20
5.229651
 30
0.0
 10
6.173866
 20
5.235367
 30
0.0
  0
SPLINE
  5
29f
100
AcDbEntity
  8
0
 62
1
100
AcDbSpline
 70
8
 71
3
 72
8
 73
4
 74
0
 40
0
 40
0
 40
0
 40
0
 40
1
 40
1
 40
1
 40
1
 10
6.173866
 20
5.235367
 30
0.0
 10
6.168150
 20
5.241084
 30
0.0
 10
6.160397
 20
5.244295
 30
0.0
 10
6.152313
 20
5.244295
 30
0.0
  0
SPLINE
  5
2a0
100
AcDbEntity
  8
0
 62
1
100
AcDbSpline
 70
8
 71
3
 72
8
 73
4
 74
0
 40
0
 40
0
 40
0
 40
0
 40
1
 40
1
 40
1
 40
1
 10
6.152313
 20
5.244295
 30
0.0
 10
6.144229
 20
5.244295
 30
0.0
 10
6.136477
 20
5.241084
 30
0.0
 10
6.130760
 20
5.235367
 30
0.0
  0
SPLINE
  5
2a1
100
AcDbEntity
  8
0
 62
1
100
AcDbSpline
 70
8
 71
3
 72
8
 73
4
 74
0
 40
0
 40
0
 40
0
 40
0
 40
1
 40
1
 40
1
 40
1
 10
6.130760
 20
5.235367
 30
0.0
 10
6.125044
 20
5.229651
 30
0.0
 10
6.121833
 20
5.221899
 30
0.0
 10
6.121833
 20
5.213815
 30
0.0
  0
SPLINE
  5
2a2
100
AcDbEntity
  8
0
 62
1
100
AcDbSpline
 70
8
 71
3
 72
8
 73
4
 74
0
 40
0
 40
0
 40
0
 40
0
 40
1
 40
1
 40
1
 40
1
 10
6.121833
 20
5.213815
 30
0.0
 10
6.121833
 20
5.205731
 30
0.0
 10
6.125044
 20
5.197978
 30
0.0
 10
6.130760
 20
5.192262
 30
0.0
  0
SPLINE
  5
2a3
100
AcDbEntity
  8
0
 62
1
100
AcDbSpline
 70
8
 71
3
 72
8
 73
4
 74
0
 40
0
 40
0
 40
0
 40
0
 40
1
 40
1
 40
1
 40
1
 10
6.130760
 20
5.192262
 30
0.0
 10
6.136477
 20
5.186546
 30
0.0
 10
6.144229
 20
5.183335
 30
0.0
 10
6.152313
 20
5.183335
 30
0.0
  0
SPLINE
  5
2a4
100
AcDbEntity
  8
0
 62
1
100
AcDbSpline
 70
8
 71
3
 72
8
 73
4
 74
0
 40
0
 40
0
 40
0
 40
0
 40
1
 40
1
 40
1
 40
1
 10
6.152313
 20
5.183335
 30
0.0
 10
6.160397
 20
5.183335
 30
0.0
 10
6.168150
 20
5.186546
 30
0.0
 10
6.173866
 20
5.192262
 30
0.0
  0
SPLINE
  5
2a5
100
AcDbEntity
  8
0
 62
1
100
AcDbSpline
 70
8
 71
3
 72
8
 73
4
 74
0
 40
0
 40
0
 40
0
 40
0
 40
1
 40
1
 40
1
 40
1
 10
6.173866
 20
5.192262
 30
0.0
 10
6.179582
 20
5.197978
 30
0.0
 10
6.182793
 20
5.205731
 30
0.0
 10
6.182793
 20
5.213815
 30
0.0
  0
LWPOLYLINE
  5
2a6
100
AcDbEntity
  8
0
 62
1
100
AcDbPolyline
 90
1
 70
1
 10
6.525628
 20
3.934296
 30
0.0
  0
SPLINE
  5
2a7
100
AcDbEntity
  8
0
 62
1
100
AcDbSpline
 70
8
 71
3
 72
8
 73
4
 74
0
 40
0
 40
0
 40
0
 40
0
 40
1
 40
1
 40
1
 40
1
 10
5.246081
 20
6.150527
 30
0.0
 10
5.246081
 20
6.158611
 30
0.0
 10
5.242870
 20
6.166364
 30
0.0
 10
5.237154
 20
6.172080
 30
0.0
  0
SPLINE
  5
2a8
100
AcDbEntity
  8
0
 62
1
100
AcDbSpline
 70
8
 71
3
 72
8
 73
4
 74
0
 40
0
 40
0
 40
0
 40
0
 40
1
 40
1
 40
1
 40
1
 10
5.237154
 20
6.172080
 30
0.0
 10
5.231437
 20
6.177796
 30
0.0
 10
5.223685
 20
6.181007
 30
0.0
 10
5.215601
 20
6.181007
 30
0.0
  0
SPLINE
  5
2a9
100
AcDbEntity
  8
0
 62
1
100
AcDbSpline
 70
8
 71
3
 72
8
 73
4
 74
0
 40
0
 40
0
 40
0
 40
0
 40
1
 40
1
 40
1
 40
1
 10
5.215601
 20
6.181007
 30
0.0
 10
5.207517
 20
6.181007
 30
0.0
 10
5.199764
 20
6.177796
 30
0.0
 10
5.194048
 20
6.172080
 30
0.0
  0
SPLINE
  5
2aa
100
AcDbEntity
  8
0
 62
1
100
AcDbSpline
 70
8
 71
3
 72
8
 73
4
 74
0
 40
0
 40
0
 40
0
 40
0
 40
1
 40
1
 40
1
 40
1
 10
5.194048
 20
6.172080
 30
0.0
 10
5.188332
 20
6.166364
 30
0.0
 10
5.185121
 20
6.158611
 30
0.0
 10
5.185121
 20
6.150527
 30
0.0
  0
SPLINE
  5
2ab
100
AcDbEntity
  8
0
 62
1
100
AcDbSpline
 70
8
 71
3
 72
8
 73
4
 74
0
 40
0
 40
0
 40
0
 40
0
 40
1
 40
1
 40
1
 40
1
 10
5.185121
 20
6.150527
 30
0.0
 10
5.185121
 20
6.142443
 30
0.0
 10
5.188332
 20
6.134690
 30
0.0
 10
5.194048
 20
6.128974
 30
0.0
  0
SPLINE
  5
2ac
100
AcDbEntity
  8
0
 62
1
100
AcDbSpline
 70
8
 71
3
 72
8
 73
4
 74
0
 40
0
 40
0
 40
0
 40
0
 40
1
 40
1
 40
1
 40
1
 10
5.194048
 20
6.128974
 30
0.0
 10
5.199764
 20
6.123258
 30
0.0
 10
5.207517
 20
6.120047
 30
0.0
 10
5.215601
 20
6.120047
 30
0.0
  0
SPLINE
  5
2ad
100
AcDbEntity
  8
0
 62
1
100
AcDbSpline
 70
8
 71
3
 72
8
 73
4
 74
0
 40
0
 40
0
 40
0
 40
0
 40
1
 40
1
 40
1
 40
1
 10
5.215601
 20
6.120047
 30
0.0
 10
5.223685
 20
6.120047
 30
0.0
 10
5.231437
 20
6.123258
 30
0.0
 10
5.237154
 20
6.128974
 30
0.0
  0
SPLINE
  5
2ae
100
AcDbEntity
  8
0
 62
1
100
AcDbSpline
 70
8
 71
3
 72
8
 73
4
 74
0
 40
0
 40
0
 40
0
 40
0
 40
1
 40
1
 40
1
 40
1
 10
5.237154
 20
6.128974
 30
0.0
 10
5.242870
 20
6.134690
 30
0.0
 10
5.246081
 20
6.142443
 30
0.0
 10
5.246081
 20
6.150527
 30
0.0
  0
LWPOLYLINE
  5
2af
100
AcDbEntity
  8
0
 62
1
100
AcDbPolyline
 90
1
 70
1
 10
6.182793
 20
5.213815
 30
0.0
  0
LWPOLYLINE
  5
2b0
100
AcDbEntity
  8
0
 62
1
100
AcDbPolyline
 90
1
 70
1
 10
5.246081
 20
6.150527
 30
0.0
  0
LWPOLYLINE
  5
2b1
100
AcDbEntity
  8
0
 62
1
100
AcDbPolyline
 90
4
 70
1
 10
0.001997
 20
9.186118
 30
0.0
 10
7.875587
 20
9.186118
 30
0.0
 10
7.875587
 20
7.927098
 30
0.0
 10
0.001997
 20
7.927098
 30
0.0
  0
LWPOLYLINE
  5
2b2
100
AcDbEntity
  8
0
 62
1
100
AcDbPolyline
 90
4
 70
1
 10
7.938957
 20
7.873021
 30
0.0
 10
15.810978
 20
7.873021
 30
0.0
 10
15.810978
 20
0.001000
 30
0.0
 10
7.938957
 20
0.001000
 30
0.0
  0
LWPOLYLINE
  5
2b3
100
AcDbEntity
  8
0
 62
1
100
AcDbPolyline
 90
4
 70
1
 10
7.917333
 20
9.186118
 30
0.0
 10
15.790923
 20
9.186118
 30
0.0
 10
15.790923
 20
7.927098
 30
0.0
 10
7.917333
 20
7.927098
 30
0.0
  0
LWPOLYLINE
  5
2b4
100
AcDbEntity
  8
0
 62
1
100
AcDbPolyline
 90
4
 70
1
 10
0.001966
 20
10.519456
 30
0.0
 10
7.635844
 20
10.519456
 30
0.0
 10
7.635844
 20
9.260444
 30
0.0
 10
0.001966
 20
9.260444
 30
0.0
  0
LWPOLYLINE
  5
2b5
100
AcDbEntity
  8
0
 62
1
100
AcDbPolyline
 90
4
 70
1
 10
7.688135
 20
10.519456
 30
0.0
 10
15.322013
 20
10.519456
 30
0.0
 10
15.322013
 20
9.260444
 30
0.0
 10
7.688135
 20
9.260444
 30
0.0
  0
LWPOLYLINE
  5
2b6
100
AcDbEntity
  8
0
 62
1
100
AcDbPolyline
 90
4
 70
1
 10
0.591470
 20
10.087708
 30
0.0
 10
1.061436
 20
10.087708
 30
0.0
 10
1.061436
 20
9.671149
 30
0.0
 10
0.591470
 20
9.671149
 30
0.0
  0
LWPOLYLINE
  5
2b7
100
AcDbEntity
  8
0
 62
1
100
AcDbPolyline
 90
4
 70
1
 10
15.538651
 20
10.708163
 30
0.0
 10
15.068685
 20
10.708163
 30
0.0
 10
15.068685
 20
11.124722
 30
0.0
 10
15.538651
 20
11.124722
 30
0.0
  0
SPLINE
  5
2b8
100
AcDbEntity
  8
0
 62
1
100
AcDbSpline
 70
8
 71
3
 72
8
 73
4
 74
0
 40
0
 40
0
 40
0
 40
0
 40
1
 40
1
 40
1
 40
1
 10
8.311181
 20
0.437242
 30
0.0
 10
8.293665
 20
0.437242
 30
0.0
 10
8.277874
 20
0.426691
 30
0.0
 10
8.271171
 20
0.410508
 30
0.0
  0
SPLINE
  5
2b9
100
AcDbEntity
  8
0
 62
1
100
AcDbSpline
 70
8
 71
3
 72
8
 73
4
 74
0
 40
0
 40
0
 40
0
 40
0
 40
1
 40
1
 40
1
 40
1
 10
8.271171
 20
0.410508
 30
0.0
 10
8.264468
 20
0.394325
 30
0.0
 10
8.268173
 20
0.375698
 30
0.0
 10
8.280558
 20
0.363312
 30
0.0
  0
SPLINE
  5
2ba
100
AcDbEntity
  8
0
 62
1
100
AcDbSpline
 70
8
 71
3
 72
8
 73
4
 74
0
 40
0
 40
0
 40
0
 40
0
 40
1
 40
1
 40
1
 40
1
 10
8.280558
 20
0.363312
 30
0.0
 10
8.292944
 20
0.350926
 30
0.0
 10
8.311571
 20
0.347221
 30
0.0
 10
8.327754
 20
0.353924
 30
0.0
  0
SPLINE
  5
2bb
100
AcDbEntity
  8
0
 62
1
100
AcDbSpline
 70
8
 71
3
 72
8
 73
4
 74
0
 40
0
 40
0
 40
0
 40
0
 40
1
 40
1
 40
1
 40
1
 10
8.327754
 20
0.353924
 30
0.0
 10
8.343937
 20
0.360627
 30
0.0
 10
8.354488
 20
0.376419
 30
0.0
 10
8.354488
 20
0.393935
 30
0.0
  0
SPLINE
  5
2bc
100
AcDbEntity
  8
0
 62
1
100
AcDbSpline
 70
8
 71
3
 72
8
 73
4
 74
0
 40
0
 40
0
 40
0
 40
0
 40
1
 40
1
 40
1
 40
1
 10
8.354488
 20
0.393935
 30
0.0
 10
8.354488
 20
0.405421
 30
0.0
 10
8.349926
 20
0.416436
 30
0.0
 10
8.341804
 20
0.424558
 30
0.0
  0
SPLINE
  5
2bd
100
AcDbEntity
  8
0
 62
1
100
AcDbSpline
 70
8
 71
3
 72
8
 73
4
 74
0
 40
0
 40
0
 40
0
 40
0
 40
1
 40
1
 40
1
 40
1
 10
8.341804
 20
0.424558
 30
0.0
 10
8.333682
 20
0.432679
 30
0.0
 10
8.322667
 20
0.437242
 30
0.0
 10
8.311181
 20
0.437242
 30
0.0
  0
LWPOLYLINE
  5
2be
100
AcDbEntity
  8
0
 62
1
100
AcDbPolyline
 90
4
 70
1
 10
14.828711
 20
10.572404
 30
0.0
 10
14.828711
 20
11.285978
 30
0.0
 10
15.768438
 20
11.285978
 30
0.0
 10
15.768438
 20
10.572404
 30
0.0
  0
SPLINE
  5
2bf
100
AcDbEntity
  8
0
 62
1
100
AcDbSpline
 70
8
 71
3
 72
8
 73
4
 74
0
 40
0
 40
0
 40
0
 40
0
 40
1
 40
1
 40
1
 40
1
 10
8.311181
 20
7.412243
 30
0.0
 10
8.293665
 20
7.412243
 30
0.0
 10
8.277874
 20
7.401691
 30
0.0
 10
8.271171
 20
7.385509
 30
0.0
  0
SPLINE
  5
2c0
100
AcDbEntity
  8
0
 62
1
100
AcDbSpline
 70
8
 71
3
 72
8
 73
4
 74
0
 40
0
 40
0
 40
0
 40
0
 40
1
 40
1
 40
1
 40
1
 10
8.271171
 20
7.385509
 30
0.0
 10
8.264468
 20
7.369326
 30
0.0
 10
8.268173
 20
7.350699
 30
0.0
 10
8.280558
 20
7.338313
 30
0.0
  0
SPLINE
  5
2c1
100
AcDbEntity
  8
0
 62
1
100
AcDbSpline
 70
8
 71
3
 72
8
 73
4
 74
0
 40
0
 40
0
 40
0
 40
0
 40
1
 40
1
 40
1
 40
1
 10
8.280558
 20
7.338313
 30
0.0
 10
8.292944
 20
7.325927
 30
0.0
 10
8.311571
 20
7.322222
 30
0.0
 10
8.327754
 20
7.328925
 30
0.0
  0
SPLINE
  5
2c2
100
AcDbEntity
  8
0
 62
1
100
AcDbSpline
 70
8
 71
3
 72
8
 73
4
 74
0
 40
0
 40
0
 40
0
 40
0
 40
1
 40
1
 40
1
 40
1
 10
8.327754
 20
7.328925
 30
0.0
 10
8.343937
 20
7.335628
 30
0.0
 10
8.354488
 20
7.351420
 30
0.0
 10
8.354488
 20
7.368936
 30
0.0
  0
SPLINE
  5
2c3
100
AcDbEntity
  8
0
 62
1
100
AcDbSpline
 70
8
 71
3
 72
8
 73
4
 74
0
 40
0
 40
0
 40
0
 40
0
 40
1
 40
1
 40
1
 40
1
 10
8.354488
 20
7.368936
 30
0.0
 10
8.354488
 20
7.380421
 30
0.0
 10
8.349926
 20
7.391437
 30
0.0
 10
8.341804
 20
7.399558
 30
0.0
  0
SPLINE
  5
2c4
100
AcDbEntity
  8
0
 62
1
100
AcDbSpline
 70
8
 71
3
 72
8
 73
4
 74
0
 40
0
 40
0
 40
0
 40
0
 40
1
 40
1
 40
1
 40
1
 10
8.341804
 20
7.399558
 30
0.0
 10
8.333682
 20
7.407680
 30
0.0
 10
8.322667
 20
7.412243
 30
0.0
 10
8.311181
 20
7.412243
 30
0.0
  0
LWPOLYLINE
  5
2c5
100
AcDbEntity
  8
0
 62
1
100
AcDbPolyline
 90
1
 70
1
 10
8.311181
 20
0.437242
 30
0.0
  0
SPLINE
  5
2c6
100
AcDbEntity
  8
0
 62
1
100
AcDbSpline
 70
8
 71
3
 72
8
 73
4
 74
0
 40
0
 40
0
 40
0
 40
0
 40
1
 40
1
 40
1
 40
1
 10
15.411182
 20
7.412243
 30
0.0
 10
15.393666
 20
7.412243
 30
0.0
 10
15.377875
 20
7.401691
 30
0.0
 10
15.371171
 20
7.385509
 30
0.0
  0
SPLINE
  5
2c7
100
AcDbEntity
  8
0
 62
1
100
AcDbSpline
 70
8
 71
3
 72
8
 73
4
 74
0
 40
0
 40
0
 40
0
 40
0
 40
1
 40
1
 40
1
 40
1
 10
15.371171
 20
7.385509
 30
0.0
 10
15.364468
 20
7.369326
 30
0.0
 10
15.368174
 20
7.350699
 30
0.0
 10
15.380559
 20
7.338313
 30
0.0
  0
SPLINE
  5
2c8
100
AcDbEntity
  8
0
 62
1
100
AcDbSpline
 70
8
 71
3
 72
8
 73
4
 74
0
 40
0
 40
0
 40
0
 40
0
 40
1
 40
1
 40
1
 40
1
 10
15.380559
 20
7.338313
 30
0.0
 10
15.392945
 20
7.325927
 30
0.0
 10
15.411572
 20
7.322222
 30
0.0
 10
15.427755
 20
7.328925
 30
0.0
  0
SPLINE
  5
2c9
100
AcDbEntity
  8
0
 62
1
100
AcDbSpline
 70
8
 71
3
 72
8
 73
4
 74
0
 40
0
 40
0
 40
0
 40
0
 40
1
 40
1
 40
1
 40
1
 10
15.427755
 20
7.328925
 30
0.0
 10
15.443938
 20
7.335628
 30
0.0
 10
15.454489
 20
7.351420
 30
0.0
 10
15.454489
 20
7.368936
 30
0.0
  0
SPLINE
  5
2ca
100
AcDbEntity
  8
0
 62
1
100
AcDbSpline
 70
8
 71
3
 72
8
 73
4
 74
0
 40
0
 40
0
 40
0
 40
0
 40
1
 40
1
 40
1
 40
1
 10
15.454489
 20
7.368936
 30
0.0
 10
15.454489
 20
7.380421
 30
0.0
 10
15.449926
 20
7.391437
 30
0.0
 10
15.441805
 20
7.399558
 30
0.0
  0
SPLINE
  5
2cb
100
AcDbEntity
  8
0
 62
1
100
AcDbSpline
 70
8
 71
3
 72
8
 73
4
 74
0
 40
0
 40
0
 40
0
 40
0
 40
1
 40
1
 40
1
 40
1
 10
15.441805
 20
7.399558
 30
0.0
 10
15.433683
 20
7.407680
 30
0.0
 10
15.422668
 20
7.412243
 30
0.0
 10
15.411182
 20
7.412243
 30
0.0
  0
LWPOLYLINE
  5
2cc
100
AcDbEntity
  8
0
 62
1
100
AcDbPolyline
 90
1
 70
1
 10
8.311181
 20
7.412243
 30
0.0
  0
SPLINE
  5
2cd
100
AcDbEntity
  8
0
 62
1
100
AcDbSpline
 70
8
 71
3
 72
8
 73
4
 74
0
 40
0
 40
0
 40
0
 40
0
 40
1
 40
1
 40
1
 40
1
 10
15.411182
 20
0.437242
 30
0.0
 10
15.393666
 20
0.437242
 30
0.0
 10
15.377875
 20
0.426691
 30
0.0
 10
15.371171
 20
0.410508
 30
0.0
  0
SPLINE
  5
2ce
100
AcDbEntity
  8
0
 62
1
100
AcDbSpline
 70
8
 71
3
 72
8
 73
4
 74
0
 40
0
 40
0
 40
0
 40
0
 40
1
 40
1
 40
1
 40
1
 10
15.371171
 20
0.410508
 30
0.0
 10
15.364468
 20
0.394325
 30
0.0
 10
15.368174
 20
0.375698
 30
0.0
 10
15.380559
 20
0.363312
 30
0.0
  0
SPLINE
  5
2cf
100
AcDbEntity
  8
0
 62
1
100
AcDbSpline
 70
8
 71
3
 72
8
 73
4
 74
0
 40
0
 40
0
 40
0
 40
0
 40
1
 40
1
 40
1
 40
1
 10
15.380559
 20
0.363312
 30
0.0
 10
15.392945
 20
0.350926
 30
0.0
 10
15.411572
 20
0.347221
 30
0.0
 10
15.427755
 20
0.353924
 30
0.0
  0
SPLINE
  5
2d0
100
AcDbEntity
  8
0
 62
1
100
AcDbSpline
 70
8
 71
3
 72
8
 73
4
 74
0
 40
0
 40
0
 40
0
 40
0
 40
1
 40
1
 40
1
 40
1
 10
15.427755
 20
0.353924
 30
0.0
 10
15.443938
 20
0.360627
 30
0.0
 10
15.454489
 20
0.376419
 30
0.0
 10
15.454489
 20
0.393935
 30
0.0
  0
SPLINE
  5
2d1
100
AcDbEntity
  8
0
 62
1
100
AcDbSpline
 70
8
 71
3
 72
8
 73
4
 74
0
 40
0
 40
0
 40
0
 40
0
 40
1
 40
1
 40
1
 40
1
 10
15.454489
 20
0.393935
 30
0.0
 10
15.454489
 20
0.405421
 30
0.0
 10
15.449926
 20
0.416436
 30
0.0
 10
15.441805
 20
0.424558
 30
0.0
  0
SPLINE
  5
2d2
100
AcDbEntity
  8
0
 62
1
100
AcDbSpline
 70
8
 71
3
 72
8
 73
4
 74
0
 40
0
 40
0
 40
0
 40
0
 40
1
 40
1
 40
1
 40
1
 10
15.441805
 20
0.424558
 30
0.0
 10
15.433683
 20
0.432679
 30
0.0
 10
15.422668
 20
0.437242
 30
0.0
 10
15.411182
 20
0.437242
 30
0.0
  0
LWPOLYLINE
  5
2d3
100
AcDbEntity
  8
0
 62
1
100
AcDbPolyline
 90
1
 70
1
 10
15.411182
 20
7.412243
 30
0.0
  0
LWPOLYLINE
  5
2d4
100
AcDbEntity
  8
0
 62
1
100
AcDbPolyline
 90
1
 70
1
 10
15.411182
 20
0.437242
 30
0.0
  0
LWPOLYLINE
  5
2d5
100
AcDbEntity
  8
0
 62
1
100
AcDbPolyline
 90
4
 70
1
 10
14.496984
 20
10.708163
 30
0.0
 10
14.027018
 20
10.708163
 30
0.0
 10
14.027018
 20
11.124722
 30
0.0
 10
14.496984
 20
11.124722
 30
0.0
  0
LWPOLYLINE
  5
2d6
100
AcDbEntity
  8
0
 62
1
100
AcDbPolyline
 90
4
 70
1
 10
13.787015
 20
10.572404
 30
0.0
 10
13.787015
 20
11.285978
 30
0.0
 10
14.726743
 20
11.285978
 30
0.0
 10
14.726743
 20
10.572404
 30
0.0
  0
ENDSEC
  0
SECTION
  2
OBJECTS
  0
DICTIONARY
  5
C
330
0
100
AcDbDictionary
  3
ACAD_GROUP
350
D
  3
ACAD_MLINESTYLE
350
17
  0
DICTIONARY
  5
D
330
C
100
AcDbDictionary
  0
DICTIONARY
  5
1A
330
C
100
AcDbDictionary
  0
DICTIONARY
  5
17
330
C
100
AcDbDictionary
  3
STANDARD
350
18
  0
DICTIONARY
  5
19
330
C
100
AcDbDictionary
  0
ENDSEC
  0
EOF
